<svg width="10525" height="250" viewBox="0 0 10525 250" fill="none" xmlns="http://www.w3.org/2000/svg">
<path d="M80 100.88L46.8062 111.689L40 78L33.1939 111.689L0 100.88L25.9569 124.585L0 147.874L33.6184 136.645L40 172L46.3815 136.645L80 147.874L54.0431 124.585L80 100.88Z" fill="#C1CCA4"/>
<path d="M185.09 6.71142L186.118 0.75H259.865L258.837 6.71142H225.175L208.73 106H202.306L218.751 6.71142H185.09ZM236.445 106H229.661L285.113 0.75H292.513L313.018 106H306.235L287.785 9.02405H287.22L236.445 106ZM252.685 66.3771H303.254L302.226 72.3385H251.657L252.685 66.3771ZM314.768 106L315.744 100.707L391.239 6.71142H331.419L332.344 0.75H400.078L399.358 6.04333L323.607 100.039H384.147L383.119 106H314.768ZM395.262 106L412.735 0.75H419.159L409.035 61.8546H409.703L475.382 0.75H483.913L430.003 50.5485L466.028 106H458.011L425.121 55.1737L407.442 71.7218L401.686 106H395.262ZM497.032 0.75L479.559 106H473.135L490.608 0.75H497.032ZM503.805 0.75H511.154L535.874 51.5249H536.696L578.272 0.75H586.032L538.546 58.2572L530.683 106H524.208L532.122 58.2572L503.805 0.75ZM560.518 106H553.734L609.186 0.75H616.586L637.091 106H630.308L611.858 9.02405H611.293L560.518 106ZM576.758 66.3771H627.327L626.299 72.3385H575.73L576.758 66.3771ZM192.593 248L180.876 142.75H197.578L204.567 224.257H205.544L240.387 142.75H256.935L264.747 224.308H265.775L299.693 142.75H316.447L269.732 248H253.749L244.756 169.165H243.933L208.627 248H192.593ZM395.232 196.403C393.382 207.469 389.785 216.959 384.44 224.874C379.129 232.788 372.62 238.869 364.911 243.118C357.237 247.332 348.945 249.439 340.038 249.439C330.753 249.439 322.821 247.229 316.243 242.809C309.699 238.356 305.006 232.034 302.162 223.846C299.318 215.623 298.839 205.825 300.723 194.45C302.573 183.384 306.153 173.893 311.464 165.979C316.809 158.03 323.335 151.932 331.044 147.684C338.787 143.435 347.147 141.311 356.123 141.311C365.339 141.311 373.202 143.538 379.712 147.992C386.256 152.412 390.95 158.75 393.793 167.007C396.637 175.229 397.117 185.028 395.232 196.403ZM379.763 194.45C381.168 186.056 380.997 178.998 379.249 173.277C377.536 167.521 374.607 163.17 370.461 160.223C366.316 157.277 361.314 155.803 355.455 155.803C349.22 155.803 343.378 157.379 337.931 160.531C332.517 163.684 327.892 168.274 324.055 174.304C320.218 180.334 317.597 187.701 316.192 196.403C314.753 204.797 314.907 211.855 316.654 217.576C318.402 223.298 321.348 227.632 325.494 230.578C329.674 233.49 334.693 234.947 340.552 234.947C346.753 234.947 352.56 233.388 357.973 230.27C363.421 227.118 368.063 222.544 371.9 216.548C375.738 210.518 378.359 203.152 379.763 194.45ZM393.448 248L410.922 142.75H448.437C456.592 142.75 463.118 144.155 468.018 146.964C472.951 149.739 476.343 153.611 478.193 158.579C480.078 163.512 480.489 169.234 479.427 175.743C478.33 182.184 476.018 187.838 472.489 192.703C468.994 197.568 464.317 201.371 458.459 204.112C452.634 206.818 445.645 208.172 437.491 208.172H409.071L411.435 194.501H438.416C443.589 194.501 447.906 193.765 451.367 192.292C454.827 190.818 457.534 188.677 459.487 185.868C461.474 183.058 462.776 179.683 463.392 175.743C464.043 171.735 463.855 168.292 462.827 165.414C461.799 162.502 459.795 160.275 456.814 158.733C453.834 157.157 449.739 156.369 444.532 156.369H424.592L409.328 248H393.448ZM453.268 200.514L471.409 248H453.32L435.641 200.514H453.268ZM474.148 248L491.621 142.75H507.501L499.227 193.011H500.512L552.931 142.75H572.923L522.713 190.133L555.604 248H536.486L510.379 200.977L495.578 215.315L490.028 248H474.148ZM627.117 171.015C627.152 165.842 625.473 161.885 622.081 159.144C618.723 156.403 614.03 155.033 608 155.033C603.683 155.033 599.828 155.718 596.437 157.088C593.079 158.424 590.338 160.275 588.214 162.639C586.124 164.968 584.839 167.624 584.359 170.604C583.914 173.105 584.137 175.264 585.028 177.08C585.953 178.895 587.272 180.42 588.985 181.653C590.732 182.853 592.651 183.863 594.741 184.686C596.831 185.474 598.852 186.125 600.805 186.638L610.672 189.311C613.858 190.133 617.096 191.247 620.385 192.651C623.674 194.056 626.638 195.906 629.276 198.202C631.914 200.497 633.884 203.341 635.186 206.733C636.488 210.124 636.745 214.184 635.957 218.912C634.929 224.874 632.513 230.167 628.71 234.792C624.907 239.418 619.888 243.066 613.653 245.739C607.417 248.411 600.188 249.747 591.965 249.747C584.085 249.747 577.456 248.497 572.077 245.996C566.732 243.495 562.809 239.949 560.308 235.358C557.807 230.732 556.916 225.251 557.636 218.912H573.619C573.242 222.715 573.927 225.884 575.674 228.42C577.456 230.921 579.957 232.788 583.177 234.021C586.398 235.221 590.047 235.82 594.124 235.82C598.646 235.82 602.775 235.118 606.509 233.713C610.244 232.274 613.327 230.287 615.76 227.752C618.192 225.182 619.683 222.184 620.231 218.758C620.779 215.64 620.334 213.088 618.895 211.101C617.49 209.114 615.366 207.469 612.522 206.167C609.713 204.865 606.509 203.718 602.912 202.724L591.04 199.332C582.989 197.037 576.891 193.662 572.745 189.208C568.599 184.754 567.109 178.861 568.274 171.529C569.302 165.465 571.837 160.172 575.88 155.649C579.923 151.127 584.959 147.615 590.989 145.114C597.019 142.579 603.563 141.311 610.621 141.311C617.747 141.311 623.811 142.579 628.813 145.114C633.815 147.649 637.516 151.144 639.914 155.598C642.312 160.052 643.151 165.191 642.432 171.015H627.117ZM647.278 248.976C644.4 248.976 642.002 247.983 640.083 245.996C638.199 244.009 637.274 241.576 637.308 238.698C637.342 235.854 638.404 233.473 640.494 231.555C642.618 229.602 645.085 228.625 647.894 228.625C650.704 228.625 653.102 229.619 655.089 231.606C657.076 233.593 658.001 235.957 657.864 238.698C657.762 240.617 657.213 242.364 656.22 243.94C655.261 245.482 653.993 246.715 652.417 247.64C650.841 248.531 649.128 248.976 647.278 248.976Z" fill="#C1CCA4"/>
<path d="M839 100.88L805.806 111.689L799 78L792.194 111.689L759 100.88L784.957 124.585L759 147.874L792.618 136.645L799 172L805.382 136.645L839 147.874L813.043 124.585L839 100.88Z" fill="#C1CCA4"/>
<path d="M944.09 6.71142L945.118 0.75H1018.86L1017.84 6.71142H984.175L967.73 106H961.306L977.751 6.71142H944.09ZM995.445 106H988.661L1044.11 0.75H1051.51L1072.02 106H1065.24L1046.79 9.02405H1046.22L995.445 106ZM1011.68 66.3771H1062.25L1061.23 72.3385H1010.66L1011.68 66.3771ZM1073.77 106L1074.74 100.707L1150.24 6.71142H1090.42L1091.34 0.75H1159.08L1158.36 6.04333L1082.61 100.039H1143.15L1142.12 106H1073.77ZM1154.26 106L1171.74 0.75H1178.16L1168.04 61.8546H1168.7L1234.38 0.75H1242.91L1189 50.5485L1225.03 106H1217.01L1184.12 55.1737L1166.44 71.7218L1160.69 106H1154.26ZM1256.03 0.75L1238.56 106H1232.14L1249.61 0.75H1256.03ZM1262.8 0.75H1270.15L1294.87 51.5249H1295.7L1337.27 0.75H1345.03L1297.55 58.2572L1289.68 106H1283.21L1291.12 58.2572L1262.8 0.75ZM1319.52 106H1312.73L1368.19 0.75H1375.59L1396.09 106H1389.31L1370.86 9.02405H1370.29L1319.52 106ZM1335.76 66.3771H1386.33L1385.3 72.3385H1334.73L1335.76 66.3771ZM951.593 248L939.876 142.75H956.578L963.567 224.257H964.544L999.387 142.75H1015.94L1023.75 224.308H1024.77L1058.69 142.75H1075.45L1028.73 248H1012.75L1003.76 169.165H1002.93L967.627 248H951.593ZM1154.23 196.403C1152.38 207.469 1148.79 216.959 1143.44 224.874C1138.13 232.788 1131.62 238.869 1123.91 243.118C1116.24 247.332 1107.94 249.439 1099.04 249.439C1089.75 249.439 1081.82 247.229 1075.24 242.809C1068.7 238.356 1064.01 232.034 1061.16 223.846C1058.32 215.623 1057.84 205.825 1059.72 194.45C1061.57 183.384 1065.15 173.893 1070.46 165.979C1075.81 158.03 1082.34 151.932 1090.04 147.684C1097.79 143.435 1106.15 141.311 1115.12 141.311C1124.34 141.311 1132.2 143.538 1138.71 147.992C1145.26 152.412 1149.95 158.75 1152.79 167.007C1155.64 175.229 1156.12 185.028 1154.23 196.403ZM1138.76 194.45C1140.17 186.056 1140 178.998 1138.25 173.277C1136.54 167.521 1133.61 163.17 1129.46 160.223C1125.32 157.277 1120.31 155.803 1114.46 155.803C1108.22 155.803 1102.38 157.379 1096.93 160.531C1091.52 163.684 1086.89 168.274 1083.05 174.304C1079.22 180.334 1076.6 187.701 1075.19 196.403C1073.75 204.797 1073.91 211.855 1075.65 217.576C1077.4 223.298 1080.35 227.632 1084.49 230.578C1088.67 233.49 1093.69 234.947 1099.55 234.947C1105.75 234.947 1111.56 233.388 1116.97 230.27C1122.42 227.118 1127.06 222.544 1130.9 216.548C1134.74 210.518 1137.36 203.152 1138.76 194.45ZM1152.45 248L1169.92 142.75H1207.44C1215.59 142.75 1222.12 144.155 1227.02 146.964C1231.95 149.739 1235.34 153.611 1237.19 158.579C1239.08 163.512 1239.49 169.234 1238.43 175.743C1237.33 182.184 1235.02 187.838 1231.49 192.703C1227.99 197.568 1223.32 201.371 1217.46 204.112C1211.63 206.818 1204.64 208.172 1196.49 208.172H1168.07L1170.43 194.501H1197.42C1202.59 194.501 1206.91 193.765 1210.37 192.292C1213.83 190.818 1216.53 188.677 1218.49 185.868C1220.47 183.058 1221.78 179.683 1222.39 175.743C1223.04 171.735 1222.85 168.292 1221.83 165.414C1220.8 162.502 1218.79 160.275 1215.81 158.733C1212.83 157.157 1208.74 156.369 1203.53 156.369H1183.59L1168.33 248H1152.45ZM1212.27 200.514L1230.41 248H1212.32L1194.64 200.514H1212.27ZM1233.15 248L1250.62 142.75H1266.5L1258.23 193.011H1259.51L1311.93 142.75H1331.92L1281.71 190.133L1314.6 248H1295.49L1269.38 200.977L1254.58 215.315L1249.03 248H1233.15ZM1386.12 171.015C1386.15 165.842 1384.47 161.885 1381.08 159.144C1377.72 156.403 1373.03 155.033 1367 155.033C1362.68 155.033 1358.83 155.718 1355.44 157.088C1352.08 158.424 1349.34 160.275 1347.21 162.639C1345.12 164.968 1343.84 167.624 1343.36 170.604C1342.91 173.105 1343.14 175.264 1344.03 177.08C1344.95 178.895 1346.27 180.42 1347.98 181.653C1349.73 182.853 1351.65 183.863 1353.74 184.686C1355.83 185.474 1357.85 186.125 1359.8 186.638L1369.67 189.311C1372.86 190.133 1376.1 191.247 1379.39 192.651C1382.67 194.056 1385.64 195.906 1388.28 198.202C1390.91 200.497 1392.88 203.341 1394.19 206.733C1395.49 210.124 1395.75 214.184 1394.96 218.912C1393.93 224.874 1391.51 230.167 1387.71 234.792C1383.91 239.418 1378.89 243.066 1372.65 245.739C1366.42 248.411 1359.19 249.747 1350.96 249.747C1343.08 249.747 1336.46 248.497 1331.08 245.996C1325.73 243.495 1321.81 239.949 1319.31 235.358C1316.81 230.732 1315.92 225.251 1316.64 218.912H1332.62C1332.24 222.715 1332.93 225.884 1334.67 228.42C1336.46 230.921 1338.96 232.788 1342.18 234.021C1345.4 235.221 1349.05 235.82 1353.12 235.82C1357.65 235.82 1361.78 235.118 1365.51 233.713C1369.24 232.274 1372.33 230.287 1374.76 227.752C1377.19 225.182 1378.68 222.184 1379.23 218.758C1379.78 215.64 1379.33 213.088 1377.89 211.101C1376.49 209.114 1374.37 207.469 1371.52 206.167C1368.71 204.865 1365.51 203.718 1361.91 202.724L1350.04 199.332C1341.99 197.037 1335.89 193.662 1331.74 189.208C1327.6 184.754 1326.11 178.861 1327.27 171.529C1328.3 165.465 1330.84 160.172 1334.88 155.649C1338.92 151.127 1343.96 147.615 1349.99 145.114C1356.02 142.579 1362.56 141.311 1369.62 141.311C1376.75 141.311 1382.81 142.579 1387.81 145.114C1392.81 147.649 1396.52 151.144 1398.91 155.598C1401.31 160.052 1402.15 165.191 1401.43 171.015H1386.12ZM1406.28 248.976C1403.4 248.976 1401 247.983 1399.08 245.996C1397.2 244.009 1396.27 241.576 1396.31 238.698C1396.34 235.854 1397.4 233.473 1399.49 231.555C1401.62 229.602 1404.09 228.625 1406.89 228.625C1409.7 228.625 1412.1 229.619 1414.09 231.606C1416.08 233.593 1417 235.957 1416.86 238.698C1416.76 240.617 1416.21 242.364 1415.22 243.94C1414.26 245.482 1412.99 246.715 1411.42 247.64C1409.84 248.531 1408.13 248.976 1406.28 248.976Z" fill="#C1CCA4"/>
<path d="M1598 100.88L1564.81 111.689L1558 78L1551.19 111.689L1518 100.88L1543.96 124.585L1518 147.874L1551.62 136.645L1558 172L1564.38 136.645L1598 147.874L1572.04 124.585L1598 100.88Z" fill="#C1CCA4"/>
<path d="M1703.09 6.71142L1704.12 0.75H1777.86L1776.84 6.71142H1743.18L1726.73 106H1720.31L1736.75 6.71142H1703.09ZM1754.44 106H1747.66L1803.11 0.75H1810.51L1831.02 106H1824.24L1805.79 9.02405H1805.22L1754.44 106ZM1770.68 66.3771H1821.25L1820.23 72.3385H1769.66L1770.68 66.3771ZM1832.77 106L1833.74 100.707L1909.24 6.71142H1849.42L1850.34 0.75H1918.08L1917.36 6.04333L1841.61 100.039H1902.15L1901.12 106H1832.77ZM1913.26 106L1930.74 0.75H1937.16L1927.04 61.8546H1927.7L1993.38 0.75H2001.91L1948 50.5485L1984.03 106H1976.01L1943.12 55.1737L1925.44 71.7218L1919.69 106H1913.26ZM2015.03 0.75L1997.56 106H1991.14L2008.61 0.75H2015.03ZM2021.8 0.75H2029.15L2053.87 51.5249H2054.7L2096.27 0.75H2104.03L2056.55 58.2572L2048.68 106H2042.21L2050.12 58.2572L2021.8 0.75ZM2078.52 106H2071.73L2127.19 0.75H2134.59L2155.09 106H2148.31L2129.86 9.02405H2129.29L2078.52 106ZM2094.76 66.3771H2145.33L2144.3 72.3385H2093.73L2094.76 66.3771ZM1710.59 248L1698.88 142.75H1715.58L1722.57 224.257H1723.54L1758.39 142.75H1774.94L1782.75 224.308H1783.77L1817.69 142.75H1834.45L1787.73 248H1771.75L1762.76 169.165H1761.93L1726.63 248H1710.59ZM1913.23 196.403C1911.38 207.469 1907.79 216.959 1902.44 224.874C1897.13 232.788 1890.62 238.869 1882.91 243.118C1875.24 247.332 1866.94 249.439 1858.04 249.439C1848.75 249.439 1840.82 247.229 1834.24 242.809C1827.7 238.356 1823.01 232.034 1820.16 223.846C1817.32 215.623 1816.84 205.825 1818.72 194.45C1820.57 183.384 1824.15 173.893 1829.46 165.979C1834.81 158.03 1841.34 151.932 1849.04 147.684C1856.79 143.435 1865.15 141.311 1874.12 141.311C1883.34 141.311 1891.2 143.538 1897.71 147.992C1904.26 152.412 1908.95 158.75 1911.79 167.007C1914.64 175.229 1915.12 185.028 1913.23 196.403ZM1897.76 194.45C1899.17 186.056 1899 178.998 1897.25 173.277C1895.54 167.521 1892.61 163.17 1888.46 160.223C1884.32 157.277 1879.31 155.803 1873.46 155.803C1867.22 155.803 1861.38 157.379 1855.93 160.531C1850.52 163.684 1845.89 168.274 1842.05 174.304C1838.22 180.334 1835.6 187.701 1834.19 196.403C1832.75 204.797 1832.91 211.855 1834.65 217.576C1836.4 223.298 1839.35 227.632 1843.49 230.578C1847.67 233.49 1852.69 234.947 1858.55 234.947C1864.75 234.947 1870.56 233.388 1875.97 230.27C1881.42 227.118 1886.06 222.544 1889.9 216.548C1893.74 210.518 1896.36 203.152 1897.76 194.45ZM1911.45 248L1928.92 142.75H1966.44C1974.59 142.75 1981.12 144.155 1986.02 146.964C1990.95 149.739 1994.34 153.611 1996.19 158.579C1998.08 163.512 1998.49 169.234 1997.43 175.743C1996.33 182.184 1994.02 187.838 1990.49 192.703C1986.99 197.568 1982.32 201.371 1976.46 204.112C1970.63 206.818 1963.64 208.172 1955.49 208.172H1927.07L1929.43 194.501H1956.42C1961.59 194.501 1965.91 193.765 1969.37 192.292C1972.83 190.818 1975.53 188.677 1977.49 185.868C1979.47 183.058 1980.78 179.683 1981.39 175.743C1982.04 171.735 1981.85 168.292 1980.83 165.414C1979.8 162.502 1977.79 160.275 1974.81 158.733C1971.83 157.157 1967.74 156.369 1962.53 156.369H1942.59L1927.33 248H1911.45ZM1971.27 200.514L1989.41 248H1971.32L1953.64 200.514H1971.27ZM1992.15 248L2009.62 142.75H2025.5L2017.23 193.011H2018.51L2070.93 142.75H2090.92L2040.71 190.133L2073.6 248H2054.49L2028.38 200.977L2013.58 215.315L2008.03 248H1992.15ZM2145.12 171.015C2145.15 165.842 2143.47 161.885 2140.08 159.144C2136.72 156.403 2132.03 155.033 2126 155.033C2121.68 155.033 2117.83 155.718 2114.44 157.088C2111.08 158.424 2108.34 160.275 2106.21 162.639C2104.12 164.968 2102.84 167.624 2102.36 170.604C2101.91 173.105 2102.14 175.264 2103.03 177.08C2103.95 178.895 2105.27 180.42 2106.98 181.653C2108.73 182.853 2110.65 183.863 2112.74 184.686C2114.83 185.474 2116.85 186.125 2118.8 186.638L2128.67 189.311C2131.86 190.133 2135.1 191.247 2138.39 192.651C2141.67 194.056 2144.64 195.906 2147.28 198.202C2149.91 200.497 2151.88 203.341 2153.19 206.733C2154.49 210.124 2154.75 214.184 2153.96 218.912C2152.93 224.874 2150.51 230.167 2146.71 234.792C2142.91 239.418 2137.89 243.066 2131.65 245.739C2125.42 248.411 2118.19 249.747 2109.96 249.747C2102.08 249.747 2095.46 248.497 2090.08 245.996C2084.73 243.495 2080.81 239.949 2078.31 235.358C2075.81 230.732 2074.92 225.251 2075.64 218.912H2091.62C2091.24 222.715 2091.93 225.884 2093.67 228.42C2095.46 230.921 2097.96 232.788 2101.18 234.021C2104.4 235.221 2108.05 235.82 2112.12 235.82C2116.65 235.82 2120.78 235.118 2124.51 233.713C2128.24 232.274 2131.33 230.287 2133.76 227.752C2136.19 225.182 2137.68 222.184 2138.23 218.758C2138.78 215.64 2138.33 213.088 2136.89 211.101C2135.49 209.114 2133.37 207.469 2130.52 206.167C2127.71 204.865 2124.51 203.718 2120.91 202.724L2109.04 199.332C2100.99 197.037 2094.89 193.662 2090.74 189.208C2086.6 184.754 2085.11 178.861 2086.27 171.529C2087.3 165.465 2089.84 160.172 2093.88 155.649C2097.92 151.127 2102.96 147.615 2108.99 145.114C2115.02 142.579 2121.56 141.311 2128.62 141.311C2135.75 141.311 2141.81 142.579 2146.81 145.114C2151.81 147.649 2155.52 151.144 2157.91 155.598C2160.31 160.052 2161.15 165.191 2160.43 171.015H2145.12ZM2165.28 248.976C2162.4 248.976 2160 247.983 2158.08 245.996C2156.2 244.009 2155.27 241.576 2155.31 238.698C2155.34 235.854 2156.4 233.473 2158.49 231.555C2160.62 229.602 2163.09 228.625 2165.89 228.625C2168.7 228.625 2171.1 229.619 2173.09 231.606C2175.08 233.593 2176 235.957 2175.86 238.698C2175.76 240.617 2175.21 242.364 2174.22 243.94C2173.26 245.482 2171.99 246.715 2170.42 247.64C2168.84 248.531 2167.13 248.976 2165.28 248.976Z" fill="#C1CCA4"/>
<path d="M2357 100.88L2323.81 111.689L2317 78L2310.19 111.689L2277 100.88L2302.96 124.585L2277 147.874L2310.62 136.645L2317 172L2323.38 136.645L2357 147.874L2331.04 124.585L2357 100.88Z" fill="#C1CCA4"/>
<path d="M2462.09 6.71142L2463.12 0.75H2536.86L2535.84 6.71142H2502.18L2485.73 106H2479.31L2495.75 6.71142H2462.09ZM2513.44 106H2506.66L2562.11 0.75H2569.51L2590.02 106H2583.24L2564.79 9.02405H2564.22L2513.44 106ZM2529.68 66.3771H2580.25L2579.23 72.3385H2528.66L2529.68 66.3771ZM2591.77 106L2592.74 100.707L2668.24 6.71142H2608.42L2609.34 0.75H2677.08L2676.36 6.04333L2600.61 100.039H2661.15L2660.12 106H2591.77ZM2672.26 106L2689.74 0.75H2696.16L2686.04 61.8546H2686.7L2752.38 0.75H2760.91L2707 50.5485L2743.03 106H2735.01L2702.12 55.1737L2684.44 71.7218L2678.69 106H2672.26ZM2774.03 0.75L2756.56 106H2750.14L2767.61 0.75H2774.03ZM2780.8 0.75H2788.15L2812.87 51.5249H2813.7L2855.27 0.75H2863.03L2815.55 58.2572L2807.68 106H2801.21L2809.12 58.2572L2780.8 0.75ZM2837.52 106H2830.73L2886.19 0.75H2893.59L2914.09 106H2907.31L2888.86 9.02405H2888.29L2837.52 106ZM2853.76 66.3771H2904.33L2903.3 72.3385H2852.73L2853.76 66.3771ZM2469.59 248L2457.88 142.75H2474.58L2481.57 224.257H2482.54L2517.39 142.75H2533.94L2541.75 224.308H2542.77L2576.69 142.75H2593.45L2546.73 248H2530.75L2521.76 169.165H2520.93L2485.63 248H2469.59ZM2672.23 196.403C2670.38 207.469 2666.79 216.959 2661.44 224.874C2656.13 232.788 2649.62 238.869 2641.91 243.118C2634.24 247.332 2625.94 249.439 2617.04 249.439C2607.75 249.439 2599.82 247.229 2593.24 242.809C2586.7 238.356 2582.01 232.034 2579.16 223.846C2576.32 215.623 2575.84 205.825 2577.72 194.45C2579.57 183.384 2583.15 173.893 2588.46 165.979C2593.81 158.03 2600.34 151.932 2608.04 147.684C2615.79 143.435 2624.15 141.311 2633.12 141.311C2642.34 141.311 2650.2 143.538 2656.71 147.992C2663.26 152.412 2667.95 158.75 2670.79 167.007C2673.64 175.229 2674.12 185.028 2672.23 196.403ZM2656.76 194.45C2658.17 186.056 2658 178.998 2656.25 173.277C2654.54 167.521 2651.61 163.17 2647.46 160.223C2643.32 157.277 2638.31 155.803 2632.46 155.803C2626.22 155.803 2620.38 157.379 2614.93 160.531C2609.52 163.684 2604.89 168.274 2601.05 174.304C2597.22 180.334 2594.6 187.701 2593.19 196.403C2591.75 204.797 2591.91 211.855 2593.65 217.576C2595.4 223.298 2598.35 227.632 2602.49 230.578C2606.67 233.49 2611.69 234.947 2617.55 234.947C2623.75 234.947 2629.56 233.388 2634.97 230.27C2640.42 227.118 2645.06 222.544 2648.9 216.548C2652.74 210.518 2655.36 203.152 2656.76 194.45ZM2670.45 248L2687.92 142.75H2725.44C2733.59 142.75 2740.12 144.155 2745.02 146.964C2749.95 149.739 2753.34 153.611 2755.19 158.579C2757.08 163.512 2757.49 169.234 2756.43 175.743C2755.33 182.184 2753.02 187.838 2749.49 192.703C2745.99 197.568 2741.32 201.371 2735.46 204.112C2729.63 206.818 2722.64 208.172 2714.49 208.172H2686.07L2688.43 194.501H2715.42C2720.59 194.501 2724.91 193.765 2728.37 192.292C2731.83 190.818 2734.53 188.677 2736.49 185.868C2738.47 183.058 2739.78 179.683 2740.39 175.743C2741.04 171.735 2740.85 168.292 2739.83 165.414C2738.8 162.502 2736.79 160.275 2733.81 158.733C2730.83 157.157 2726.74 156.369 2721.53 156.369H2701.59L2686.33 248H2670.45ZM2730.27 200.514L2748.41 248H2730.32L2712.64 200.514H2730.27ZM2751.15 248L2768.62 142.75H2784.5L2776.23 193.011H2777.51L2829.93 142.75H2849.92L2799.71 190.133L2832.6 248H2813.49L2787.38 200.977L2772.58 215.315L2767.03 248H2751.15ZM2904.12 171.015C2904.15 165.842 2902.47 161.885 2899.08 159.144C2895.72 156.403 2891.03 155.033 2885 155.033C2880.68 155.033 2876.83 155.718 2873.44 157.088C2870.08 158.424 2867.34 160.275 2865.21 162.639C2863.12 164.968 2861.84 167.624 2861.36 170.604C2860.91 173.105 2861.14 175.264 2862.03 177.08C2862.95 178.895 2864.27 180.42 2865.98 181.653C2867.73 182.853 2869.65 183.863 2871.74 184.686C2873.83 185.474 2875.85 186.125 2877.8 186.638L2887.67 189.311C2890.86 190.133 2894.1 191.247 2897.39 192.651C2900.67 194.056 2903.64 195.906 2906.28 198.202C2908.91 200.497 2910.88 203.341 2912.19 206.733C2913.49 210.124 2913.75 214.184 2912.96 218.912C2911.93 224.874 2909.51 230.167 2905.71 234.792C2901.91 239.418 2896.89 243.066 2890.65 245.739C2884.42 248.411 2877.19 249.747 2868.96 249.747C2861.08 249.747 2854.46 248.497 2849.08 245.996C2843.73 243.495 2839.81 239.949 2837.31 235.358C2834.81 230.732 2833.92 225.251 2834.64 218.912H2850.62C2850.24 222.715 2850.93 225.884 2852.67 228.42C2854.46 230.921 2856.96 232.788 2860.18 234.021C2863.4 235.221 2867.05 235.82 2871.12 235.82C2875.65 235.82 2879.78 235.118 2883.51 233.713C2887.24 232.274 2890.33 230.287 2892.76 227.752C2895.19 225.182 2896.68 222.184 2897.23 218.758C2897.78 215.64 2897.33 213.088 2895.89 211.101C2894.49 209.114 2892.37 207.469 2889.52 206.167C2886.71 204.865 2883.51 203.718 2879.91 202.724L2868.04 199.332C2859.99 197.037 2853.89 193.662 2849.74 189.208C2845.6 184.754 2844.11 178.861 2845.27 171.529C2846.3 165.465 2848.84 160.172 2852.88 155.649C2856.92 151.127 2861.96 147.615 2867.99 145.114C2874.02 142.579 2880.56 141.311 2887.62 141.311C2894.75 141.311 2900.81 142.579 2905.81 145.114C2910.81 147.649 2914.52 151.144 2916.91 155.598C2919.31 160.052 2920.15 165.191 2919.43 171.015H2904.12ZM2924.28 248.976C2921.4 248.976 2919 247.983 2917.08 245.996C2915.2 244.009 2914.27 241.576 2914.31 238.698C2914.34 235.854 2915.4 233.473 2917.49 231.555C2919.62 229.602 2922.09 228.625 2924.89 228.625C2927.7 228.625 2930.1 229.619 2932.09 231.606C2934.08 233.593 2935 235.957 2934.86 238.698C2934.76 240.617 2934.21 242.364 2933.22 243.94C2932.26 245.482 2930.99 246.715 2929.42 247.64C2927.84 248.531 2926.13 248.976 2924.28 248.976Z" fill="#C1CCA4"/>
<path d="M3116 100.88L3082.81 111.689L3076 78L3069.19 111.689L3036 100.88L3061.96 124.585L3036 147.874L3069.62 136.645L3076 172L3082.38 136.645L3116 147.874L3090.04 124.585L3116 100.88Z" fill="#C1CCA4"/>
<path d="M3221.09 6.71142L3222.12 0.75H3295.86L3294.84 6.71142H3261.18L3244.73 106H3238.31L3254.75 6.71142H3221.09ZM3272.44 106H3265.66L3321.11 0.75H3328.51L3349.02 106H3342.24L3323.79 9.02405H3323.22L3272.44 106ZM3288.68 66.3771H3339.25L3338.23 72.3385H3287.66L3288.68 66.3771ZM3350.77 106L3351.74 100.707L3427.24 6.71142H3367.42L3368.34 0.75H3436.08L3435.36 6.04333L3359.61 100.039H3420.15L3419.12 106H3350.77ZM3431.26 106L3448.74 0.75H3455.16L3445.04 61.8546H3445.7L3511.38 0.75H3519.91L3466 50.5485L3502.03 106H3494.01L3461.12 55.1737L3443.44 71.7218L3437.69 106H3431.26ZM3533.03 0.75L3515.56 106H3509.14L3526.61 0.75H3533.03ZM3539.8 0.75H3547.15L3571.87 51.5249H3572.7L3614.27 0.75H3622.03L3574.55 58.2572L3566.68 106H3560.21L3568.12 58.2572L3539.8 0.75ZM3596.52 106H3589.73L3645.19 0.75H3652.59L3673.09 106H3666.31L3647.86 9.02405H3647.29L3596.52 106ZM3612.76 66.3771H3663.33L3662.3 72.3385H3611.73L3612.76 66.3771ZM3228.59 248L3216.88 142.75H3233.58L3240.57 224.257H3241.54L3276.39 142.75H3292.94L3300.75 224.308H3301.77L3335.69 142.75H3352.45L3305.73 248H3289.75L3280.76 169.165H3279.93L3244.63 248H3228.59ZM3431.23 196.403C3429.38 207.469 3425.79 216.959 3420.44 224.874C3415.13 232.788 3408.62 238.869 3400.91 243.118C3393.24 247.332 3384.94 249.439 3376.04 249.439C3366.75 249.439 3358.82 247.229 3352.24 242.809C3345.7 238.356 3341.01 232.034 3338.16 223.846C3335.32 215.623 3334.84 205.825 3336.72 194.45C3338.57 183.384 3342.15 173.893 3347.46 165.979C3352.81 158.03 3359.34 151.932 3367.04 147.684C3374.79 143.435 3383.15 141.311 3392.12 141.311C3401.34 141.311 3409.2 143.538 3415.71 147.992C3422.26 152.412 3426.95 158.75 3429.79 167.007C3432.64 175.229 3433.12 185.028 3431.23 196.403ZM3415.76 194.45C3417.17 186.056 3417 178.998 3415.25 173.277C3413.54 167.521 3410.61 163.17 3406.46 160.223C3402.32 157.277 3397.31 155.803 3391.46 155.803C3385.22 155.803 3379.38 157.379 3373.93 160.531C3368.52 163.684 3363.89 168.274 3360.05 174.304C3356.22 180.334 3353.6 187.701 3352.19 196.403C3350.75 204.797 3350.91 211.855 3352.65 217.576C3354.4 223.298 3357.35 227.632 3361.49 230.578C3365.67 233.49 3370.69 234.947 3376.55 234.947C3382.75 234.947 3388.56 233.388 3393.97 230.27C3399.42 227.118 3404.06 222.544 3407.9 216.548C3411.74 210.518 3414.36 203.152 3415.76 194.45ZM3429.45 248L3446.92 142.75H3484.44C3492.59 142.75 3499.12 144.155 3504.02 146.964C3508.95 149.739 3512.34 153.611 3514.19 158.579C3516.08 163.512 3516.49 169.234 3515.43 175.743C3514.33 182.184 3512.02 187.838 3508.49 192.703C3504.99 197.568 3500.32 201.371 3494.46 204.112C3488.63 206.818 3481.64 208.172 3473.49 208.172H3445.07L3447.43 194.501H3474.42C3479.59 194.501 3483.91 193.765 3487.37 192.292C3490.83 190.818 3493.53 188.677 3495.49 185.868C3497.47 183.058 3498.78 179.683 3499.39 175.743C3500.04 171.735 3499.85 168.292 3498.83 165.414C3497.8 162.502 3495.79 160.275 3492.81 158.733C3489.83 157.157 3485.74 156.369 3480.53 156.369H3460.59L3445.33 248H3429.45ZM3489.27 200.514L3507.41 248H3489.32L3471.64 200.514H3489.27ZM3510.15 248L3527.62 142.75H3543.5L3535.23 193.011H3536.51L3588.93 142.75H3608.92L3558.71 190.133L3591.6 248H3572.49L3546.38 200.977L3531.58 215.315L3526.03 248H3510.15ZM3663.12 171.015C3663.15 165.842 3661.47 161.885 3658.08 159.144C3654.72 156.403 3650.03 155.033 3644 155.033C3639.68 155.033 3635.83 155.718 3632.44 157.088C3629.08 158.424 3626.34 160.275 3624.21 162.639C3622.12 164.968 3620.84 167.624 3620.36 170.604C3619.91 173.105 3620.14 175.264 3621.03 177.08C3621.95 178.895 3623.27 180.42 3624.98 181.653C3626.73 182.853 3628.65 183.863 3630.74 184.686C3632.83 185.474 3634.85 186.125 3636.8 186.638L3646.67 189.311C3649.86 190.133 3653.1 191.247 3656.39 192.651C3659.67 194.056 3662.64 195.906 3665.28 198.202C3667.91 200.497 3669.88 203.341 3671.19 206.733C3672.49 210.124 3672.75 214.184 3671.96 218.912C3670.93 224.874 3668.51 230.167 3664.71 234.792C3660.91 239.418 3655.89 243.066 3649.65 245.739C3643.42 248.411 3636.19 249.747 3627.96 249.747C3620.08 249.747 3613.46 248.497 3608.08 245.996C3602.73 243.495 3598.81 239.949 3596.31 235.358C3593.81 230.732 3592.92 225.251 3593.64 218.912H3609.62C3609.24 222.715 3609.93 225.884 3611.67 228.42C3613.46 230.921 3615.96 232.788 3619.18 234.021C3622.4 235.221 3626.05 235.82 3630.12 235.82C3634.65 235.82 3638.78 235.118 3642.51 233.713C3646.24 232.274 3649.33 230.287 3651.76 227.752C3654.19 225.182 3655.68 222.184 3656.23 218.758C3656.78 215.64 3656.33 213.088 3654.89 211.101C3653.49 209.114 3651.37 207.469 3648.52 206.167C3645.71 204.865 3642.51 203.718 3638.91 202.724L3627.04 199.332C3618.99 197.037 3612.89 193.662 3608.74 189.208C3604.6 184.754 3603.11 178.861 3604.27 171.529C3605.3 165.465 3607.84 160.172 3611.88 155.649C3615.92 151.127 3620.96 147.615 3626.99 145.114C3633.02 142.579 3639.56 141.311 3646.62 141.311C3653.75 141.311 3659.81 142.579 3664.81 145.114C3669.81 147.649 3673.52 151.144 3675.91 155.598C3678.31 160.052 3679.15 165.191 3678.43 171.015H3663.12ZM3683.28 248.976C3680.4 248.976 3678 247.983 3676.08 245.996C3674.2 244.009 3673.27 241.576 3673.31 238.698C3673.34 235.854 3674.4 233.473 3676.49 231.555C3678.62 229.602 3681.09 228.625 3683.89 228.625C3686.7 228.625 3689.1 229.619 3691.09 231.606C3693.08 233.593 3694 235.957 3693.86 238.698C3693.76 240.617 3693.21 242.364 3692.22 243.94C3691.26 245.482 3689.99 246.715 3688.42 247.64C3686.84 248.531 3685.13 248.976 3683.28 248.976Z" fill="#C1CCA4"/>
<path d="M3875 100.88L3841.81 111.689L3835 78L3828.19 111.689L3795 100.88L3820.96 124.585L3795 147.874L3828.62 136.645L3835 172L3841.38 136.645L3875 147.874L3849.04 124.585L3875 100.88Z" fill="#C1CCA4"/>
<path d="M4634 100.88L4600.81 111.689L4594 78L4587.19 111.689L4554 100.88L4579.96 124.585L4554 147.874L4587.62 136.645L4594 172L4600.38 136.645L4634 147.874L4608.04 124.585L4634 100.88Z" fill="#C1CCA4"/>
<path d="M5393 100.88L5359.81 111.689L5353 78L5346.19 111.689L5313 100.88L5338.96 124.585L5313 147.874L5346.62 136.645L5353 172L5359.38 136.645L5393 147.874L5367.04 124.585L5393 100.88Z" fill="#C1CCA4"/>
<path d="M6152 100.88L6118.81 111.689L6112 78L6105.19 111.689L6072 100.88L6097.96 124.585L6072 147.874L6105.62 136.645L6112 172L6118.38 136.645L6152 147.874L6126.04 124.585L6152 100.88Z" fill="#C1CCA4"/>
<path d="M6911 100.88L6877.81 111.689L6871 78L6864.19 111.689L6831 100.88L6856.96 124.585L6831 147.874L6864.62 136.645L6871 172L6877.38 136.645L6911 147.874L6885.04 124.585L6911 100.88Z" fill="#C1CCA4"/>
<path d="M7670 100.88L7636.81 111.689L7630 78L7623.19 111.689L7590 100.88L7615.96 124.585L7590 147.874L7623.62 136.645L7630 172L7636.38 136.645L7670 147.874L7644.04 124.585L7670 100.88Z" fill="#C1CCA4"/>
<path d="M8429 100.88L8395.81 111.689L8389 78L8382.19 111.689L8349 100.88L8374.96 124.585L8349 147.874L8382.62 136.645L8389 172L8395.38 136.645L8429 147.874L8403.04 124.585L8429 100.88Z" fill="#C1CCA4"/>
<path d="M9188 100.88L9154.81 111.689L9148 78L9141.19 111.689L9108 100.88L9133.96 124.585L9108 147.874L9141.62 136.645L9148 172L9154.38 136.645L9188 147.874L9162.04 124.585L9188 100.88Z" fill="#C1CCA4"/>
<path d="M9947 100.88L9913.81 111.689L9907 78L9900.19 111.689L9867 100.88L9892.96 124.585L9867 147.874L9900.62 136.645L9907 172L9913.38 136.645L9947 147.874L9921.04 124.585L9947 100.88Z" fill="#C1CCA4"/>
<path d="M3980.09 6.71142L3981.12 0.75H4054.86L4053.84 6.71142H4020.18L4003.73 106H3997.31L4013.75 6.71142H3980.09ZM4031.44 106H4024.66L4080.11 0.75H4087.51L4108.02 106H4101.24L4082.79 9.02405H4082.22L4031.44 106ZM4047.68 66.3771H4098.25L4097.23 72.3385H4046.66L4047.68 66.3771ZM4109.77 106L4110.74 100.707L4186.24 6.71142H4126.42L4127.34 0.75H4195.08L4194.36 6.04333L4118.61 100.039H4179.15L4178.12 106H4109.77ZM4190.26 106L4207.74 0.75H4214.16L4204.04 61.8546H4204.7L4270.38 0.75H4278.91L4225 50.5485L4261.03 106H4253.01L4220.12 55.1737L4202.44 71.7218L4196.69 106H4190.26ZM4292.03 0.75L4274.56 106H4268.14L4285.61 0.75H4292.03ZM4298.8 0.75H4306.15L4330.87 51.5249H4331.7L4373.27 0.75H4381.03L4333.55 58.2572L4325.68 106H4319.21L4327.12 58.2572L4298.8 0.75ZM4355.52 106H4348.73L4404.19 0.75H4411.59L4432.09 106H4425.31L4406.86 9.02405H4406.29L4355.52 106ZM4371.76 66.3771H4422.33L4421.3 72.3385H4370.73L4371.76 66.3771ZM3987.59 248L3975.88 142.75H3992.58L3999.57 224.257H4000.54L4035.39 142.75H4051.94L4059.75 224.308H4060.77L4094.69 142.75H4111.45L4064.73 248H4048.75L4039.76 169.165H4038.93L4003.63 248H3987.59ZM4190.23 196.403C4188.38 207.469 4184.79 216.959 4179.44 224.874C4174.13 232.788 4167.62 238.869 4159.91 243.118C4152.24 247.332 4143.94 249.439 4135.04 249.439C4125.75 249.439 4117.82 247.229 4111.24 242.809C4104.7 238.356 4100.01 232.034 4097.16 223.846C4094.32 215.623 4093.84 205.825 4095.72 194.45C4097.57 183.384 4101.15 173.893 4106.46 165.979C4111.81 158.03 4118.34 151.932 4126.04 147.684C4133.79 143.435 4142.15 141.311 4151.12 141.311C4160.34 141.311 4168.2 143.538 4174.71 147.992C4181.26 152.412 4185.95 158.75 4188.79 167.007C4191.64 175.229 4192.12 185.028 4190.23 196.403ZM4174.76 194.45C4176.17 186.056 4176 178.998 4174.25 173.277C4172.54 167.521 4169.61 163.17 4165.46 160.223C4161.32 157.277 4156.31 155.803 4150.46 155.803C4144.22 155.803 4138.38 157.379 4132.93 160.531C4127.52 163.684 4122.89 168.274 4119.05 174.304C4115.22 180.334 4112.6 187.701 4111.19 196.403C4109.75 204.797 4109.91 211.855 4111.65 217.576C4113.4 223.298 4116.35 227.632 4120.49 230.578C4124.67 233.49 4129.69 234.947 4135.55 234.947C4141.75 234.947 4147.56 233.388 4152.97 230.27C4158.42 227.118 4163.06 222.544 4166.9 216.548C4170.74 210.518 4173.36 203.152 4174.76 194.45ZM4188.45 248L4205.92 142.75H4243.44C4251.59 142.75 4258.12 144.155 4263.02 146.964C4267.95 149.739 4271.34 153.611 4273.19 158.579C4275.08 163.512 4275.49 169.234 4274.43 175.743C4273.33 182.184 4271.02 187.838 4267.49 192.703C4263.99 197.568 4259.32 201.371 4253.46 204.112C4247.63 206.818 4240.64 208.172 4232.49 208.172H4204.07L4206.43 194.501H4233.42C4238.59 194.501 4242.91 193.765 4246.37 192.292C4249.83 190.818 4252.53 188.677 4254.49 185.868C4256.47 183.058 4257.78 179.683 4258.39 175.743C4259.04 171.735 4258.85 168.292 4257.83 165.414C4256.8 162.502 4254.79 160.275 4251.81 158.733C4248.83 157.157 4244.74 156.369 4239.53 156.369H4219.59L4204.33 248H4188.45ZM4248.27 200.514L4266.41 248H4248.32L4230.64 200.514H4248.27ZM4269.15 248L4286.62 142.75H4302.5L4294.23 193.011H4295.51L4347.93 142.75H4367.92L4317.71 190.133L4350.6 248H4331.49L4305.38 200.977L4290.58 215.315L4285.03 248H4269.15ZM4422.12 171.015C4422.15 165.842 4420.47 161.885 4417.08 159.144C4413.72 156.403 4409.03 155.033 4403 155.033C4398.68 155.033 4394.83 155.718 4391.44 157.088C4388.08 158.424 4385.34 160.275 4383.21 162.639C4381.12 164.968 4379.84 167.624 4379.36 170.604C4378.91 173.105 4379.14 175.264 4380.03 177.08C4380.95 178.895 4382.27 180.42 4383.98 181.653C4385.73 182.853 4387.65 183.863 4389.74 184.686C4391.83 185.474 4393.85 186.125 4395.8 186.638L4405.67 189.311C4408.86 190.133 4412.1 191.247 4415.39 192.651C4418.67 194.056 4421.64 195.906 4424.28 198.202C4426.91 200.497 4428.88 203.341 4430.19 206.733C4431.49 210.124 4431.75 214.184 4430.96 218.912C4429.93 224.874 4427.51 230.167 4423.71 234.792C4419.91 239.418 4414.89 243.066 4408.65 245.739C4402.42 248.411 4395.19 249.747 4386.96 249.747C4379.08 249.747 4372.46 248.497 4367.08 245.996C4361.73 243.495 4357.81 239.949 4355.31 235.358C4352.81 230.732 4351.92 225.251 4352.64 218.912H4368.62C4368.24 222.715 4368.93 225.884 4370.67 228.42C4372.46 230.921 4374.96 232.788 4378.18 234.021C4381.4 235.221 4385.05 235.82 4389.12 235.82C4393.65 235.82 4397.78 235.118 4401.51 233.713C4405.24 232.274 4408.33 230.287 4410.76 227.752C4413.19 225.182 4414.68 222.184 4415.23 218.758C4415.78 215.64 4415.33 213.088 4413.89 211.101C4412.49 209.114 4410.37 207.469 4407.52 206.167C4404.71 204.865 4401.51 203.718 4397.91 202.724L4386.04 199.332C4377.99 197.037 4371.89 193.662 4367.74 189.208C4363.6 184.754 4362.11 178.861 4363.27 171.529C4364.3 165.465 4366.84 160.172 4370.88 155.649C4374.92 151.127 4379.96 147.615 4385.99 145.114C4392.02 142.579 4398.56 141.311 4405.62 141.311C4412.75 141.311 4418.81 142.579 4423.81 145.114C4428.81 147.649 4432.52 151.144 4434.91 155.598C4437.31 160.052 4438.15 165.191 4437.43 171.015H4422.12ZM4442.28 248.976C4439.4 248.976 4437 247.983 4435.08 245.996C4433.2 244.009 4432.27 241.576 4432.31 238.698C4432.34 235.854 4433.4 233.473 4435.49 231.555C4437.62 229.602 4440.09 228.625 4442.89 228.625C4445.7 228.625 4448.1 229.619 4450.09 231.606C4452.08 233.593 4453 235.957 4452.86 238.698C4452.76 240.617 4452.21 242.364 4451.22 243.94C4450.26 245.482 4448.99 246.715 4447.42 247.64C4445.84 248.531 4444.13 248.976 4442.28 248.976Z" fill="#C1CCA4"/>
<path d="M4739.09 6.71142L4740.12 0.75H4813.86L4812.84 6.71142H4779.18L4762.73 106H4756.31L4772.75 6.71142H4739.09ZM4790.44 106H4783.66L4839.11 0.75H4846.51L4867.02 106H4860.24L4841.79 9.02405H4841.22L4790.44 106ZM4806.68 66.3771H4857.25L4856.23 72.3385H4805.66L4806.68 66.3771ZM4868.77 106L4869.74 100.707L4945.24 6.71142H4885.42L4886.34 0.75H4954.08L4953.36 6.04333L4877.61 100.039H4938.15L4937.12 106H4868.77ZM4949.26 106L4966.74 0.75H4973.16L4963.04 61.8546H4963.7L5029.38 0.75H5037.91L4984 50.5485L5020.03 106H5012.01L4979.12 55.1737L4961.44 71.7218L4955.69 106H4949.26ZM5051.03 0.75L5033.56 106H5027.14L5044.61 0.75H5051.03ZM5057.8 0.75H5065.15L5089.87 51.5249H5090.7L5132.27 0.75H5140.03L5092.55 58.2572L5084.68 106H5078.21L5086.12 58.2572L5057.8 0.75ZM5114.52 106H5107.73L5163.19 0.75H5170.59L5191.09 106H5184.31L5165.86 9.02405H5165.29L5114.52 106ZM5130.76 66.3771H5181.33L5180.3 72.3385H5129.73L5130.76 66.3771ZM4746.59 248L4734.88 142.75H4751.58L4758.57 224.257H4759.54L4794.39 142.75H4810.94L4818.75 224.308H4819.77L4853.69 142.75H4870.45L4823.73 248H4807.75L4798.76 169.165H4797.93L4762.63 248H4746.59ZM4949.23 196.403C4947.38 207.469 4943.79 216.959 4938.44 224.874C4933.13 232.788 4926.62 238.869 4918.91 243.118C4911.24 247.332 4902.94 249.439 4894.04 249.439C4884.75 249.439 4876.82 247.229 4870.24 242.809C4863.7 238.356 4859.01 232.034 4856.16 223.846C4853.32 215.623 4852.84 205.825 4854.72 194.45C4856.57 183.384 4860.15 173.893 4865.46 165.979C4870.81 158.03 4877.34 151.932 4885.04 147.684C4892.79 143.435 4901.15 141.311 4910.12 141.311C4919.34 141.311 4927.2 143.538 4933.71 147.992C4940.26 152.412 4944.95 158.75 4947.79 167.007C4950.64 175.229 4951.12 185.028 4949.23 196.403ZM4933.76 194.45C4935.17 186.056 4935 178.998 4933.25 173.277C4931.54 167.521 4928.61 163.17 4924.46 160.223C4920.32 157.277 4915.31 155.803 4909.46 155.803C4903.22 155.803 4897.38 157.379 4891.93 160.531C4886.52 163.684 4881.89 168.274 4878.05 174.304C4874.22 180.334 4871.6 187.701 4870.19 196.403C4868.75 204.797 4868.91 211.855 4870.65 217.576C4872.4 223.298 4875.35 227.632 4879.49 230.578C4883.67 233.49 4888.69 234.947 4894.55 234.947C4900.75 234.947 4906.56 233.388 4911.97 230.27C4917.42 227.118 4922.06 222.544 4925.9 216.548C4929.74 210.518 4932.36 203.152 4933.76 194.45ZM4947.45 248L4964.92 142.75H5002.44C5010.59 142.75 5017.12 144.155 5022.02 146.964C5026.95 149.739 5030.34 153.611 5032.19 158.579C5034.08 163.512 5034.49 169.234 5033.43 175.743C5032.33 182.184 5030.02 187.838 5026.49 192.703C5022.99 197.568 5018.32 201.371 5012.46 204.112C5006.63 206.818 4999.64 208.172 4991.49 208.172H4963.07L4965.43 194.501H4992.42C4997.59 194.501 5001.91 193.765 5005.37 192.292C5008.83 190.818 5011.53 188.677 5013.49 185.868C5015.47 183.058 5016.78 179.683 5017.39 175.743C5018.04 171.735 5017.85 168.292 5016.83 165.414C5015.8 162.502 5013.79 160.275 5010.81 158.733C5007.83 157.157 5003.74 156.369 4998.53 156.369H4978.59L4963.33 248H4947.45ZM5007.27 200.514L5025.41 248H5007.32L4989.64 200.514H5007.27ZM5028.15 248L5045.62 142.75H5061.5L5053.23 193.011H5054.51L5106.93 142.75H5126.92L5076.71 190.133L5109.6 248H5090.49L5064.38 200.977L5049.58 215.315L5044.03 248H5028.15ZM5181.12 171.015C5181.15 165.842 5179.47 161.885 5176.08 159.144C5172.72 156.403 5168.03 155.033 5162 155.033C5157.68 155.033 5153.83 155.718 5150.44 157.088C5147.08 158.424 5144.34 160.275 5142.21 162.639C5140.12 164.968 5138.84 167.624 5138.36 170.604C5137.91 173.105 5138.14 175.264 5139.03 177.08C5139.95 178.895 5141.27 180.42 5142.98 181.653C5144.73 182.853 5146.65 183.863 5148.74 184.686C5150.83 185.474 5152.85 186.125 5154.8 186.638L5164.67 189.311C5167.86 190.133 5171.1 191.247 5174.39 192.651C5177.67 194.056 5180.64 195.906 5183.28 198.202C5185.91 200.497 5187.88 203.341 5189.19 206.733C5190.49 210.124 5190.75 214.184 5189.96 218.912C5188.93 224.874 5186.51 230.167 5182.71 234.792C5178.91 239.418 5173.89 243.066 5167.65 245.739C5161.42 248.411 5154.19 249.747 5145.96 249.747C5138.08 249.747 5131.46 248.497 5126.08 245.996C5120.73 243.495 5116.81 239.949 5114.31 235.358C5111.81 230.732 5110.92 225.251 5111.64 218.912H5127.62C5127.24 222.715 5127.93 225.884 5129.67 228.42C5131.46 230.921 5133.96 232.788 5137.18 234.021C5140.4 235.221 5144.05 235.82 5148.12 235.82C5152.65 235.82 5156.78 235.118 5160.51 233.713C5164.24 232.274 5167.33 230.287 5169.76 227.752C5172.19 225.182 5173.68 222.184 5174.23 218.758C5174.78 215.64 5174.33 213.088 5172.89 211.101C5171.49 209.114 5169.37 207.469 5166.52 206.167C5163.71 204.865 5160.51 203.718 5156.91 202.724L5145.04 199.332C5136.99 197.037 5130.89 193.662 5126.74 189.208C5122.6 184.754 5121.11 178.861 5122.27 171.529C5123.3 165.465 5125.84 160.172 5129.88 155.649C5133.92 151.127 5138.96 147.615 5144.99 145.114C5151.02 142.579 5157.56 141.311 5164.62 141.311C5171.75 141.311 5177.81 142.579 5182.81 145.114C5187.81 147.649 5191.52 151.144 5193.91 155.598C5196.31 160.052 5197.15 165.191 5196.43 171.015H5181.12ZM5201.28 248.976C5198.4 248.976 5196 247.983 5194.08 245.996C5192.2 244.009 5191.27 241.576 5191.31 238.698C5191.34 235.854 5192.4 233.473 5194.49 231.555C5196.62 229.602 5199.09 228.625 5201.89 228.625C5204.7 228.625 5207.1 229.619 5209.09 231.606C5211.08 233.593 5212 235.957 5211.86 238.698C5211.76 240.617 5211.21 242.364 5210.22 243.94C5209.26 245.482 5207.99 246.715 5206.42 247.64C5204.84 248.531 5203.13 248.976 5201.28 248.976Z" fill="#C1CCA4"/>
<path d="M5498.09 6.71142L5499.12 0.75H5572.86L5571.84 6.71142H5538.18L5521.73 106H5515.31L5531.75 6.71142H5498.09ZM5549.44 106H5542.66L5598.11 0.75H5605.51L5626.02 106H5619.24L5600.79 9.02405H5600.22L5549.44 106ZM5565.68 66.3771H5616.25L5615.23 72.3385H5564.66L5565.68 66.3771ZM5627.77 106L5628.74 100.707L5704.24 6.71142H5644.42L5645.34 0.75H5713.08L5712.36 6.04333L5636.61 100.039H5697.15L5696.12 106H5627.77ZM5708.26 106L5725.74 0.75H5732.16L5722.04 61.8546H5722.7L5788.38 0.75H5796.91L5743 50.5485L5779.03 106H5771.01L5738.12 55.1737L5720.44 71.7218L5714.69 106H5708.26ZM5810.03 0.75L5792.56 106H5786.14L5803.61 0.75H5810.03ZM5816.8 0.75H5824.15L5848.87 51.5249H5849.7L5891.27 0.75H5899.03L5851.55 58.2572L5843.68 106H5837.21L5845.12 58.2572L5816.8 0.75ZM5873.52 106H5866.73L5922.19 0.75H5929.59L5950.09 106H5943.31L5924.86 9.02405H5924.29L5873.52 106ZM5889.76 66.3771H5940.33L5939.3 72.3385H5888.73L5889.76 66.3771ZM5505.59 248L5493.88 142.75H5510.58L5517.57 224.257H5518.54L5553.39 142.75H5569.94L5577.75 224.308H5578.77L5612.69 142.75H5629.45L5582.73 248H5566.75L5557.76 169.165H5556.93L5521.63 248H5505.59ZM5708.23 196.403C5706.38 207.469 5702.79 216.959 5697.44 224.874C5692.13 232.788 5685.62 238.869 5677.91 243.118C5670.24 247.332 5661.94 249.439 5653.04 249.439C5643.75 249.439 5635.82 247.229 5629.24 242.809C5622.7 238.356 5618.01 232.034 5615.16 223.846C5612.32 215.623 5611.84 205.825 5613.72 194.45C5615.57 183.384 5619.15 173.893 5624.46 165.979C5629.81 158.03 5636.34 151.932 5644.04 147.684C5651.79 143.435 5660.15 141.311 5669.12 141.311C5678.34 141.311 5686.2 143.538 5692.71 147.992C5699.26 152.412 5703.95 158.75 5706.79 167.007C5709.64 175.229 5710.12 185.028 5708.23 196.403ZM5692.76 194.45C5694.17 186.056 5694 178.998 5692.25 173.277C5690.54 167.521 5687.61 163.17 5683.46 160.223C5679.32 157.277 5674.31 155.803 5668.46 155.803C5662.22 155.803 5656.38 157.379 5650.93 160.531C5645.52 163.684 5640.89 168.274 5637.05 174.304C5633.22 180.334 5630.6 187.701 5629.19 196.403C5627.75 204.797 5627.91 211.855 5629.65 217.576C5631.4 223.298 5634.35 227.632 5638.49 230.578C5642.67 233.49 5647.69 234.947 5653.55 234.947C5659.75 234.947 5665.56 233.388 5670.97 230.27C5676.42 227.118 5681.06 222.544 5684.9 216.548C5688.74 210.518 5691.36 203.152 5692.76 194.45ZM5706.45 248L5723.92 142.75H5761.44C5769.59 142.75 5776.12 144.155 5781.02 146.964C5785.95 149.739 5789.34 153.611 5791.19 158.579C5793.08 163.512 5793.49 169.234 5792.43 175.743C5791.33 182.184 5789.02 187.838 5785.49 192.703C5781.99 197.568 5777.32 201.371 5771.46 204.112C5765.63 206.818 5758.64 208.172 5750.49 208.172H5722.07L5724.43 194.501H5751.42C5756.59 194.501 5760.91 193.765 5764.37 192.292C5767.83 190.818 5770.53 188.677 5772.49 185.868C5774.47 183.058 5775.78 179.683 5776.39 175.743C5777.04 171.735 5776.85 168.292 5775.83 165.414C5774.8 162.502 5772.79 160.275 5769.81 158.733C5766.83 157.157 5762.74 156.369 5757.53 156.369H5737.59L5722.33 248H5706.45ZM5766.27 200.514L5784.41 248H5766.32L5748.64 200.514H5766.27ZM5787.15 248L5804.62 142.75H5820.5L5812.23 193.011H5813.51L5865.93 142.75H5885.92L5835.71 190.133L5868.6 248H5849.49L5823.38 200.977L5808.58 215.315L5803.03 248H5787.15ZM5940.12 171.015C5940.15 165.842 5938.47 161.885 5935.08 159.144C5931.72 156.403 5927.03 155.033 5921 155.033C5916.68 155.033 5912.83 155.718 5909.44 157.088C5906.08 158.424 5903.34 160.275 5901.21 162.639C5899.12 164.968 5897.84 167.624 5897.36 170.604C5896.91 173.105 5897.14 175.264 5898.03 177.08C5898.95 178.895 5900.27 180.42 5901.98 181.653C5903.73 182.853 5905.65 183.863 5907.74 184.686C5909.83 185.474 5911.85 186.125 5913.8 186.638L5923.67 189.311C5926.86 190.133 5930.1 191.247 5933.39 192.651C5936.67 194.056 5939.64 195.906 5942.28 198.202C5944.91 200.497 5946.88 203.341 5948.19 206.733C5949.49 210.124 5949.75 214.184 5948.96 218.912C5947.93 224.874 5945.51 230.167 5941.71 234.792C5937.91 239.418 5932.89 243.066 5926.65 245.739C5920.42 248.411 5913.19 249.747 5904.96 249.747C5897.08 249.747 5890.46 248.497 5885.08 245.996C5879.73 243.495 5875.81 239.949 5873.31 235.358C5870.81 230.732 5869.92 225.251 5870.64 218.912H5886.62C5886.24 222.715 5886.93 225.884 5888.67 228.42C5890.46 230.921 5892.96 232.788 5896.18 234.021C5899.4 235.221 5903.05 235.82 5907.12 235.82C5911.65 235.82 5915.78 235.118 5919.51 233.713C5923.24 232.274 5926.33 230.287 5928.76 227.752C5931.19 225.182 5932.68 222.184 5933.23 218.758C5933.78 215.64 5933.33 213.088 5931.89 211.101C5930.49 209.114 5928.37 207.469 5925.52 206.167C5922.71 204.865 5919.51 203.718 5915.91 202.724L5904.04 199.332C5895.99 197.037 5889.89 193.662 5885.74 189.208C5881.6 184.754 5880.11 178.861 5881.27 171.529C5882.3 165.465 5884.84 160.172 5888.88 155.649C5892.92 151.127 5897.96 147.615 5903.99 145.114C5910.02 142.579 5916.56 141.311 5923.62 141.311C5930.75 141.311 5936.81 142.579 5941.81 145.114C5946.81 147.649 5950.52 151.144 5952.91 155.598C5955.31 160.052 5956.15 165.191 5955.43 171.015H5940.12ZM5960.28 248.976C5957.4 248.976 5955 247.983 5953.08 245.996C5951.2 244.009 5950.27 241.576 5950.31 238.698C5950.34 235.854 5951.4 233.473 5953.49 231.555C5955.62 229.602 5958.09 228.625 5960.89 228.625C5963.7 228.625 5966.1 229.619 5968.09 231.606C5970.08 233.593 5971 235.957 5970.86 238.698C5970.76 240.617 5970.21 242.364 5969.22 243.94C5968.26 245.482 5966.99 246.715 5965.42 247.64C5963.84 248.531 5962.13 248.976 5960.28 248.976Z" fill="#C1CCA4"/>
<path d="M6257.09 6.71142L6258.12 0.75H6331.86L6330.84 6.71142H6297.18L6280.73 106H6274.31L6290.75 6.71142H6257.09ZM6308.44 106H6301.66L6357.11 0.75H6364.51L6385.02 106H6378.24L6359.79 9.02405H6359.22L6308.44 106ZM6324.68 66.3771H6375.25L6374.23 72.3385H6323.66L6324.68 66.3771ZM6386.77 106L6387.74 100.707L6463.24 6.71142H6403.42L6404.34 0.75H6472.08L6471.36 6.04333L6395.61 100.039H6456.15L6455.12 106H6386.77ZM6467.26 106L6484.74 0.75H6491.16L6481.04 61.8546H6481.7L6547.38 0.75H6555.91L6502 50.5485L6538.03 106H6530.01L6497.12 55.1737L6479.44 71.7218L6473.69 106H6467.26ZM6569.03 0.75L6551.56 106H6545.14L6562.61 0.75H6569.03ZM6575.8 0.75H6583.15L6607.87 51.5249H6608.7L6650.27 0.75H6658.03L6610.55 58.2572L6602.68 106H6596.21L6604.12 58.2572L6575.8 0.75ZM6632.52 106H6625.73L6681.19 0.75H6688.59L6709.09 106H6702.31L6683.86 9.02405H6683.29L6632.52 106ZM6648.76 66.3771H6699.33L6698.3 72.3385H6647.73L6648.76 66.3771ZM6264.59 248L6252.88 142.75H6269.58L6276.57 224.257H6277.54L6312.39 142.75H6328.94L6336.75 224.308H6337.77L6371.69 142.75H6388.45L6341.73 248H6325.75L6316.76 169.165H6315.93L6280.63 248H6264.59ZM6467.23 196.403C6465.38 207.469 6461.79 216.959 6456.44 224.874C6451.13 232.788 6444.62 238.869 6436.91 243.118C6429.24 247.332 6420.94 249.439 6412.04 249.439C6402.75 249.439 6394.82 247.229 6388.24 242.809C6381.7 238.356 6377.01 232.034 6374.16 223.846C6371.32 215.623 6370.84 205.825 6372.72 194.45C6374.57 183.384 6378.15 173.893 6383.46 165.979C6388.81 158.03 6395.34 151.932 6403.04 147.684C6410.79 143.435 6419.15 141.311 6428.12 141.311C6437.34 141.311 6445.2 143.538 6451.71 147.992C6458.26 152.412 6462.95 158.75 6465.79 167.007C6468.64 175.229 6469.12 185.028 6467.23 196.403ZM6451.76 194.45C6453.17 186.056 6453 178.998 6451.25 173.277C6449.54 167.521 6446.61 163.17 6442.46 160.223C6438.32 157.277 6433.31 155.803 6427.46 155.803C6421.22 155.803 6415.38 157.379 6409.93 160.531C6404.52 163.684 6399.89 168.274 6396.05 174.304C6392.22 180.334 6389.6 187.701 6388.19 196.403C6386.75 204.797 6386.91 211.855 6388.65 217.576C6390.4 223.298 6393.35 227.632 6397.49 230.578C6401.67 233.49 6406.69 234.947 6412.55 234.947C6418.75 234.947 6424.56 233.388 6429.97 230.27C6435.42 227.118 6440.06 222.544 6443.9 216.548C6447.74 210.518 6450.36 203.152 6451.76 194.45ZM6465.45 248L6482.92 142.75H6520.44C6528.59 142.75 6535.12 144.155 6540.02 146.964C6544.95 149.739 6548.34 153.611 6550.19 158.579C6552.08 163.512 6552.49 169.234 6551.43 175.743C6550.33 182.184 6548.02 187.838 6544.49 192.703C6540.99 197.568 6536.32 201.371 6530.46 204.112C6524.63 206.818 6517.64 208.172 6509.49 208.172H6481.07L6483.43 194.501H6510.42C6515.59 194.501 6519.91 193.765 6523.37 192.292C6526.83 190.818 6529.53 188.677 6531.49 185.868C6533.47 183.058 6534.78 179.683 6535.39 175.743C6536.04 171.735 6535.85 168.292 6534.83 165.414C6533.8 162.502 6531.79 160.275 6528.81 158.733C6525.83 157.157 6521.74 156.369 6516.53 156.369H6496.59L6481.33 248H6465.45ZM6525.27 200.514L6543.41 248H6525.32L6507.64 200.514H6525.27ZM6546.15 248L6563.62 142.75H6579.5L6571.23 193.011H6572.51L6624.93 142.75H6644.92L6594.71 190.133L6627.6 248H6608.49L6582.38 200.977L6567.58 215.315L6562.03 248H6546.15ZM6699.12 171.015C6699.15 165.842 6697.47 161.885 6694.08 159.144C6690.72 156.403 6686.03 155.033 6680 155.033C6675.68 155.033 6671.83 155.718 6668.44 157.088C6665.08 158.424 6662.34 160.275 6660.21 162.639C6658.12 164.968 6656.84 167.624 6656.36 170.604C6655.91 173.105 6656.14 175.264 6657.03 177.08C6657.95 178.895 6659.27 180.42 6660.98 181.653C6662.73 182.853 6664.65 183.863 6666.74 184.686C6668.83 185.474 6670.85 186.125 6672.8 186.638L6682.67 189.311C6685.86 190.133 6689.1 191.247 6692.39 192.651C6695.67 194.056 6698.64 195.906 6701.28 198.202C6703.91 200.497 6705.88 203.341 6707.19 206.733C6708.49 210.124 6708.75 214.184 6707.96 218.912C6706.93 224.874 6704.51 230.167 6700.71 234.792C6696.91 239.418 6691.89 243.066 6685.65 245.739C6679.42 248.411 6672.19 249.747 6663.96 249.747C6656.08 249.747 6649.46 248.497 6644.08 245.996C6638.73 243.495 6634.81 239.949 6632.31 235.358C6629.81 230.732 6628.92 225.251 6629.64 218.912H6645.62C6645.24 222.715 6645.93 225.884 6647.67 228.42C6649.46 230.921 6651.96 232.788 6655.18 234.021C6658.4 235.221 6662.05 235.82 6666.12 235.82C6670.65 235.82 6674.78 235.118 6678.51 233.713C6682.24 232.274 6685.33 230.287 6687.76 227.752C6690.19 225.182 6691.68 222.184 6692.23 218.758C6692.78 215.64 6692.33 213.088 6690.89 211.101C6689.49 209.114 6687.37 207.469 6684.52 206.167C6681.71 204.865 6678.51 203.718 6674.91 202.724L6663.04 199.332C6654.99 197.037 6648.89 193.662 6644.74 189.208C6640.6 184.754 6639.11 178.861 6640.27 171.529C6641.3 165.465 6643.84 160.172 6647.88 155.649C6651.92 151.127 6656.96 147.615 6662.99 145.114C6669.02 142.579 6675.56 141.311 6682.62 141.311C6689.75 141.311 6695.81 142.579 6700.81 145.114C6705.81 147.649 6709.52 151.144 6711.91 155.598C6714.31 160.052 6715.15 165.191 6714.43 171.015H6699.12ZM6719.28 248.976C6716.4 248.976 6714 247.983 6712.08 245.996C6710.2 244.009 6709.27 241.576 6709.31 238.698C6709.34 235.854 6710.4 233.473 6712.49 231.555C6714.62 229.602 6717.09 228.625 6719.89 228.625C6722.7 228.625 6725.1 229.619 6727.09 231.606C6729.08 233.593 6730 235.957 6729.86 238.698C6729.76 240.617 6729.21 242.364 6728.22 243.94C6727.26 245.482 6725.99 246.715 6724.42 247.64C6722.84 248.531 6721.13 248.976 6719.28 248.976Z" fill="#C1CCA4"/>
<path d="M7016.09 6.71142L7017.12 0.75H7090.86L7089.84 6.71142H7056.18L7039.73 106H7033.31L7049.75 6.71142H7016.09ZM7067.44 106H7060.66L7116.11 0.75H7123.51L7144.02 106H7137.24L7118.79 9.02405H7118.22L7067.44 106ZM7083.68 66.3771H7134.25L7133.23 72.3385H7082.66L7083.68 66.3771ZM7145.77 106L7146.74 100.707L7222.24 6.71142H7162.42L7163.34 0.75H7231.08L7230.36 6.04333L7154.61 100.039H7215.15L7214.12 106H7145.77ZM7226.26 106L7243.74 0.75H7250.16L7240.04 61.8546H7240.7L7306.38 0.75H7314.91L7261 50.5485L7297.03 106H7289.01L7256.12 55.1737L7238.44 71.7218L7232.69 106H7226.26ZM7328.03 0.75L7310.56 106H7304.14L7321.61 0.75H7328.03ZM7334.8 0.75H7342.15L7366.87 51.5249H7367.7L7409.27 0.75H7417.03L7369.55 58.2572L7361.68 106H7355.21L7363.12 58.2572L7334.8 0.75ZM7391.52 106H7384.73L7440.19 0.75H7447.59L7468.09 106H7461.31L7442.86 9.02405H7442.29L7391.52 106ZM7407.76 66.3771H7458.33L7457.3 72.3385H7406.73L7407.76 66.3771ZM7023.59 248L7011.88 142.75H7028.58L7035.57 224.257H7036.54L7071.39 142.75H7087.94L7095.75 224.308H7096.77L7130.69 142.75H7147.45L7100.73 248H7084.75L7075.76 169.165H7074.93L7039.63 248H7023.59ZM7226.23 196.403C7224.38 207.469 7220.79 216.959 7215.44 224.874C7210.13 232.788 7203.62 238.869 7195.91 243.118C7188.24 247.332 7179.94 249.439 7171.04 249.439C7161.75 249.439 7153.82 247.229 7147.24 242.809C7140.7 238.356 7136.01 232.034 7133.16 223.846C7130.32 215.623 7129.84 205.825 7131.72 194.45C7133.57 183.384 7137.15 173.893 7142.46 165.979C7147.81 158.03 7154.34 151.932 7162.04 147.684C7169.79 143.435 7178.15 141.311 7187.12 141.311C7196.34 141.311 7204.2 143.538 7210.71 147.992C7217.26 152.412 7221.95 158.75 7224.79 167.007C7227.64 175.229 7228.12 185.028 7226.23 196.403ZM7210.76 194.45C7212.17 186.056 7212 178.998 7210.25 173.277C7208.54 167.521 7205.61 163.17 7201.46 160.223C7197.32 157.277 7192.31 155.803 7186.46 155.803C7180.22 155.803 7174.38 157.379 7168.93 160.531C7163.52 163.684 7158.89 168.274 7155.05 174.304C7151.22 180.334 7148.6 187.701 7147.19 196.403C7145.75 204.797 7145.91 211.855 7147.65 217.576C7149.4 223.298 7152.35 227.632 7156.49 230.578C7160.67 233.49 7165.69 234.947 7171.55 234.947C7177.75 234.947 7183.56 233.388 7188.97 230.27C7194.42 227.118 7199.06 222.544 7202.9 216.548C7206.74 210.518 7209.36 203.152 7210.76 194.45ZM7224.45 248L7241.92 142.75H7279.44C7287.59 142.75 7294.12 144.155 7299.02 146.964C7303.95 149.739 7307.34 153.611 7309.19 158.579C7311.08 163.512 7311.49 169.234 7310.43 175.743C7309.33 182.184 7307.02 187.838 7303.49 192.703C7299.99 197.568 7295.32 201.371 7289.46 204.112C7283.63 206.818 7276.64 208.172 7268.49 208.172H7240.07L7242.43 194.501H7269.42C7274.59 194.501 7278.91 193.765 7282.37 192.292C7285.83 190.818 7288.53 188.677 7290.49 185.868C7292.47 183.058 7293.78 179.683 7294.39 175.743C7295.04 171.735 7294.85 168.292 7293.83 165.414C7292.8 162.502 7290.79 160.275 7287.81 158.733C7284.83 157.157 7280.74 156.369 7275.53 156.369H7255.59L7240.33 248H7224.45ZM7284.27 200.514L7302.41 248H7284.32L7266.64 200.514H7284.27ZM7305.15 248L7322.62 142.75H7338.5L7330.23 193.011H7331.51L7383.93 142.75H7403.92L7353.71 190.133L7386.6 248H7367.49L7341.38 200.977L7326.58 215.315L7321.03 248H7305.15ZM7458.12 171.015C7458.15 165.842 7456.47 161.885 7453.08 159.144C7449.72 156.403 7445.03 155.033 7439 155.033C7434.68 155.033 7430.83 155.718 7427.44 157.088C7424.08 158.424 7421.34 160.275 7419.21 162.639C7417.12 164.968 7415.84 167.624 7415.36 170.604C7414.91 173.105 7415.14 175.264 7416.03 177.08C7416.95 178.895 7418.27 180.42 7419.98 181.653C7421.73 182.853 7423.65 183.863 7425.74 184.686C7427.83 185.474 7429.85 186.125 7431.8 186.638L7441.67 189.311C7444.86 190.133 7448.1 191.247 7451.39 192.651C7454.67 194.056 7457.64 195.906 7460.28 198.202C7462.91 200.497 7464.88 203.341 7466.19 206.733C7467.49 210.124 7467.75 214.184 7466.96 218.912C7465.93 224.874 7463.51 230.167 7459.71 234.792C7455.91 239.418 7450.89 243.066 7444.65 245.739C7438.42 248.411 7431.19 249.747 7422.96 249.747C7415.08 249.747 7408.46 248.497 7403.08 245.996C7397.73 243.495 7393.81 239.949 7391.31 235.358C7388.81 230.732 7387.92 225.251 7388.64 218.912H7404.62C7404.24 222.715 7404.93 225.884 7406.67 228.42C7408.46 230.921 7410.96 232.788 7414.18 234.021C7417.4 235.221 7421.05 235.82 7425.12 235.82C7429.65 235.82 7433.78 235.118 7437.51 233.713C7441.24 232.274 7444.33 230.287 7446.76 227.752C7449.19 225.182 7450.68 222.184 7451.23 218.758C7451.78 215.64 7451.33 213.088 7449.89 211.101C7448.49 209.114 7446.37 207.469 7443.52 206.167C7440.71 204.865 7437.51 203.718 7433.91 202.724L7422.04 199.332C7413.99 197.037 7407.89 193.662 7403.74 189.208C7399.6 184.754 7398.11 178.861 7399.27 171.529C7400.3 165.465 7402.84 160.172 7406.88 155.649C7410.92 151.127 7415.96 147.615 7421.99 145.114C7428.02 142.579 7434.56 141.311 7441.62 141.311C7448.75 141.311 7454.81 142.579 7459.81 145.114C7464.81 147.649 7468.52 151.144 7470.91 155.598C7473.31 160.052 7474.15 165.191 7473.43 171.015H7458.12ZM7478.28 248.976C7475.4 248.976 7473 247.983 7471.08 245.996C7469.2 244.009 7468.27 241.576 7468.31 238.698C7468.34 235.854 7469.4 233.473 7471.49 231.555C7473.62 229.602 7476.09 228.625 7478.89 228.625C7481.7 228.625 7484.1 229.619 7486.09 231.606C7488.08 233.593 7489 235.957 7488.86 238.698C7488.76 240.617 7488.21 242.364 7487.22 243.94C7486.26 245.482 7484.99 246.715 7483.42 247.64C7481.84 248.531 7480.13 248.976 7478.28 248.976Z" fill="#C1CCA4"/>
<path d="M7775.09 6.71142L7776.12 0.75H7849.86L7848.84 6.71142H7815.18L7798.73 106H7792.31L7808.75 6.71142H7775.09ZM7826.44 106H7819.66L7875.11 0.75H7882.51L7903.02 106H7896.24L7877.79 9.02405H7877.22L7826.44 106ZM7842.68 66.3771H7893.25L7892.23 72.3385H7841.66L7842.68 66.3771ZM7904.77 106L7905.74 100.707L7981.24 6.71142H7921.42L7922.34 0.75H7990.08L7989.36 6.04333L7913.61 100.039H7974.15L7973.12 106H7904.77ZM7985.26 106L8002.74 0.75H8009.16L7999.04 61.8546H7999.7L8065.38 0.75H8073.91L8020 50.5485L8056.03 106H8048.01L8015.12 55.1737L7997.44 71.7218L7991.69 106H7985.26ZM8087.03 0.75L8069.56 106H8063.14L8080.61 0.75H8087.03ZM8093.8 0.75H8101.15L8125.87 51.5249H8126.7L8168.27 0.75H8176.03L8128.55 58.2572L8120.68 106H8114.21L8122.12 58.2572L8093.8 0.75ZM8150.52 106H8143.73L8199.19 0.75H8206.59L8227.09 106H8220.31L8201.86 9.02405H8201.29L8150.52 106ZM8166.76 66.3771H8217.33L8216.3 72.3385H8165.73L8166.76 66.3771ZM7782.59 248L7770.88 142.75H7787.58L7794.57 224.257H7795.54L7830.39 142.75H7846.94L7854.75 224.308H7855.77L7889.69 142.75H7906.45L7859.73 248H7843.75L7834.76 169.165H7833.93L7798.63 248H7782.59ZM7985.23 196.403C7983.38 207.469 7979.79 216.959 7974.44 224.874C7969.13 232.788 7962.62 238.869 7954.91 243.118C7947.24 247.332 7938.94 249.439 7930.04 249.439C7920.75 249.439 7912.82 247.229 7906.24 242.809C7899.7 238.356 7895.01 232.034 7892.16 223.846C7889.32 215.623 7888.84 205.825 7890.72 194.45C7892.57 183.384 7896.15 173.893 7901.46 165.979C7906.81 158.03 7913.34 151.932 7921.04 147.684C7928.79 143.435 7937.15 141.311 7946.12 141.311C7955.34 141.311 7963.2 143.538 7969.71 147.992C7976.26 152.412 7980.95 158.75 7983.79 167.007C7986.64 175.229 7987.12 185.028 7985.23 196.403ZM7969.76 194.45C7971.17 186.056 7971 178.998 7969.25 173.277C7967.54 167.521 7964.61 163.17 7960.46 160.223C7956.32 157.277 7951.31 155.803 7945.46 155.803C7939.22 155.803 7933.38 157.379 7927.93 160.531C7922.52 163.684 7917.89 168.274 7914.05 174.304C7910.22 180.334 7907.6 187.701 7906.19 196.403C7904.75 204.797 7904.91 211.855 7906.65 217.576C7908.4 223.298 7911.35 227.632 7915.49 230.578C7919.67 233.49 7924.69 234.947 7930.55 234.947C7936.75 234.947 7942.56 233.388 7947.97 230.27C7953.42 227.118 7958.06 222.544 7961.9 216.548C7965.74 210.518 7968.36 203.152 7969.76 194.45ZM7983.45 248L8000.92 142.75H8038.44C8046.59 142.75 8053.12 144.155 8058.02 146.964C8062.95 149.739 8066.34 153.611 8068.19 158.579C8070.08 163.512 8070.49 169.234 8069.43 175.743C8068.33 182.184 8066.02 187.838 8062.49 192.703C8058.99 197.568 8054.32 201.371 8048.46 204.112C8042.63 206.818 8035.64 208.172 8027.49 208.172H7999.07L8001.43 194.501H8028.42C8033.59 194.501 8037.91 193.765 8041.37 192.292C8044.83 190.818 8047.53 188.677 8049.49 185.868C8051.47 183.058 8052.78 179.683 8053.39 175.743C8054.04 171.735 8053.85 168.292 8052.83 165.414C8051.8 162.502 8049.79 160.275 8046.81 158.733C8043.83 157.157 8039.74 156.369 8034.53 156.369H8014.59L7999.33 248H7983.45ZM8043.27 200.514L8061.41 248H8043.32L8025.64 200.514H8043.27ZM8064.15 248L8081.62 142.75H8097.5L8089.23 193.011H8090.51L8142.93 142.75H8162.92L8112.71 190.133L8145.6 248H8126.49L8100.38 200.977L8085.58 215.315L8080.03 248H8064.15ZM8217.12 171.015C8217.15 165.842 8215.47 161.885 8212.08 159.144C8208.72 156.403 8204.03 155.033 8198 155.033C8193.68 155.033 8189.83 155.718 8186.44 157.088C8183.08 158.424 8180.34 160.275 8178.21 162.639C8176.12 164.968 8174.84 167.624 8174.36 170.604C8173.91 173.105 8174.14 175.264 8175.03 177.08C8175.95 178.895 8177.27 180.42 8178.98 181.653C8180.73 182.853 8182.65 183.863 8184.74 184.686C8186.83 185.474 8188.85 186.125 8190.8 186.638L8200.67 189.311C8203.86 190.133 8207.1 191.247 8210.39 192.651C8213.67 194.056 8216.64 195.906 8219.28 198.202C8221.91 200.497 8223.88 203.341 8225.19 206.733C8226.49 210.124 8226.75 214.184 8225.96 218.912C8224.93 224.874 8222.51 230.167 8218.71 234.792C8214.91 239.418 8209.89 243.066 8203.65 245.739C8197.42 248.411 8190.19 249.747 8181.96 249.747C8174.08 249.747 8167.46 248.497 8162.08 245.996C8156.73 243.495 8152.81 239.949 8150.31 235.358C8147.81 230.732 8146.92 225.251 8147.64 218.912H8163.62C8163.24 222.715 8163.93 225.884 8165.67 228.42C8167.46 230.921 8169.96 232.788 8173.18 234.021C8176.4 235.221 8180.05 235.82 8184.12 235.82C8188.65 235.82 8192.78 235.118 8196.51 233.713C8200.24 232.274 8203.33 230.287 8205.76 227.752C8208.19 225.182 8209.68 222.184 8210.23 218.758C8210.78 215.64 8210.33 213.088 8208.89 211.101C8207.49 209.114 8205.37 207.469 8202.52 206.167C8199.71 204.865 8196.51 203.718 8192.91 202.724L8181.04 199.332C8172.99 197.037 8166.89 193.662 8162.74 189.208C8158.6 184.754 8157.11 178.861 8158.27 171.529C8159.3 165.465 8161.84 160.172 8165.88 155.649C8169.92 151.127 8174.96 147.615 8180.99 145.114C8187.02 142.579 8193.56 141.311 8200.62 141.311C8207.75 141.311 8213.81 142.579 8218.81 145.114C8223.81 147.649 8227.52 151.144 8229.91 155.598C8232.31 160.052 8233.15 165.191 8232.43 171.015H8217.12ZM8237.28 248.976C8234.4 248.976 8232 247.983 8230.08 245.996C8228.2 244.009 8227.27 241.576 8227.31 238.698C8227.34 235.854 8228.4 233.473 8230.49 231.555C8232.62 229.602 8235.09 228.625 8237.89 228.625C8240.7 228.625 8243.1 229.619 8245.09 231.606C8247.08 233.593 8248 235.957 8247.86 238.698C8247.76 240.617 8247.21 242.364 8246.22 243.94C8245.26 245.482 8243.99 246.715 8242.42 247.64C8240.84 248.531 8239.13 248.976 8237.28 248.976Z" fill="#C1CCA4"/>
<path d="M8534.09 6.71142L8535.12 0.75H8608.86L8607.84 6.71142H8574.18L8557.73 106H8551.31L8567.75 6.71142H8534.09ZM8585.44 106H8578.66L8634.11 0.75H8641.51L8662.02 106H8655.24L8636.79 9.02405H8636.22L8585.44 106ZM8601.68 66.3771H8652.25L8651.23 72.3385H8600.66L8601.68 66.3771ZM8663.77 106L8664.74 100.707L8740.24 6.71142H8680.42L8681.34 0.75H8749.08L8748.36 6.04333L8672.61 100.039H8733.15L8732.12 106H8663.77ZM8744.26 106L8761.74 0.75H8768.16L8758.04 61.8546H8758.7L8824.38 0.75H8832.91L8779 50.5485L8815.03 106H8807.01L8774.12 55.1737L8756.44 71.7218L8750.69 106H8744.26ZM8846.03 0.75L8828.56 106H8822.14L8839.61 0.75H8846.03ZM8852.8 0.75H8860.15L8884.87 51.5249H8885.7L8927.27 0.75H8935.03L8887.55 58.2572L8879.68 106H8873.21L8881.12 58.2572L8852.8 0.75ZM8909.52 106H8902.73L8958.19 0.75H8965.59L8986.09 106H8979.31L8960.86 9.02405H8960.29L8909.52 106ZM8925.76 66.3771H8976.33L8975.3 72.3385H8924.73L8925.76 66.3771ZM8541.59 248L8529.88 142.75H8546.58L8553.57 224.257H8554.54L8589.39 142.75H8605.94L8613.75 224.308H8614.77L8648.69 142.75H8665.45L8618.73 248H8602.75L8593.76 169.165H8592.93L8557.63 248H8541.59ZM8744.23 196.403C8742.38 207.469 8738.79 216.959 8733.44 224.874C8728.13 232.788 8721.62 238.869 8713.91 243.118C8706.24 247.332 8697.94 249.439 8689.04 249.439C8679.75 249.439 8671.82 247.229 8665.24 242.809C8658.7 238.356 8654.01 232.034 8651.16 223.846C8648.32 215.623 8647.84 205.825 8649.72 194.45C8651.57 183.384 8655.15 173.893 8660.46 165.979C8665.81 158.03 8672.34 151.932 8680.04 147.684C8687.79 143.435 8696.15 141.311 8705.12 141.311C8714.34 141.311 8722.2 143.538 8728.71 147.992C8735.26 152.412 8739.95 158.75 8742.79 167.007C8745.64 175.229 8746.12 185.028 8744.23 196.403ZM8728.76 194.45C8730.17 186.056 8730 178.998 8728.25 173.277C8726.54 167.521 8723.61 163.17 8719.46 160.223C8715.32 157.277 8710.31 155.803 8704.46 155.803C8698.22 155.803 8692.38 157.379 8686.93 160.531C8681.52 163.684 8676.89 168.274 8673.05 174.304C8669.22 180.334 8666.6 187.701 8665.19 196.403C8663.75 204.797 8663.91 211.855 8665.65 217.576C8667.4 223.298 8670.35 227.632 8674.49 230.578C8678.67 233.49 8683.69 234.947 8689.55 234.947C8695.75 234.947 8701.56 233.388 8706.97 230.27C8712.42 227.118 8717.06 222.544 8720.9 216.548C8724.74 210.518 8727.36 203.152 8728.76 194.45ZM8742.45 248L8759.92 142.75H8797.44C8805.59 142.75 8812.12 144.155 8817.02 146.964C8821.95 149.739 8825.34 153.611 8827.19 158.579C8829.08 163.512 8829.49 169.234 8828.43 175.743C8827.33 182.184 8825.02 187.838 8821.49 192.703C8817.99 197.568 8813.32 201.371 8807.46 204.112C8801.63 206.818 8794.64 208.172 8786.49 208.172H8758.07L8760.43 194.501H8787.42C8792.59 194.501 8796.91 193.765 8800.37 192.292C8803.83 190.818 8806.53 188.677 8808.49 185.868C8810.47 183.058 8811.78 179.683 8812.39 175.743C8813.04 171.735 8812.85 168.292 8811.83 165.414C8810.8 162.502 8808.79 160.275 8805.81 158.733C8802.83 157.157 8798.74 156.369 8793.53 156.369H8773.59L8758.33 248H8742.45ZM8802.27 200.514L8820.41 248H8802.32L8784.64 200.514H8802.27ZM8823.15 248L8840.62 142.75H8856.5L8848.23 193.011H8849.51L8901.93 142.75H8921.92L8871.71 190.133L8904.6 248H8885.49L8859.38 200.977L8844.58 215.315L8839.03 248H8823.15ZM8976.12 171.015C8976.15 165.842 8974.47 161.885 8971.08 159.144C8967.72 156.403 8963.03 155.033 8957 155.033C8952.68 155.033 8948.83 155.718 8945.44 157.088C8942.08 158.424 8939.34 160.275 8937.21 162.639C8935.12 164.968 8933.84 167.624 8933.36 170.604C8932.91 173.105 8933.14 175.264 8934.03 177.08C8934.95 178.895 8936.27 180.42 8937.98 181.653C8939.73 182.853 8941.65 183.863 8943.74 184.686C8945.83 185.474 8947.85 186.125 8949.8 186.638L8959.67 189.311C8962.86 190.133 8966.1 191.247 8969.39 192.651C8972.67 194.056 8975.64 195.906 8978.28 198.202C8980.91 200.497 8982.88 203.341 8984.19 206.733C8985.49 210.124 8985.75 214.184 8984.96 218.912C8983.93 224.874 8981.51 230.167 8977.71 234.792C8973.91 239.418 8968.89 243.066 8962.65 245.739C8956.42 248.411 8949.19 249.747 8940.96 249.747C8933.08 249.747 8926.46 248.497 8921.08 245.996C8915.73 243.495 8911.81 239.949 8909.31 235.358C8906.81 230.732 8905.92 225.251 8906.64 218.912H8922.62C8922.24 222.715 8922.93 225.884 8924.67 228.42C8926.46 230.921 8928.96 232.788 8932.18 234.021C8935.4 235.221 8939.05 235.82 8943.12 235.82C8947.65 235.82 8951.78 235.118 8955.51 233.713C8959.24 232.274 8962.33 230.287 8964.76 227.752C8967.19 225.182 8968.68 222.184 8969.23 218.758C8969.78 215.64 8969.33 213.088 8967.89 211.101C8966.49 209.114 8964.37 207.469 8961.52 206.167C8958.71 204.865 8955.51 203.718 8951.91 202.724L8940.04 199.332C8931.99 197.037 8925.89 193.662 8921.74 189.208C8917.6 184.754 8916.11 178.861 8917.27 171.529C8918.3 165.465 8920.84 160.172 8924.88 155.649C8928.92 151.127 8933.96 147.615 8939.99 145.114C8946.02 142.579 8952.56 141.311 8959.62 141.311C8966.75 141.311 8972.81 142.579 8977.81 145.114C8982.81 147.649 8986.52 151.144 8988.91 155.598C8991.31 160.052 8992.15 165.191 8991.43 171.015H8976.12ZM8996.28 248.976C8993.4 248.976 8991 247.983 8989.08 245.996C8987.2 244.009 8986.27 241.576 8986.31 238.698C8986.34 235.854 8987.4 233.473 8989.49 231.555C8991.62 229.602 8994.09 228.625 8996.89 228.625C8999.7 228.625 9002.1 229.619 9004.09 231.606C9006.08 233.593 9007 235.957 9006.86 238.698C9006.76 240.617 9006.21 242.364 9005.22 243.94C9004.26 245.482 9002.99 246.715 9001.42 247.64C8999.84 248.531 8998.13 248.976 8996.28 248.976Z" fill="#C1CCA4"/>
<path d="M9293.09 6.71142L9294.12 0.75H9367.86L9366.84 6.71142H9333.18L9316.73 106H9310.31L9326.75 6.71142H9293.09ZM9344.44 106H9337.66L9393.11 0.75H9400.51L9421.02 106H9414.24L9395.79 9.02405H9395.22L9344.44 106ZM9360.68 66.3771H9411.25L9410.23 72.3385H9359.66L9360.68 66.3771ZM9422.77 106L9423.74 100.707L9499.24 6.71142H9439.42L9440.34 0.75H9508.08L9507.36 6.04333L9431.61 100.039H9492.15L9491.12 106H9422.77ZM9503.26 106L9520.74 0.75H9527.16L9517.04 61.8546H9517.7L9583.38 0.75H9591.91L9538 50.5485L9574.03 106H9566.01L9533.12 55.1737L9515.44 71.7218L9509.69 106H9503.26ZM9605.03 0.75L9587.56 106H9581.14L9598.61 0.75H9605.03ZM9611.8 0.75H9619.15L9643.87 51.5249H9644.7L9686.27 0.75H9694.03L9646.55 58.2572L9638.68 106H9632.21L9640.12 58.2572L9611.8 0.75ZM9668.52 106H9661.73L9717.19 0.75H9724.59L9745.09 106H9738.31L9719.86 9.02405H9719.29L9668.52 106ZM9684.76 66.3771H9735.33L9734.3 72.3385H9683.73L9684.76 66.3771ZM9300.59 248L9288.88 142.75H9305.58L9312.57 224.257H9313.54L9348.39 142.75H9364.94L9372.75 224.308H9373.77L9407.69 142.75H9424.45L9377.73 248H9361.75L9352.76 169.165H9351.93L9316.63 248H9300.59ZM9503.23 196.403C9501.38 207.469 9497.79 216.959 9492.44 224.874C9487.13 232.788 9480.62 238.869 9472.91 243.118C9465.24 247.332 9456.94 249.439 9448.04 249.439C9438.75 249.439 9430.82 247.229 9424.24 242.809C9417.7 238.356 9413.01 232.034 9410.16 223.846C9407.32 215.623 9406.84 205.825 9408.72 194.45C9410.57 183.384 9414.15 173.893 9419.46 165.979C9424.81 158.03 9431.34 151.932 9439.04 147.684C9446.79 143.435 9455.15 141.311 9464.12 141.311C9473.34 141.311 9481.2 143.538 9487.71 147.992C9494.26 152.412 9498.95 158.75 9501.79 167.007C9504.64 175.229 9505.12 185.028 9503.23 196.403ZM9487.76 194.45C9489.17 186.056 9489 178.998 9487.25 173.277C9485.54 167.521 9482.61 163.17 9478.46 160.223C9474.32 157.277 9469.31 155.803 9463.46 155.803C9457.22 155.803 9451.38 157.379 9445.93 160.531C9440.52 163.684 9435.89 168.274 9432.05 174.304C9428.22 180.334 9425.6 187.701 9424.19 196.403C9422.75 204.797 9422.91 211.855 9424.65 217.576C9426.4 223.298 9429.35 227.632 9433.49 230.578C9437.67 233.49 9442.69 234.947 9448.55 234.947C9454.75 234.947 9460.56 233.388 9465.97 230.27C9471.42 227.118 9476.06 222.544 9479.9 216.548C9483.74 210.518 9486.36 203.152 9487.76 194.45ZM9501.45 248L9518.92 142.75H9556.44C9564.59 142.75 9571.12 144.155 9576.02 146.964C9580.95 149.739 9584.34 153.611 9586.19 158.579C9588.08 163.512 9588.49 169.234 9587.43 175.743C9586.33 182.184 9584.02 187.838 9580.49 192.703C9576.99 197.568 9572.32 201.371 9566.46 204.112C9560.63 206.818 9553.64 208.172 9545.49 208.172H9517.07L9519.43 194.501H9546.42C9551.59 194.501 9555.91 193.765 9559.37 192.292C9562.83 190.818 9565.53 188.677 9567.49 185.868C9569.47 183.058 9570.78 179.683 9571.39 175.743C9572.04 171.735 9571.85 168.292 9570.83 165.414C9569.8 162.502 9567.79 160.275 9564.81 158.733C9561.83 157.157 9557.74 156.369 9552.53 156.369H9532.59L9517.33 248H9501.45ZM9561.27 200.514L9579.41 248H9561.32L9543.64 200.514H9561.27ZM9582.15 248L9599.62 142.75H9615.5L9607.23 193.011H9608.51L9660.93 142.75H9680.92L9630.71 190.133L9663.6 248H9644.49L9618.38 200.977L9603.58 215.315L9598.03 248H9582.15ZM9735.12 171.015C9735.15 165.842 9733.47 161.885 9730.08 159.144C9726.72 156.403 9722.03 155.033 9716 155.033C9711.68 155.033 9707.83 155.718 9704.44 157.088C9701.08 158.424 9698.34 160.275 9696.21 162.639C9694.12 164.968 9692.84 167.624 9692.36 170.604C9691.91 173.105 9692.14 175.264 9693.03 177.08C9693.95 178.895 9695.27 180.42 9696.98 181.653C9698.73 182.853 9700.65 183.863 9702.74 184.686C9704.83 185.474 9706.85 186.125 9708.8 186.638L9718.67 189.311C9721.86 190.133 9725.1 191.247 9728.39 192.651C9731.67 194.056 9734.64 195.906 9737.28 198.202C9739.91 200.497 9741.88 203.341 9743.19 206.733C9744.49 210.124 9744.75 214.184 9743.96 218.912C9742.93 224.874 9740.51 230.167 9736.71 234.792C9732.91 239.418 9727.89 243.066 9721.65 245.739C9715.42 248.411 9708.19 249.747 9699.96 249.747C9692.08 249.747 9685.46 248.497 9680.08 245.996C9674.73 243.495 9670.81 239.949 9668.31 235.358C9665.81 230.732 9664.92 225.251 9665.64 218.912H9681.62C9681.24 222.715 9681.93 225.884 9683.67 228.42C9685.46 230.921 9687.96 232.788 9691.18 234.021C9694.4 235.221 9698.05 235.82 9702.12 235.82C9706.65 235.82 9710.78 235.118 9714.51 233.713C9718.24 232.274 9721.33 230.287 9723.76 227.752C9726.19 225.182 9727.68 222.184 9728.23 218.758C9728.78 215.64 9728.33 213.088 9726.89 211.101C9725.49 209.114 9723.37 207.469 9720.52 206.167C9717.71 204.865 9714.51 203.718 9710.91 202.724L9699.04 199.332C9690.99 197.037 9684.89 193.662 9680.74 189.208C9676.6 184.754 9675.11 178.861 9676.27 171.529C9677.3 165.465 9679.84 160.172 9683.88 155.649C9687.92 151.127 9692.96 147.615 9698.99 145.114C9705.02 142.579 9711.56 141.311 9718.62 141.311C9725.75 141.311 9731.81 142.579 9736.81 145.114C9741.81 147.649 9745.52 151.144 9747.91 155.598C9750.31 160.052 9751.15 165.191 9750.43 171.015H9735.12ZM9755.28 248.976C9752.4 248.976 9750 247.983 9748.08 245.996C9746.2 244.009 9745.27 241.576 9745.31 238.698C9745.34 235.854 9746.4 233.473 9748.49 231.555C9750.62 229.602 9753.09 228.625 9755.89 228.625C9758.7 228.625 9761.1 229.619 9763.09 231.606C9765.08 233.593 9766 235.957 9765.86 238.698C9765.76 240.617 9765.21 242.364 9764.22 243.94C9763.26 245.482 9761.99 246.715 9760.42 247.64C9758.84 248.531 9757.13 248.976 9755.28 248.976Z" fill="#C1CCA4"/>
<path d="M10052.1 6.71142L10053.1 0.75H10126.9L10125.8 6.71142H10092.2L10075.7 106H10069.3L10085.8 6.71142H10052.1ZM10103.4 106H10096.7L10152.1 0.75H10159.5L10180 106H10173.2L10154.8 9.02405H10154.2L10103.4 106ZM10119.7 66.3771H10170.2L10169.2 72.3385H10118.7L10119.7 66.3771ZM10181.8 106L10182.7 100.707L10258.2 6.71142H10198.4L10199.3 0.75H10267.1L10266.4 6.04333L10190.6 100.039H10251.1L10250.1 106H10181.8ZM10262.3 106L10279.7 0.75H10286.2L10276 61.8546H10276.7L10342.4 0.75H10350.9L10297 50.5485L10333 106H10325L10292.1 55.1737L10274.4 71.7218L10268.7 106H10262.3ZM10364 0.75L10346.6 106H10340.1L10357.6 0.75H10364ZM10370.8 0.75H10378.1L10402.9 51.5249H10403.7L10445.3 0.75H10453L10405.5 58.2572L10397.7 106H10391.2L10399.1 58.2572L10370.8 0.75ZM10427.5 106H10420.7L10476.2 0.75H10483.6L10504.1 106H10497.3L10478.9 9.02405H10478.3L10427.5 106ZM10443.8 66.3771H10494.3L10493.3 72.3385H10442.7L10443.8 66.3771ZM10059.6 248L10047.9 142.75H10064.6L10071.6 224.257H10072.5L10107.4 142.75H10123.9L10131.8 224.308H10132.8L10166.7 142.75H10183.5L10136.7 248H10120.8L10111.8 169.165H10110.9L10075.6 248H10059.6ZM10262.2 196.403C10260.4 207.469 10256.8 216.959 10251.4 224.874C10246.1 232.788 10239.6 238.869 10231.9 243.118C10224.2 247.332 10215.9 249.439 10207 249.439C10197.8 249.439 10189.8 247.229 10183.2 242.809C10176.7 238.356 10172 232.034 10169.2 223.846C10166.3 215.623 10165.8 205.825 10167.7 194.45C10169.6 183.384 10173.1 173.893 10178.5 165.979C10183.8 158.03 10190.3 151.932 10198 147.684C10205.8 143.435 10214.2 141.311 10223.1 141.311C10232.3 141.311 10240.2 143.538 10246.7 147.992C10253.3 152.412 10258 158.75 10260.8 167.007C10263.6 175.229 10264.1 185.028 10262.2 196.403ZM10246.8 194.45C10248.2 186.056 10248 178.998 10246.2 173.277C10244.5 167.521 10241.6 163.17 10237.5 160.223C10233.3 157.277 10228.3 155.803 10222.5 155.803C10216.2 155.803 10210.4 157.379 10204.9 160.531C10199.5 163.684 10194.9 168.274 10191 174.304C10187.2 180.334 10184.6 187.701 10183.2 196.403C10181.7 204.797 10181.9 211.855 10183.6 217.576C10185.4 223.298 10188.4 227.632 10192.5 230.578C10196.7 233.49 10201.7 234.947 10207.5 234.947C10213.7 234.947 10219.6 233.388 10225 230.27C10230.4 227.118 10235.1 222.544 10238.9 216.548C10242.7 210.518 10245.4 203.152 10246.8 194.45ZM10260.5 248L10277.9 142.75H10315.4C10323.6 142.75 10330.1 144.155 10335 146.964C10340 149.739 10343.3 153.611 10345.2 158.579C10347.1 163.512 10347.5 169.234 10346.4 175.743C10345.3 182.184 10343 187.838 10339.5 192.703C10336 197.568 10331.3 201.371 10325.5 204.112C10319.6 206.818 10312.6 208.172 10304.5 208.172H10276.1L10278.4 194.501H10305.4C10310.6 194.501 10314.9 193.765 10318.4 192.292C10321.8 190.818 10324.5 188.677 10326.5 185.868C10328.5 183.058 10329.8 179.683 10330.4 175.743C10331 171.735 10330.9 168.292 10329.8 165.414C10328.8 162.502 10326.8 160.275 10323.8 158.733C10320.8 157.157 10316.7 156.369 10311.5 156.369H10291.6L10276.3 248H10260.5ZM10320.3 200.514L10338.4 248H10320.3L10302.6 200.514H10320.3ZM10341.1 248L10358.6 142.75H10374.5L10366.2 193.011H10367.5L10419.9 142.75H10439.9L10389.7 190.133L10422.6 248H10403.5L10377.4 200.977L10362.6 215.315L10357 248H10341.1ZM10494.1 171.015C10494.2 165.842 10492.5 161.885 10489.1 159.144C10485.7 156.403 10481 155.033 10475 155.033C10470.7 155.033 10466.8 155.718 10463.4 157.088C10460.1 158.424 10457.3 160.275 10455.2 162.639C10453.1 164.968 10451.8 167.624 10451.4 170.604C10450.9 173.105 10451.1 175.264 10452 177.08C10452.9 178.895 10454.3 180.42 10456 181.653C10457.7 182.853 10459.7 183.863 10461.7 184.686C10463.8 185.474 10465.8 186.125 10467.8 186.638L10477.7 189.311C10480.9 190.133 10484.1 191.247 10487.4 192.651C10490.7 194.056 10493.6 195.906 10496.3 198.202C10498.9 200.497 10500.9 203.341 10502.2 206.733C10503.5 210.124 10503.7 214.184 10503 218.912C10501.9 224.874 10499.5 230.167 10495.7 234.792C10491.9 239.418 10486.9 243.066 10480.6 245.739C10474.4 248.411 10467.2 249.747 10459 249.747C10451.1 249.747 10444.5 248.497 10439.1 245.996C10433.7 243.495 10429.8 239.949 10427.3 235.358C10424.8 230.732 10423.9 225.251 10424.6 218.912H10440.6C10440.2 222.715 10440.9 225.884 10442.7 228.42C10444.5 230.921 10447 232.788 10450.2 234.021C10453.4 235.221 10457.1 235.82 10461.1 235.82C10465.7 235.82 10469.8 235.118 10473.5 233.713C10477.2 232.274 10480.3 230.287 10482.8 227.752C10485.2 225.182 10486.7 222.184 10487.2 218.758C10487.8 215.64 10487.3 213.088 10485.9 211.101C10484.5 209.114 10482.4 207.469 10479.5 206.167C10476.7 204.865 10473.5 203.718 10469.9 202.724L10458 199.332C10450 197.037 10443.9 193.662 10439.7 189.208C10435.6 184.754 10434.1 178.861 10435.3 171.529C10436.3 165.465 10438.8 160.172 10442.9 155.649C10446.9 151.127 10452 147.615 10458 145.114C10464 142.579 10470.6 141.311 10477.6 141.311C10484.8 141.311 10490.8 142.579 10495.8 145.114C10500.8 147.649 10504.5 151.144 10506.9 155.598C10509.3 160.052 10510.2 165.191 10509.4 171.015H10494.1ZM10514.3 248.976C10511.4 248.976 10509 247.983 10507.1 245.996C10505.2 244.009 10504.3 241.576 10504.3 238.698C10504.3 235.854 10505.4 233.473 10507.5 231.555C10509.6 229.602 10512.1 228.625 10514.9 228.625C10517.7 228.625 10520.1 229.619 10522.1 231.606C10524.1 233.593 10525 235.957 10524.9 238.698C10524.8 240.617 10524.2 242.364 10523.2 243.94C10522.3 245.482 10521 246.715 10519.4 247.64C10517.8 248.531 10516.1 248.976 10514.3 248.976Z" fill="#C1CCA4"/>
</svg>
