<svg width="4454" height="250" viewBox="0 0 4454 250" fill="none" xmlns="http://www.w3.org/2000/svg">
<path d="M80 100.88L46.8062 111.689L40 78L33.1939 111.689L0 100.88L25.9569 124.585L0 147.874L33.6184 136.645L40 172L46.3815 136.645L80 147.874L54.0431 124.585L80 100.88Z" fill="#C1CCA4"/>
<path d="M185.09 6.71142L186.118 0.75H259.865L258.837 6.71142H225.175L208.73 106H202.306L218.751 6.71142H185.09ZM236.445 106H229.661L285.113 0.75H292.513L313.018 106H306.235L287.785 9.02405H287.22L236.445 106ZM252.685 66.3771H303.254L302.226 72.3385H251.657L252.685 66.3771ZM314.768 106L315.744 100.707L391.239 6.71142H331.419L332.344 0.75H400.078L399.358 6.04333L323.607 100.039H384.147L383.119 106H314.768ZM395.262 106L412.735 0.75H419.159L409.035 61.8546H409.703L475.382 0.75H483.913L430.003 50.5485L466.028 106H458.011L425.121 55.1737L407.442 71.7218L401.686 106H395.262ZM497.032 0.75L479.559 106H473.135L490.608 0.75H497.032ZM503.805 0.75H511.154L535.874 51.5249H536.696L578.272 0.75H586.032L538.546 58.2572L530.683 106H524.208L532.122 58.2572L503.805 0.75ZM560.518 106H553.734L609.186 0.75H616.586L637.091 106H630.308L611.858 9.02405H611.293L560.518 106ZM576.758 66.3771H627.327L626.299 72.3385H575.73L576.758 66.3771ZM192.593 248L180.876 142.75H197.578L204.567 224.257H205.544L240.387 142.75H256.935L264.747 224.308H265.775L299.693 142.75H316.447L269.732 248H253.749L244.756 169.165H243.933L208.627 248H192.593ZM395.232 196.403C393.382 207.469 389.785 216.959 384.44 224.874C379.129 232.788 372.62 238.869 364.911 243.118C357.237 247.332 348.945 249.439 340.038 249.439C330.753 249.439 322.821 247.229 316.243 242.809C309.699 238.356 305.006 232.034 302.162 223.846C299.318 215.623 298.839 205.825 300.723 194.45C302.573 183.384 306.153 173.893 311.464 165.979C316.809 158.03 323.335 151.932 331.044 147.684C338.787 143.435 347.147 141.311 356.123 141.311C365.339 141.311 373.202 143.538 379.712 147.992C386.256 152.412 390.95 158.75 393.793 167.007C396.637 175.229 397.117 185.028 395.232 196.403ZM379.763 194.45C381.168 186.056 380.997 178.998 379.249 173.277C377.536 167.521 374.607 163.17 370.461 160.223C366.316 157.277 361.314 155.803 355.455 155.803C349.22 155.803 343.378 157.379 337.931 160.531C332.517 163.684 327.892 168.274 324.055 174.304C320.218 180.334 317.597 187.701 316.192 196.403C314.753 204.797 314.907 211.855 316.654 217.576C318.402 223.298 321.348 227.632 325.494 230.578C329.674 233.49 334.693 234.947 340.552 234.947C346.753 234.947 352.56 233.388 357.973 230.27C363.421 227.118 368.063 222.544 371.9 216.548C375.738 210.518 378.359 203.152 379.763 194.45ZM393.448 248L410.922 142.75H448.437C456.592 142.75 463.118 144.155 468.018 146.964C472.951 149.739 476.343 153.611 478.193 158.579C480.078 163.512 480.489 169.234 479.427 175.743C478.33 182.184 476.018 187.838 472.489 192.703C468.994 197.568 464.317 201.371 458.459 204.112C452.634 206.818 445.645 208.172 437.491 208.172H409.071L411.435 194.501H438.416C443.589 194.501 447.906 193.765 451.367 192.292C454.827 190.818 457.534 188.677 459.487 185.868C461.474 183.058 462.776 179.683 463.392 175.743C464.043 171.735 463.855 168.292 462.827 165.414C461.799 162.502 459.795 160.275 456.814 158.733C453.834 157.157 449.739 156.369 444.532 156.369H424.592L409.328 248H393.448ZM453.268 200.514L471.409 248H453.32L435.641 200.514H453.268ZM474.148 248L491.621 142.75H507.501L499.227 193.011H500.512L552.931 142.75H572.923L522.713 190.133L555.604 248H536.486L510.379 200.977L495.578 215.315L490.028 248H474.148ZM627.117 171.015C627.152 165.842 625.473 161.885 622.081 159.144C618.723 156.403 614.03 155.033 608 155.033C603.683 155.033 599.828 155.718 596.437 157.088C593.079 158.424 590.338 160.275 588.214 162.639C586.124 164.968 584.839 167.624 584.359 170.604C583.914 173.105 584.137 175.264 585.028 177.08C585.953 178.895 587.272 180.42 588.985 181.653C590.732 182.853 592.651 183.863 594.741 184.686C596.831 185.474 598.852 186.125 600.805 186.638L610.672 189.311C613.858 190.133 617.096 191.247 620.385 192.651C623.674 194.056 626.638 195.906 629.276 198.202C631.914 200.497 633.884 203.341 635.186 206.733C636.488 210.124 636.745 214.184 635.957 218.912C634.929 224.874 632.513 230.167 628.71 234.792C624.907 239.418 619.888 243.066 613.653 245.739C607.417 248.411 600.188 249.747 591.965 249.747C584.085 249.747 577.456 248.497 572.077 245.996C566.732 243.495 562.809 239.949 560.308 235.358C557.807 230.732 556.916 225.251 557.636 218.912H573.619C573.242 222.715 573.927 225.884 575.674 228.42C577.456 230.921 579.957 232.788 583.177 234.021C586.398 235.221 590.047 235.82 594.124 235.82C598.646 235.82 602.775 235.118 606.509 233.713C610.244 232.274 613.327 230.287 615.76 227.752C618.192 225.182 619.683 222.184 620.231 218.758C620.779 215.64 620.334 213.088 618.895 211.101C617.49 209.114 615.366 207.469 612.522 206.167C609.713 204.865 606.509 203.718 602.912 202.724L591.04 199.332C582.989 197.037 576.891 193.662 572.745 189.208C568.599 184.754 567.109 178.861 568.274 171.529C569.302 165.465 571.837 160.172 575.88 155.649C579.923 151.127 584.959 147.615 590.989 145.114C597.019 142.579 603.563 141.311 610.621 141.311C617.747 141.311 623.811 142.579 628.813 145.114C633.815 147.649 637.516 151.144 639.914 155.598C642.312 160.052 643.151 165.191 642.432 171.015H627.117ZM647.278 248.976C644.4 248.976 642.002 247.983 640.083 245.996C638.199 244.009 637.274 241.576 637.308 238.698C637.342 235.854 638.404 233.473 640.494 231.555C642.618 229.602 645.085 228.625 647.894 228.625C650.704 228.625 653.102 229.619 655.089 231.606C657.076 233.593 658.001 235.957 657.864 238.698C657.762 240.617 657.213 242.364 656.22 243.94C655.261 245.482 653.993 246.715 652.417 247.64C650.841 248.531 649.128 248.976 647.278 248.976Z" fill="#C1CCA4"/>
<path d="M839 100.88L805.806 111.689L799 78L792.194 111.689L759 100.88L784.957 124.585L759 147.874L792.618 136.645L799 172L805.382 136.645L839 147.874L813.043 124.585L839 100.88Z" fill="#C1CCA4"/>
<path d="M944.09 6.71142L945.118 0.75H1018.86L1017.84 6.71142H984.175L967.73 106H961.306L977.751 6.71142H944.09ZM995.445 106H988.661L1044.11 0.75H1051.51L1072.02 106H1065.24L1046.79 9.02405H1046.22L995.445 106ZM1011.68 66.3771H1062.25L1061.23 72.3385H1010.66L1011.68 66.3771ZM1073.77 106L1074.74 100.707L1150.24 6.71142H1090.42L1091.34 0.75H1159.08L1158.36 6.04333L1082.61 100.039H1143.15L1142.12 106H1073.77ZM1154.26 106L1171.74 0.75H1178.16L1168.04 61.8546H1168.7L1234.38 0.75H1242.91L1189 50.5485L1225.03 106H1217.01L1184.12 55.1737L1166.44 71.7218L1160.69 106H1154.26ZM1256.03 0.75L1238.56 106H1232.14L1249.61 0.75H1256.03ZM1262.8 0.75H1270.15L1294.87 51.5249H1295.7L1337.27 0.75H1345.03L1297.55 58.2572L1289.68 106H1283.21L1291.12 58.2572L1262.8 0.75ZM1319.52 106H1312.73L1368.19 0.75H1375.59L1396.09 106H1389.31L1370.86 9.02405H1370.29L1319.52 106ZM1335.76 66.3771H1386.33L1385.3 72.3385H1334.73L1335.76 66.3771ZM951.593 248L939.876 142.75H956.578L963.567 224.257H964.544L999.387 142.75H1015.94L1023.75 224.308H1024.77L1058.69 142.75H1075.45L1028.73 248H1012.75L1003.76 169.165H1002.93L967.627 248H951.593ZM1154.23 196.403C1152.38 207.469 1148.79 216.959 1143.44 224.874C1138.13 232.788 1131.62 238.869 1123.91 243.118C1116.24 247.332 1107.94 249.439 1099.04 249.439C1089.75 249.439 1081.82 247.229 1075.24 242.809C1068.7 238.356 1064.01 232.034 1061.16 223.846C1058.32 215.623 1057.84 205.825 1059.72 194.45C1061.57 183.384 1065.15 173.893 1070.46 165.979C1075.81 158.03 1082.34 151.932 1090.04 147.684C1097.79 143.435 1106.15 141.311 1115.12 141.311C1124.34 141.311 1132.2 143.538 1138.71 147.992C1145.26 152.412 1149.95 158.75 1152.79 167.007C1155.64 175.229 1156.12 185.028 1154.23 196.403ZM1138.76 194.45C1140.17 186.056 1140 178.998 1138.25 173.277C1136.54 167.521 1133.61 163.17 1129.46 160.223C1125.32 157.277 1120.31 155.803 1114.46 155.803C1108.22 155.803 1102.38 157.379 1096.93 160.531C1091.52 163.684 1086.89 168.274 1083.05 174.304C1079.22 180.334 1076.6 187.701 1075.19 196.403C1073.75 204.797 1073.91 211.855 1075.65 217.576C1077.4 223.298 1080.35 227.632 1084.49 230.578C1088.67 233.49 1093.69 234.947 1099.55 234.947C1105.75 234.947 1111.56 233.388 1116.97 230.27C1122.42 227.118 1127.06 222.544 1130.9 216.548C1134.74 210.518 1137.36 203.152 1138.76 194.45ZM1152.45 248L1169.92 142.75H1207.44C1215.59 142.75 1222.12 144.155 1227.02 146.964C1231.95 149.739 1235.34 153.611 1237.19 158.579C1239.08 163.512 1239.49 169.234 1238.43 175.743C1237.33 182.184 1235.02 187.838 1231.49 192.703C1227.99 197.568 1223.32 201.371 1217.46 204.112C1211.63 206.818 1204.64 208.172 1196.49 208.172H1168.07L1170.43 194.501H1197.42C1202.59 194.501 1206.91 193.765 1210.37 192.292C1213.83 190.818 1216.53 188.677 1218.49 185.868C1220.47 183.058 1221.78 179.683 1222.39 175.743C1223.04 171.735 1222.85 168.292 1221.83 165.414C1220.8 162.502 1218.79 160.275 1215.81 158.733C1212.83 157.157 1208.74 156.369 1203.53 156.369H1183.59L1168.33 248H1152.45ZM1212.27 200.514L1230.41 248H1212.32L1194.64 200.514H1212.27ZM1233.15 248L1250.62 142.75H1266.5L1258.23 193.011H1259.51L1311.93 142.75H1331.92L1281.71 190.133L1314.6 248H1295.49L1269.38 200.977L1254.58 215.315L1249.03 248H1233.15ZM1386.12 171.015C1386.15 165.842 1384.47 161.885 1381.08 159.144C1377.72 156.403 1373.03 155.033 1367 155.033C1362.68 155.033 1358.83 155.718 1355.44 157.088C1352.08 158.424 1349.34 160.275 1347.21 162.639C1345.12 164.968 1343.84 167.624 1343.36 170.604C1342.91 173.105 1343.14 175.264 1344.03 177.08C1344.95 178.895 1346.27 180.42 1347.98 181.653C1349.73 182.853 1351.65 183.863 1353.74 184.686C1355.83 185.474 1357.85 186.125 1359.8 186.638L1369.67 189.311C1372.86 190.133 1376.1 191.247 1379.39 192.651C1382.67 194.056 1385.64 195.906 1388.28 198.202C1390.91 200.497 1392.88 203.341 1394.19 206.733C1395.49 210.124 1395.75 214.184 1394.96 218.912C1393.93 224.874 1391.51 230.167 1387.71 234.792C1383.91 239.418 1378.89 243.066 1372.65 245.739C1366.42 248.411 1359.19 249.747 1350.96 249.747C1343.08 249.747 1336.46 248.497 1331.08 245.996C1325.73 243.495 1321.81 239.949 1319.31 235.358C1316.81 230.732 1315.92 225.251 1316.64 218.912H1332.62C1332.24 222.715 1332.93 225.884 1334.67 228.42C1336.46 230.921 1338.96 232.788 1342.18 234.021C1345.4 235.221 1349.05 235.82 1353.12 235.82C1357.65 235.82 1361.78 235.118 1365.51 233.713C1369.24 232.274 1372.33 230.287 1374.76 227.752C1377.19 225.182 1378.68 222.184 1379.23 218.758C1379.78 215.64 1379.33 213.088 1377.89 211.101C1376.49 209.114 1374.37 207.469 1371.52 206.167C1368.71 204.865 1365.51 203.718 1361.91 202.724L1350.04 199.332C1341.99 197.037 1335.89 193.662 1331.74 189.208C1327.6 184.754 1326.11 178.861 1327.27 171.529C1328.3 165.465 1330.84 160.172 1334.88 155.649C1338.92 151.127 1343.96 147.615 1349.99 145.114C1356.02 142.579 1362.56 141.311 1369.62 141.311C1376.75 141.311 1382.81 142.579 1387.81 145.114C1392.81 147.649 1396.52 151.144 1398.91 155.598C1401.31 160.052 1402.15 165.191 1401.43 171.015H1386.12ZM1406.28 248.976C1403.4 248.976 1401 247.983 1399.08 245.996C1397.2 244.009 1396.27 241.576 1396.31 238.698C1396.34 235.854 1397.4 233.473 1399.49 231.555C1401.62 229.602 1404.09 228.625 1406.89 228.625C1409.7 228.625 1412.1 229.619 1414.09 231.606C1416.08 233.593 1417 235.957 1416.86 238.698C1416.76 240.617 1416.21 242.364 1415.22 243.94C1414.26 245.482 1412.99 246.715 1411.42 247.64C1409.84 248.531 1408.13 248.976 1406.28 248.976Z" fill="#C1CCA4"/>
<path d="M1598 100.88L1564.81 111.689L1558 78L1551.19 111.689L1518 100.88L1543.96 124.585L1518 147.874L1551.62 136.645L1558 172L1564.38 136.645L1598 147.874L1572.04 124.585L1598 100.88Z" fill="#C1CCA4"/>
<path d="M1703.09 6.71142L1704.12 0.75H1777.86L1776.84 6.71142H1743.18L1726.73 106H1720.31L1736.75 6.71142H1703.09ZM1754.44 106H1747.66L1803.11 0.75H1810.51L1831.02 106H1824.24L1805.79 9.02405H1805.22L1754.44 106ZM1770.68 66.3771H1821.25L1820.23 72.3385H1769.66L1770.68 66.3771ZM1832.77 106L1833.74 100.707L1909.24 6.71142H1849.42L1850.34 0.75H1918.08L1917.36 6.04333L1841.61 100.039H1902.15L1901.12 106H1832.77ZM1913.26 106L1930.74 0.75H1937.16L1927.04 61.8546H1927.7L1993.38 0.75H2001.91L1948 50.5485L1984.03 106H1976.01L1943.12 55.1737L1925.44 71.7218L1919.69 106H1913.26ZM2015.03 0.75L1997.56 106H1991.14L2008.61 0.75H2015.03ZM2021.8 0.75H2029.15L2053.87 51.5249H2054.7L2096.27 0.75H2104.03L2056.55 58.2572L2048.68 106H2042.21L2050.12 58.2572L2021.8 0.75ZM2078.52 106H2071.73L2127.19 0.75H2134.59L2155.09 106H2148.31L2129.86 9.02405H2129.29L2078.52 106ZM2094.76 66.3771H2145.33L2144.3 72.3385H2093.73L2094.76 66.3771ZM1710.59 248L1698.88 142.75H1715.58L1722.57 224.257H1723.54L1758.39 142.75H1774.94L1782.75 224.308H1783.77L1817.69 142.75H1834.45L1787.73 248H1771.75L1762.76 169.165H1761.93L1726.63 248H1710.59ZM1913.23 196.403C1911.38 207.469 1907.79 216.959 1902.44 224.874C1897.13 232.788 1890.62 238.869 1882.91 243.118C1875.24 247.332 1866.94 249.439 1858.04 249.439C1848.75 249.439 1840.82 247.229 1834.24 242.809C1827.7 238.356 1823.01 232.034 1820.16 223.846C1817.32 215.623 1816.84 205.825 1818.72 194.45C1820.57 183.384 1824.15 173.893 1829.46 165.979C1834.81 158.03 1841.34 151.932 1849.04 147.684C1856.79 143.435 1865.15 141.311 1874.12 141.311C1883.34 141.311 1891.2 143.538 1897.71 147.992C1904.26 152.412 1908.95 158.75 1911.79 167.007C1914.64 175.229 1915.12 185.028 1913.23 196.403ZM1897.76 194.45C1899.17 186.056 1899 178.998 1897.25 173.277C1895.54 167.521 1892.61 163.17 1888.46 160.223C1884.32 157.277 1879.31 155.803 1873.46 155.803C1867.22 155.803 1861.38 157.379 1855.93 160.531C1850.52 163.684 1845.89 168.274 1842.05 174.304C1838.22 180.334 1835.6 187.701 1834.19 196.403C1832.75 204.797 1832.91 211.855 1834.65 217.576C1836.4 223.298 1839.35 227.632 1843.49 230.578C1847.67 233.49 1852.69 234.947 1858.55 234.947C1864.75 234.947 1870.56 233.388 1875.97 230.27C1881.42 227.118 1886.06 222.544 1889.9 216.548C1893.74 210.518 1896.36 203.152 1897.76 194.45ZM1911.45 248L1928.92 142.75H1966.44C1974.59 142.75 1981.12 144.155 1986.02 146.964C1990.95 149.739 1994.34 153.611 1996.19 158.579C1998.08 163.512 1998.49 169.234 1997.43 175.743C1996.33 182.184 1994.02 187.838 1990.49 192.703C1986.99 197.568 1982.32 201.371 1976.46 204.112C1970.63 206.818 1963.64 208.172 1955.49 208.172H1927.07L1929.43 194.501H1956.42C1961.59 194.501 1965.91 193.765 1969.37 192.292C1972.83 190.818 1975.53 188.677 1977.49 185.868C1979.47 183.058 1980.78 179.683 1981.39 175.743C1982.04 171.735 1981.85 168.292 1980.83 165.414C1979.8 162.502 1977.79 160.275 1974.81 158.733C1971.83 157.157 1967.74 156.369 1962.53 156.369H1942.59L1927.33 248H1911.45ZM1971.27 200.514L1989.41 248H1971.32L1953.64 200.514H1971.27ZM1992.15 248L2009.62 142.75H2025.5L2017.23 193.011H2018.51L2070.93 142.75H2090.92L2040.71 190.133L2073.6 248H2054.49L2028.38 200.977L2013.58 215.315L2008.03 248H1992.15ZM2145.12 171.015C2145.15 165.842 2143.47 161.885 2140.08 159.144C2136.72 156.403 2132.03 155.033 2126 155.033C2121.68 155.033 2117.83 155.718 2114.44 157.088C2111.08 158.424 2108.34 160.275 2106.21 162.639C2104.12 164.968 2102.84 167.624 2102.36 170.604C2101.91 173.105 2102.14 175.264 2103.03 177.08C2103.95 178.895 2105.27 180.42 2106.98 181.653C2108.73 182.853 2110.65 183.863 2112.74 184.686C2114.83 185.474 2116.85 186.125 2118.8 186.638L2128.67 189.311C2131.86 190.133 2135.1 191.247 2138.39 192.651C2141.67 194.056 2144.64 195.906 2147.28 198.202C2149.91 200.497 2151.88 203.341 2153.19 206.733C2154.49 210.124 2154.75 214.184 2153.96 218.912C2152.93 224.874 2150.51 230.167 2146.71 234.792C2142.91 239.418 2137.89 243.066 2131.65 245.739C2125.42 248.411 2118.19 249.747 2109.96 249.747C2102.08 249.747 2095.46 248.497 2090.08 245.996C2084.73 243.495 2080.81 239.949 2078.31 235.358C2075.81 230.732 2074.92 225.251 2075.64 218.912H2091.62C2091.24 222.715 2091.93 225.884 2093.67 228.42C2095.46 230.921 2097.96 232.788 2101.18 234.021C2104.4 235.221 2108.05 235.82 2112.12 235.82C2116.65 235.82 2120.78 235.118 2124.51 233.713C2128.24 232.274 2131.33 230.287 2133.76 227.752C2136.19 225.182 2137.68 222.184 2138.23 218.758C2138.78 215.64 2138.33 213.088 2136.89 211.101C2135.49 209.114 2133.37 207.469 2130.52 206.167C2127.71 204.865 2124.51 203.718 2120.91 202.724L2109.04 199.332C2100.99 197.037 2094.89 193.662 2090.74 189.208C2086.6 184.754 2085.11 178.861 2086.27 171.529C2087.3 165.465 2089.84 160.172 2093.88 155.649C2097.92 151.127 2102.96 147.615 2108.99 145.114C2115.02 142.579 2121.56 141.311 2128.62 141.311C2135.75 141.311 2141.81 142.579 2146.81 145.114C2151.81 147.649 2155.52 151.144 2157.91 155.598C2160.31 160.052 2161.15 165.191 2160.43 171.015H2145.12ZM2165.28 248.976C2162.4 248.976 2160 247.983 2158.08 245.996C2156.2 244.009 2155.27 241.576 2155.31 238.698C2155.34 235.854 2156.4 233.473 2158.49 231.555C2160.62 229.602 2163.09 228.625 2165.89 228.625C2168.7 228.625 2171.1 229.619 2173.09 231.606C2175.08 233.593 2176 235.957 2175.86 238.698C2175.76 240.617 2175.21 242.364 2174.22 243.94C2173.26 245.482 2171.99 246.715 2170.42 247.64C2168.84 248.531 2167.13 248.976 2165.28 248.976Z" fill="#C1CCA4"/>
<path d="M2357 100.88L2323.81 111.689L2317 78L2310.19 111.689L2277 100.88L2302.96 124.585L2277 147.874L2310.62 136.645L2317 172L2323.38 136.645L2357 147.874L2331.04 124.585L2357 100.88Z" fill="#C1CCA4"/>
<path d="M2462.09 6.71142L2463.12 0.75H2536.86L2535.84 6.71142H2502.18L2485.73 106H2479.31L2495.75 6.71142H2462.09ZM2513.44 106H2506.66L2562.11 0.75H2569.51L2590.02 106H2583.24L2564.79 9.02405H2564.22L2513.44 106ZM2529.68 66.3771H2580.25L2579.23 72.3385H2528.66L2529.68 66.3771ZM2591.77 106L2592.74 100.707L2668.24 6.71142H2608.42L2609.34 0.75H2677.08L2676.36 6.04333L2600.61 100.039H2661.15L2660.12 106H2591.77ZM2672.26 106L2689.74 0.75H2696.16L2686.04 61.8546H2686.7L2752.38 0.75H2760.91L2707 50.5485L2743.03 106H2735.01L2702.12 55.1737L2684.44 71.7218L2678.69 106H2672.26ZM2774.03 0.75L2756.56 106H2750.14L2767.61 0.75H2774.03ZM2780.8 0.75H2788.15L2812.87 51.5249H2813.7L2855.27 0.75H2863.03L2815.55 58.2572L2807.68 106H2801.21L2809.12 58.2572L2780.8 0.75ZM2837.52 106H2830.73L2886.19 0.75H2893.59L2914.09 106H2907.31L2888.86 9.02405H2888.29L2837.52 106ZM2853.76 66.3771H2904.33L2903.3 72.3385H2852.73L2853.76 66.3771ZM2469.59 248L2457.88 142.75H2474.58L2481.57 224.257H2482.54L2517.39 142.75H2533.94L2541.75 224.308H2542.77L2576.69 142.75H2593.45L2546.73 248H2530.75L2521.76 169.165H2520.93L2485.63 248H2469.59ZM2672.23 196.403C2670.38 207.469 2666.79 216.959 2661.44 224.874C2656.13 232.788 2649.62 238.869 2641.91 243.118C2634.24 247.332 2625.94 249.439 2617.04 249.439C2607.75 249.439 2599.82 247.229 2593.24 242.809C2586.7 238.356 2582.01 232.034 2579.16 223.846C2576.32 215.623 2575.84 205.825 2577.72 194.45C2579.57 183.384 2583.15 173.893 2588.46 165.979C2593.81 158.03 2600.34 151.932 2608.04 147.684C2615.79 143.435 2624.15 141.311 2633.12 141.311C2642.34 141.311 2650.2 143.538 2656.71 147.992C2663.26 152.412 2667.95 158.75 2670.79 167.007C2673.64 175.229 2674.12 185.028 2672.23 196.403ZM2656.76 194.45C2658.17 186.056 2658 178.998 2656.25 173.277C2654.54 167.521 2651.61 163.17 2647.46 160.223C2643.32 157.277 2638.31 155.803 2632.46 155.803C2626.22 155.803 2620.38 157.379 2614.93 160.531C2609.52 163.684 2604.89 168.274 2601.05 174.304C2597.22 180.334 2594.6 187.701 2593.19 196.403C2591.75 204.797 2591.91 211.855 2593.65 217.576C2595.4 223.298 2598.35 227.632 2602.49 230.578C2606.67 233.49 2611.69 234.947 2617.55 234.947C2623.75 234.947 2629.56 233.388 2634.97 230.27C2640.42 227.118 2645.06 222.544 2648.9 216.548C2652.74 210.518 2655.36 203.152 2656.76 194.45ZM2670.45 248L2687.92 142.75H2725.44C2733.59 142.75 2740.12 144.155 2745.02 146.964C2749.95 149.739 2753.34 153.611 2755.19 158.579C2757.08 163.512 2757.49 169.234 2756.43 175.743C2755.33 182.184 2753.02 187.838 2749.49 192.703C2745.99 197.568 2741.32 201.371 2735.46 204.112C2729.63 206.818 2722.64 208.172 2714.49 208.172H2686.07L2688.43 194.501H2715.42C2720.59 194.501 2724.91 193.765 2728.37 192.292C2731.83 190.818 2734.53 188.677 2736.49 185.868C2738.47 183.058 2739.78 179.683 2740.39 175.743C2741.04 171.735 2740.85 168.292 2739.83 165.414C2738.8 162.502 2736.79 160.275 2733.81 158.733C2730.83 157.157 2726.74 156.369 2721.53 156.369H2701.59L2686.33 248H2670.45ZM2730.27 200.514L2748.41 248H2730.32L2712.64 200.514H2730.27ZM2751.15 248L2768.62 142.75H2784.5L2776.23 193.011H2777.51L2829.93 142.75H2849.92L2799.71 190.133L2832.6 248H2813.49L2787.38 200.977L2772.58 215.315L2767.03 248H2751.15ZM2904.12 171.015C2904.15 165.842 2902.47 161.885 2899.08 159.144C2895.72 156.403 2891.03 155.033 2885 155.033C2880.68 155.033 2876.83 155.718 2873.44 157.088C2870.08 158.424 2867.34 160.275 2865.21 162.639C2863.12 164.968 2861.84 167.624 2861.36 170.604C2860.91 173.105 2861.14 175.264 2862.03 177.08C2862.95 178.895 2864.27 180.42 2865.98 181.653C2867.73 182.853 2869.65 183.863 2871.74 184.686C2873.83 185.474 2875.85 186.125 2877.8 186.638L2887.67 189.311C2890.86 190.133 2894.1 191.247 2897.39 192.651C2900.67 194.056 2903.64 195.906 2906.28 198.202C2908.91 200.497 2910.88 203.341 2912.19 206.733C2913.49 210.124 2913.75 214.184 2912.96 218.912C2911.93 224.874 2909.51 230.167 2905.71 234.792C2901.91 239.418 2896.89 243.066 2890.65 245.739C2884.42 248.411 2877.19 249.747 2868.96 249.747C2861.08 249.747 2854.46 248.497 2849.08 245.996C2843.73 243.495 2839.81 239.949 2837.31 235.358C2834.81 230.732 2833.92 225.251 2834.64 218.912H2850.62C2850.24 222.715 2850.93 225.884 2852.67 228.42C2854.46 230.921 2856.96 232.788 2860.18 234.021C2863.4 235.221 2867.05 235.82 2871.12 235.82C2875.65 235.82 2879.78 235.118 2883.51 233.713C2887.24 232.274 2890.33 230.287 2892.76 227.752C2895.19 225.182 2896.68 222.184 2897.23 218.758C2897.78 215.64 2897.33 213.088 2895.89 211.101C2894.49 209.114 2892.37 207.469 2889.52 206.167C2886.71 204.865 2883.51 203.718 2879.91 202.724L2868.04 199.332C2859.99 197.037 2853.89 193.662 2849.74 189.208C2845.6 184.754 2844.11 178.861 2845.27 171.529C2846.3 165.465 2848.84 160.172 2852.88 155.649C2856.92 151.127 2861.96 147.615 2867.99 145.114C2874.02 142.579 2880.56 141.311 2887.62 141.311C2894.75 141.311 2900.81 142.579 2905.81 145.114C2910.81 147.649 2914.52 151.144 2916.91 155.598C2919.31 160.052 2920.15 165.191 2919.43 171.015H2904.12ZM2924.28 248.976C2921.4 248.976 2919 247.983 2917.08 245.996C2915.2 244.009 2914.27 241.576 2914.31 238.698C2914.34 235.854 2915.4 233.473 2917.49 231.555C2919.62 229.602 2922.09 228.625 2924.89 228.625C2927.7 228.625 2930.1 229.619 2932.09 231.606C2934.08 233.593 2935 235.957 2934.86 238.698C2934.76 240.617 2934.21 242.364 2933.22 243.94C2932.26 245.482 2930.99 246.715 2929.42 247.64C2927.84 248.531 2926.13 248.976 2924.28 248.976Z" fill="#C1CCA4"/>
<path d="M3116 100.88L3082.81 111.689L3076 78L3069.19 111.689L3036 100.88L3061.96 124.585L3036 147.874L3069.62 136.645L3076 172L3082.38 136.645L3116 147.874L3090.04 124.585L3116 100.88Z" fill="#C1CCA4"/>
<path d="M3221.09 6.71142L3222.12 0.75H3295.86L3294.84 6.71142H3261.18L3244.73 106H3238.31L3254.75 6.71142H3221.09ZM3272.44 106H3265.66L3321.11 0.75H3328.51L3349.02 106H3342.24L3323.79 9.02405H3323.22L3272.44 106ZM3288.68 66.3771H3339.25L3338.23 72.3385H3287.66L3288.68 66.3771ZM3350.77 106L3351.74 100.707L3427.24 6.71142H3367.42L3368.34 0.75H3436.08L3435.36 6.04333L3359.61 100.039H3420.15L3419.12 106H3350.77ZM3431.26 106L3448.74 0.75H3455.16L3445.04 61.8546H3445.7L3511.38 0.75H3519.91L3466 50.5485L3502.03 106H3494.01L3461.12 55.1737L3443.44 71.7218L3437.69 106H3431.26ZM3533.03 0.75L3515.56 106H3509.14L3526.61 0.75H3533.03ZM3539.8 0.75H3547.15L3571.87 51.5249H3572.7L3614.27 0.75H3622.03L3574.55 58.2572L3566.68 106H3560.21L3568.12 58.2572L3539.8 0.75ZM3596.52 106H3589.73L3645.19 0.75H3652.59L3673.09 106H3666.31L3647.86 9.02405H3647.29L3596.52 106ZM3612.76 66.3771H3663.33L3662.3 72.3385H3611.73L3612.76 66.3771ZM3228.59 248L3216.88 142.75H3233.58L3240.57 224.257H3241.54L3276.39 142.75H3292.94L3300.75 224.308H3301.77L3335.69 142.75H3352.45L3305.73 248H3289.75L3280.76 169.165H3279.93L3244.63 248H3228.59ZM3431.23 196.403C3429.38 207.469 3425.79 216.959 3420.44 224.874C3415.13 232.788 3408.62 238.869 3400.91 243.118C3393.24 247.332 3384.94 249.439 3376.04 249.439C3366.75 249.439 3358.82 247.229 3352.24 242.809C3345.7 238.356 3341.01 232.034 3338.16 223.846C3335.32 215.623 3334.84 205.825 3336.72 194.45C3338.57 183.384 3342.15 173.893 3347.46 165.979C3352.81 158.03 3359.34 151.932 3367.04 147.684C3374.79 143.435 3383.15 141.311 3392.12 141.311C3401.34 141.311 3409.2 143.538 3415.71 147.992C3422.26 152.412 3426.95 158.75 3429.79 167.007C3432.64 175.229 3433.12 185.028 3431.23 196.403ZM3415.76 194.45C3417.17 186.056 3417 178.998 3415.25 173.277C3413.54 167.521 3410.61 163.17 3406.46 160.223C3402.32 157.277 3397.31 155.803 3391.46 155.803C3385.22 155.803 3379.38 157.379 3373.93 160.531C3368.52 163.684 3363.89 168.274 3360.05 174.304C3356.22 180.334 3353.6 187.701 3352.19 196.403C3350.75 204.797 3350.91 211.855 3352.65 217.576C3354.4 223.298 3357.35 227.632 3361.49 230.578C3365.67 233.49 3370.69 234.947 3376.55 234.947C3382.75 234.947 3388.56 233.388 3393.97 230.27C3399.42 227.118 3404.06 222.544 3407.9 216.548C3411.74 210.518 3414.36 203.152 3415.76 194.45ZM3429.45 248L3446.92 142.75H3484.44C3492.59 142.75 3499.12 144.155 3504.02 146.964C3508.95 149.739 3512.34 153.611 3514.19 158.579C3516.08 163.512 3516.49 169.234 3515.43 175.743C3514.33 182.184 3512.02 187.838 3508.49 192.703C3504.99 197.568 3500.32 201.371 3494.46 204.112C3488.63 206.818 3481.64 208.172 3473.49 208.172H3445.07L3447.43 194.501H3474.42C3479.59 194.501 3483.91 193.765 3487.37 192.292C3490.83 190.818 3493.53 188.677 3495.49 185.868C3497.47 183.058 3498.78 179.683 3499.39 175.743C3500.04 171.735 3499.85 168.292 3498.83 165.414C3497.8 162.502 3495.79 160.275 3492.81 158.733C3489.83 157.157 3485.74 156.369 3480.53 156.369H3460.59L3445.33 248H3429.45ZM3489.27 200.514L3507.41 248H3489.32L3471.64 200.514H3489.27ZM3510.15 248L3527.62 142.75H3543.5L3535.23 193.011H3536.51L3588.93 142.75H3608.92L3558.71 190.133L3591.6 248H3572.49L3546.38 200.977L3531.58 215.315L3526.03 248H3510.15ZM3663.12 171.015C3663.15 165.842 3661.47 161.885 3658.08 159.144C3654.72 156.403 3650.03 155.033 3644 155.033C3639.68 155.033 3635.83 155.718 3632.44 157.088C3629.08 158.424 3626.34 160.275 3624.21 162.639C3622.12 164.968 3620.84 167.624 3620.36 170.604C3619.91 173.105 3620.14 175.264 3621.03 177.08C3621.95 178.895 3623.27 180.42 3624.98 181.653C3626.73 182.853 3628.65 183.863 3630.74 184.686C3632.83 185.474 3634.85 186.125 3636.8 186.638L3646.67 189.311C3649.86 190.133 3653.1 191.247 3656.39 192.651C3659.67 194.056 3662.64 195.906 3665.28 198.202C3667.91 200.497 3669.88 203.341 3671.19 206.733C3672.49 210.124 3672.75 214.184 3671.96 218.912C3670.93 224.874 3668.51 230.167 3664.71 234.792C3660.91 239.418 3655.89 243.066 3649.65 245.739C3643.42 248.411 3636.19 249.747 3627.96 249.747C3620.08 249.747 3613.46 248.497 3608.08 245.996C3602.73 243.495 3598.81 239.949 3596.31 235.358C3593.81 230.732 3592.92 225.251 3593.64 218.912H3609.62C3609.24 222.715 3609.93 225.884 3611.67 228.42C3613.46 230.921 3615.96 232.788 3619.18 234.021C3622.4 235.221 3626.05 235.82 3630.12 235.82C3634.65 235.82 3638.78 235.118 3642.51 233.713C3646.24 232.274 3649.33 230.287 3651.76 227.752C3654.19 225.182 3655.68 222.184 3656.23 218.758C3656.78 215.64 3656.33 213.088 3654.89 211.101C3653.49 209.114 3651.37 207.469 3648.52 206.167C3645.71 204.865 3642.51 203.718 3638.91 202.724L3627.04 199.332C3618.99 197.037 3612.89 193.662 3608.74 189.208C3604.6 184.754 3603.11 178.861 3604.27 171.529C3605.3 165.465 3607.84 160.172 3611.88 155.649C3615.92 151.127 3620.96 147.615 3626.99 145.114C3633.02 142.579 3639.56 141.311 3646.62 141.311C3653.75 141.311 3659.81 142.579 3664.81 145.114C3669.81 147.649 3673.52 151.144 3675.91 155.598C3678.31 160.052 3679.15 165.191 3678.43 171.015H3663.12ZM3683.28 248.976C3680.4 248.976 3678 247.983 3676.08 245.996C3674.2 244.009 3673.27 241.576 3673.31 238.698C3673.34 235.854 3674.4 233.473 3676.49 231.555C3678.62 229.602 3681.09 228.625 3683.89 228.625C3686.7 228.625 3689.1 229.619 3691.09 231.606C3693.08 233.593 3694 235.957 3693.86 238.698C3693.76 240.617 3693.21 242.364 3692.22 243.94C3691.26 245.482 3689.99 246.715 3688.42 247.64C3686.84 248.531 3685.13 248.976 3683.28 248.976Z" fill="#C1CCA4"/>
<path d="M3875 100.88L3841.81 111.689L3835 78L3828.19 111.689L3795 100.88L3820.96 124.585L3795 147.874L3828.62 136.645L3835 172L3841.38 136.645L3875 147.874L3849.04 124.585L3875 100.88Z" fill="#C1CCA4"/>
<path d="M3980.09 6.71142L3981.12 0.75H4054.86L4053.84 6.71142H4020.18L4003.73 106H3997.31L4013.75 6.71142H3980.09ZM4031.44 106H4024.66L4080.11 0.75H4087.51L4108.02 106H4101.24L4082.79 9.02405H4082.22L4031.44 106ZM4047.68 66.3771H4098.25L4097.23 72.3385H4046.66L4047.68 66.3771ZM4109.77 106L4110.74 100.707L4186.24 6.71142H4126.42L4127.34 0.75H4195.08L4194.36 6.04333L4118.61 100.039H4179.15L4178.12 106H4109.77ZM4190.26 106L4207.74 0.75H4214.16L4204.04 61.8546H4204.7L4270.38 0.75H4278.91L4225 50.5485L4261.03 106H4253.01L4220.12 55.1737L4202.44 71.7218L4196.69 106H4190.26ZM4292.03 0.75L4274.56 106H4268.14L4285.61 0.75H4292.03ZM4298.8 0.75H4306.15L4330.87 51.5249H4331.7L4373.27 0.75H4381.03L4333.55 58.2572L4325.68 106H4319.21L4327.12 58.2572L4298.8 0.75ZM4355.52 106H4348.73L4404.19 0.75H4411.59L4432.09 106H4425.31L4406.86 9.02405H4406.29L4355.52 106ZM4371.76 66.3771H4422.33L4421.3 72.3385H4370.73L4371.76 66.3771ZM3987.59 248L3975.88 142.75H3992.58L3999.57 224.257H4000.54L4035.39 142.75H4051.94L4059.75 224.308H4060.77L4094.69 142.75H4111.45L4064.73 248H4048.75L4039.76 169.165H4038.93L4003.63 248H3987.59ZM4190.23 196.403C4188.38 207.469 4184.79 216.959 4179.44 224.874C4174.13 232.788 4167.62 238.869 4159.91 243.118C4152.24 247.332 4143.94 249.439 4135.04 249.439C4125.75 249.439 4117.82 247.229 4111.24 242.809C4104.7 238.356 4100.01 232.034 4097.16 223.846C4094.32 215.623 4093.84 205.825 4095.72 194.45C4097.57 183.384 4101.15 173.893 4106.46 165.979C4111.81 158.03 4118.34 151.932 4126.04 147.684C4133.79 143.435 4142.15 141.311 4151.12 141.311C4160.34 141.311 4168.2 143.538 4174.71 147.992C4181.26 152.412 4185.95 158.75 4188.79 167.007C4191.64 175.229 4192.12 185.028 4190.23 196.403ZM4174.76 194.45C4176.17 186.056 4176 178.998 4174.25 173.277C4172.54 167.521 4169.61 163.17 4165.46 160.223C4161.32 157.277 4156.31 155.803 4150.46 155.803C4144.22 155.803 4138.38 157.379 4132.93 160.531C4127.52 163.684 4122.89 168.274 4119.05 174.304C4115.22 180.334 4112.6 187.701 4111.19 196.403C4109.75 204.797 4109.91 211.855 4111.65 217.576C4113.4 223.298 4116.35 227.632 4120.49 230.578C4124.67 233.49 4129.69 234.947 4135.55 234.947C4141.75 234.947 4147.56 233.388 4152.97 230.27C4158.42 227.118 4163.06 222.544 4166.9 216.548C4170.74 210.518 4173.36 203.152 4174.76 194.45ZM4188.45 248L4205.92 142.75H4243.44C4251.59 142.75 4258.12 144.155 4263.02 146.964C4267.95 149.739 4271.34 153.611 4273.19 158.579C4275.08 163.512 4275.49 169.234 4274.43 175.743C4273.33 182.184 4271.02 187.838 4267.49 192.703C4263.99 197.568 4259.32 201.371 4253.46 204.112C4247.63 206.818 4240.64 208.172 4232.49 208.172H4204.07L4206.43 194.501H4233.42C4238.59 194.501 4242.91 193.765 4246.37 192.292C4249.83 190.818 4252.53 188.677 4254.49 185.868C4256.47 183.058 4257.78 179.683 4258.39 175.743C4259.04 171.735 4258.85 168.292 4257.83 165.414C4256.8 162.502 4254.79 160.275 4251.81 158.733C4248.83 157.157 4244.74 156.369 4239.53 156.369H4219.59L4204.33 248H4188.45ZM4248.27 200.514L4266.41 248H4248.32L4230.64 200.514H4248.27ZM4269.15 248L4286.62 142.75H4302.5L4294.23 193.011H4295.51L4347.93 142.75H4367.92L4317.71 190.133L4350.6 248H4331.49L4305.38 200.977L4290.58 215.315L4285.03 248H4269.15ZM4422.12 171.015C4422.15 165.842 4420.47 161.885 4417.08 159.144C4413.72 156.403 4409.03 155.033 4403 155.033C4398.68 155.033 4394.83 155.718 4391.44 157.088C4388.08 158.424 4385.34 160.275 4383.21 162.639C4381.12 164.968 4379.84 167.624 4379.36 170.604C4378.91 173.105 4379.14 175.264 4380.03 177.08C4380.95 178.895 4382.27 180.42 4383.98 181.653C4385.73 182.853 4387.65 183.863 4389.74 184.686C4391.83 185.474 4393.85 186.125 4395.8 186.638L4405.67 189.311C4408.86 190.133 4412.1 191.247 4415.39 192.651C4418.67 194.056 4421.64 195.906 4424.28 198.202C4426.91 200.497 4428.88 203.341 4430.19 206.733C4431.49 210.124 4431.75 214.184 4430.96 218.912C4429.93 224.874 4427.51 230.167 4423.71 234.792C4419.91 239.418 4414.89 243.066 4408.65 245.739C4402.42 248.411 4395.19 249.747 4386.96 249.747C4379.08 249.747 4372.46 248.497 4367.08 245.996C4361.73 243.495 4357.81 239.949 4355.31 235.358C4352.81 230.732 4351.92 225.251 4352.64 218.912H4368.62C4368.24 222.715 4368.93 225.884 4370.67 228.42C4372.46 230.921 4374.96 232.788 4378.18 234.021C4381.4 235.221 4385.05 235.82 4389.12 235.82C4393.65 235.82 4397.78 235.118 4401.51 233.713C4405.24 232.274 4408.33 230.287 4410.76 227.752C4413.19 225.182 4414.68 222.184 4415.23 218.758C4415.78 215.64 4415.33 213.088 4413.89 211.101C4412.49 209.114 4410.37 207.469 4407.52 206.167C4404.71 204.865 4401.51 203.718 4397.91 202.724L4386.04 199.332C4377.99 197.037 4371.89 193.662 4367.74 189.208C4363.6 184.754 4362.11 178.861 4363.27 171.529C4364.3 165.465 4366.84 160.172 4370.88 155.649C4374.92 151.127 4379.96 147.615 4385.99 145.114C4392.02 142.579 4398.56 141.311 4405.62 141.311C4412.75 141.311 4418.81 142.579 4423.81 145.114C4428.81 147.649 4432.52 151.144 4434.91 155.598C4437.31 160.052 4438.15 165.191 4437.43 171.015H4422.12ZM4442.28 248.976C4439.4 248.976 4437 247.983 4435.08 245.996C4433.2 244.009 4432.27 241.576 4432.31 238.698C4432.34 235.854 4433.4 233.473 4435.49 231.555C4437.62 229.602 4440.09 228.625 4442.89 228.625C4445.7 228.625 4448.1 229.619 4450.09 231.606C4452.08 233.593 4453 235.957 4452.86 238.698C4452.76 240.617 4452.21 242.364 4451.22 243.94C4450.26 245.482 4448.99 246.715 4447.42 247.64C4445.84 248.531 4444.13 248.976 4442.28 248.976Z" fill="#C1CCA4"/>
</svg>
