<svg width="2879" height="1503" viewBox="0 0 2879 1503" fill="none" xmlns="http://www.w3.org/2000/svg">
<path d="M30.5922 40.3491L36.77 4.50903H480.021L473.844 40.3491H271.523L172.68 637.272H134.069L232.912 40.3491H30.5922ZM339.259 637.272H298.486L631.775 4.50903H676.253L799.497 637.272H758.728L647.835 54.2526H644.439L339.259 637.272ZM436.867 399.059H740.811L734.632 434.899H430.689L436.867 399.059ZM810.015 637.272L815.881 605.45L1269.64 40.3491H910.095L915.654 4.50903H1322.77L1318.44 36.3325L863.141 601.434H1227.01L1220.83 637.272H810.015ZM1293.82 637.272L1398.84 4.50903H1437.45L1376.6 371.87H1380.62L1775.38 4.50903H1826.65L1502.63 303.898L1719.15 637.272H1670.97L1473.28 331.704L1367.03 431.191L1332.43 637.272H1293.82ZM1905.5 4.50903L1800.48 637.272H1761.87L1866.89 4.50903H1905.5ZM1946.21 4.50903H1990.38L2138.96 309.768H2143.9L2393.79 4.50903H2440.43L2155.02 350.242L2107.76 637.272H2068.84L2116.41 350.242L1946.21 4.50903ZM2287.08 637.272H2246.31L2579.6 4.50903H2624.07L2747.32 637.272H2706.55L2595.66 54.2526H2592.26L2287.08 637.272ZM2384.69 399.059H2688.63L2682.45 434.899H2378.51L2384.69 399.059ZM75.6895 1490.98L5.26355 858.213H105.652L147.66 1348.23H153.529L362.954 858.213H462.415L509.365 1348.54H515.544L719.407 858.213H820.106L539.327 1490.98H443.264L389.209 1017.02H384.267L172.062 1490.98H75.6895ZM1293.64 1180.77C1282.52 1247.3 1260.9 1304.36 1228.77 1351.94C1196.85 1399.52 1157.73 1436.08 1111.4 1461.63C1065.27 1486.96 1015.43 1499.63 961.899 1499.63C906.092 1499.63 858.417 1486.34 818.88 1459.77C779.548 1433 751.341 1394.99 734.247 1345.76C717.154 1296.33 714.275 1237.42 725.598 1169.03C736.718 1102.5 758.235 1045.44 790.156 997.866C822.282 950.076 861.506 913.415 907.841 887.876C954.38 862.331 1004.63 849.562 1058.58 849.562C1113.97 849.562 1161.23 862.95 1200.36 889.728C1239.69 916.301 1267.9 954.405 1284.99 1004.05C1302.08 1053.48 1304.97 1112.39 1293.64 1180.77ZM1200.66 1169.03C1209.11 1118.57 1208.08 1076.14 1197.57 1041.74C1187.28 1007.14 1169.67 980.978 1144.75 963.261C1119.84 945.549 1089.78 936.688 1054.56 936.688C1017.09 936.688 981.974 946.163 949.235 965.112C916.694 984.068 888.896 1011.66 865.834 1047.92C842.772 1084.17 827.018 1128.46 818.574 1180.77C809.925 1231.24 810.85 1273.67 821.351 1308.07C831.857 1342.47 849.564 1368.52 874.483 1386.23C899.606 1403.74 929.773 1412.5 964.988 1412.5C1002.26 1412.5 1037.16 1403.13 1069.7 1384.38C1102.44 1365.43 1130.34 1337.93 1153.4 1301.89C1176.47 1265.63 1192.22 1221.35 1200.66 1169.03ZM1282.92 1490.98L1387.94 858.213H1613.42C1662.44 858.213 1701.66 866.66 1731.11 883.548C1760.76 900.231 1781.15 923.509 1792.27 953.377C1803.6 983.034 1806.07 1017.43 1799.69 1056.57C1793.09 1095.29 1779.2 1129.28 1757.99 1158.53C1736.98 1187.78 1708.87 1210.64 1673.66 1227.12C1638.65 1243.39 1596.64 1251.53 1547.63 1251.53H1376.82L1391.03 1169.34H1553.19C1584.29 1169.34 1610.23 1164.92 1631.03 1156.06C1651.83 1147.2 1668.1 1134.33 1679.84 1117.44C1691.78 1100.54 1699.61 1080.25 1703.31 1056.57C1707.22 1032.47 1706.09 1011.77 1699.91 994.469C1693.74 976.962 1681.69 963.573 1663.77 954.303C1645.86 944.828 1621.25 940.09 1589.95 940.09H1470.11L1378.36 1490.98H1282.92ZM1642.46 1205.49L1751.5 1490.98H1642.77L1536.51 1205.49H1642.46ZM1767.96 1490.98L1872.98 858.213H1968.42L1918.69 1160.38H1926.42L2241.48 858.213H2361.64L2059.86 1143.08L2257.54 1490.98H2142.64L1985.72 1208.27L1896.76 1294.47L1863.4 1490.98H1767.96ZM2687.37 1028.14C2687.58 997.042 2677.49 973.253 2657.1 956.774C2636.92 940.295 2608.71 932.058 2572.47 932.058C2546.52 932.058 2523.35 936.177 2502.97 944.413C2482.79 952.445 2466.31 963.573 2453.55 977.786C2440.98 991.788 2433.26 1007.76 2430.38 1025.67C2427.7 1040.71 2429.04 1053.69 2434.4 1064.6C2439.96 1075.52 2447.88 1084.69 2458.18 1092.1C2468.68 1099.31 2480.21 1105.38 2492.78 1110.33C2505.34 1115.07 2517.48 1118.98 2529.22 1122.07L2588.53 1138.14C2607.68 1143.08 2627.14 1149.78 2646.91 1158.22C2666.68 1166.66 2684.49 1177.79 2700.35 1191.59C2716.2 1205.39 2728.04 1222.49 2735.87 1242.88C2743.69 1263.27 2745.24 1287.67 2740.5 1316.1C2734.32 1351.94 2719.8 1383.76 2696.94 1411.57C2674.09 1439.38 2643.92 1461.31 2606.44 1477.38C2568.96 1493.45 2525.51 1501.48 2476.09 1501.48C2428.73 1501.48 2388.89 1493.96 2356.55 1478.93C2324.43 1463.89 2300.85 1442.57 2285.82 1414.97C2270.79 1387.16 2265.43 1354.21 2269.76 1316.1H2365.82C2363.56 1338.96 2367.67 1358.01 2378.17 1373.26C2388.89 1388.3 2403.92 1399.52 2423.27 1406.93C2442.63 1414.15 2464.56 1417.75 2489.07 1417.75C2516.25 1417.75 2541.06 1413.53 2563.51 1405.08C2585.96 1396.43 2604.49 1384.49 2619.11 1369.24C2633.73 1353.79 2642.69 1335.77 2645.98 1315.17C2649.28 1296.43 2646.6 1281.08 2637.95 1269.14C2629.51 1257.19 2616.74 1247.3 2599.65 1239.48C2582.76 1231.65 2563.51 1224.75 2541.89 1218.78L2470.53 1198.38C2422.14 1184.59 2385.49 1164.3 2360.57 1137.52C2335.65 1110.74 2326.69 1075.31 2333.7 1031.23C2339.88 994.776 2355.11 962.954 2379.41 935.762C2403.71 908.576 2433.98 887.461 2470.22 872.425C2506.47 857.185 2545.8 849.562 2588.22 849.562C2631.05 849.562 2667.5 857.185 2697.56 872.425C2727.63 887.666 2749.87 908.678 2764.29 935.455C2778.7 962.233 2783.74 993.128 2779.42 1028.14H2687.37ZM2808.55 1496.84C2791.25 1496.84 2776.83 1490.87 2765.3 1478.93C2753.98 1466.98 2748.42 1452.35 2748.62 1435.05C2748.83 1417.95 2755.21 1403.64 2767.77 1392.11C2780.54 1380.37 2795.37 1374.49 2812.25 1374.49C2829.14 1374.49 2843.55 1380.47 2855.49 1392.42C2867.44 1404.36 2873 1418.57 2872.17 1435.05C2871.56 1446.59 2868.26 1457.09 2862.29 1466.57C2856.53 1475.84 2848.91 1483.25 2839.43 1488.81C2829.96 1494.17 2819.67 1496.84 2808.55 1496.84Z" fill="black"/>
</svg>
