<svg width="25" height="24" viewBox="0 0 25 24" fill="none" xmlns="http://www.w3.org/2000/svg">
<path fill-rule="evenodd" clip-rule="evenodd" d="M3.69232 4.82981V18.7403C3.69232 18.862 3.74495 18.9161 3.85021 18.9161H6.40269C6.49479 18.9025 6.56058 18.8214 6.54742 18.7268V14.3874C6.79741 14.3874 6.98161 14.3874 7.11318 14.4009C7.24475 14.4144 7.45526 14.4144 7.77104 14.4144C8.84992 14.4144 9.83671 14.2927 10.7314 13.9548C11.5866 13.6303 12.3234 13.0626 12.8497 12.3055C13.376 11.5485 13.6391 10.5887 13.6391 9.42609C13.6391 8.81776 13.5339 8.23647 13.3365 7.66869C13.126 7.0874 12.7971 6.56018 12.376 6.12759C11.8761 5.6274 11.2708 5.24888 10.613 5.01907C9.87618 4.73518 8.98149 4.6 7.90261 4.6C7.50789 4.6 7.11318 4.6 6.70531 4.61352C6.5084 4.62004 6.31762 4.62342 6.13297 4.62669C5.93515 4.63019 5.74437 4.63356 5.56064 4.64055C5.38834 4.64711 5.22223 4.65049 5.06081 4.65377C4.88942 4.65725 4.72331 4.66063 4.56069 4.66759C4.25808 4.68111 4.04757 4.68111 3.8239 4.68111C3.7318 4.68111 3.69232 4.73518 3.69232 4.82981ZM6.56058 11.8324V7.29017C6.65268 7.27666 6.83688 7.26314 7.10002 7.27666C7.35001 7.26314 7.65262 7.26314 7.99471 7.26314C8.53415 7.24962 9.06044 7.33073 9.54725 7.53351C9.92881 7.68221 10.2446 7.95258 10.4682 8.30406C10.6788 8.66906 10.784 9.08813 10.7709 9.5072C10.7709 10.102 10.6393 10.5616 10.363 10.8996C10.0735 11.2376 9.70514 11.4944 9.28411 11.6161C8.79729 11.7783 8.28416 11.8594 7.77104 11.8594H7.07371C6.92715 11.8594 6.76925 11.8478 6.60002 11.8353C6.58694 11.8343 6.57379 11.8334 6.56058 11.8324Z" fill="#52525B" fill-opacity="0.5"/>
<path d="M20.5861 10.5482C21.0334 10.6428 21.4544 10.7915 21.8491 11.0078C21.9018 11.0348 21.9676 11.0348 22.086 11.0078C22.1254 10.9807 22.1518 10.9267 22.1518 10.8726V8.66909C22.1518 8.61502 22.1386 8.56094 22.1254 8.50687C22.0991 8.4528 22.0465 8.39872 21.9939 8.3852C21.6386 8.2365 21.2571 8.12835 20.8624 8.07428C20.3229 7.99317 19.7703 7.95261 19.2309 7.95261C18.2967 7.95261 17.5204 8.10132 16.9021 8.42576C16.3363 8.69613 15.8495 9.12872 15.5206 9.66946C15.2311 10.1696 15.0732 10.7239 15.0732 11.3052C15.0601 11.7783 15.1653 12.2515 15.3758 12.6841C15.6258 13.1437 15.9679 13.5357 16.3758 13.8331C16.9547 14.2387 17.5731 14.5631 18.2441 14.8065C18.8888 15.0633 19.323 15.2661 19.5335 15.4418C19.744 15.6176 19.8493 15.7933 19.8493 15.9826C19.8493 16.2259 19.7045 16.4557 19.494 16.5504C19.2572 16.672 18.9019 16.7396 18.402 16.7396C17.8757 16.7396 17.3494 16.672 16.8494 16.5368C16.2705 16.4017 15.7311 16.1854 15.2179 15.8744C15.1785 15.8474 15.139 15.8339 15.0995 15.8609C15.0601 15.888 15.0469 15.942 15.0469 15.9826V18.3348C15.0337 18.4429 15.0995 18.5376 15.1916 18.5916C15.6127 18.7944 16.0732 18.9431 16.5337 19.0242C17.1257 19.1459 17.7178 19.2 18.323 19.2C19.2703 19.2 20.0598 19.0513 20.7045 18.7674C21.2965 18.5241 21.8097 18.105 22.1781 17.5642C22.5202 17.037 22.7044 16.4017 22.6912 15.7663C22.7044 15.2796 22.5991 14.8065 22.3886 14.3739C22.1386 13.9143 21.7834 13.5357 21.3492 13.2519C20.7176 12.8463 20.0335 12.5083 19.323 12.265C19.0072 12.1298 18.6914 11.9811 18.3888 11.8189C18.2178 11.7243 18.0599 11.6026 17.9415 11.4539C17.8625 11.3457 17.8099 11.2241 17.8099 11.1024C17.8099 10.9807 17.8494 10.8456 17.9152 10.7374C18.0073 10.6022 18.152 10.5076 18.323 10.467C18.573 10.3995 18.8493 10.3589 19.1125 10.3724C19.6124 10.3724 20.0992 10.44 20.5861 10.5482Z" fill="#52525B" fill-opacity="0.5"/>
</svg>
