<svg width="25" height="24" viewBox="0 0 25 24" fill="none" xmlns="http://www.w3.org/2000/svg">
<path d="M18.6457 6.60688C18.9806 6.92705 19.427 7.10802 19.8874 7.0941C20.3618 7.12194 20.8362 6.94098 21.1571 6.60688C21.4919 6.25886 21.6594 5.79948 21.6454 5.32617C21.6594 4.86679 21.4919 4.42133 21.185 4.08723C20.878 3.76705 20.4595 3.60001 19.9154 3.60001C19.4549 3.60001 19.0085 3.76705 18.6736 4.08723C18.3388 4.40741 18.1574 4.85287 18.1714 5.32617C18.1574 5.79948 18.3248 6.25886 18.6457 6.60688Z" fill="#7C7C82"/>
<path d="M18.3248 8.45833V19.1773C18.3248 19.3165 18.3946 19.4 18.5341 19.4H21.2687C21.3943 19.4 21.4501 19.3304 21.4501 19.1773V8.45833C21.4501 8.33305 21.3943 8.26344 21.2687 8.26344H18.5062C18.3806 8.26344 18.3248 8.31913 18.3248 8.45833Z" fill="#7C7C82"/>
<path fill-rule="evenodd" clip-rule="evenodd" d="M7.16335 15.8641H12.3535L13.4976 19.1772C13.5255 19.2747 13.6231 19.3443 13.7208 19.3303H16.6368C16.7763 19.3303 16.8181 19.2607 16.7763 19.1076L11.6838 4.76928C11.6698 4.69968 11.614 4.65792 11.5024 4.65792H7.88885C7.81909 4.67184 7.76328 4.74144 7.77723 4.81104C7.77723 5.1173 7.74933 5.42355 7.69352 5.71589C7.65398 5.83424 7.62144 5.94561 7.59095 6.04999C7.5784 6.09294 7.5662 6.1347 7.554 6.17527L3.06146 19.0798C3.0196 19.2468 3.06146 19.3303 3.21493 19.3303H5.83791C5.96348 19.3443 6.07509 19.2607 6.10299 19.1355L7.16335 15.8641ZM11.5164 13.0382H7.97256C8.18184 12.4535 8.39112 11.7992 8.58645 11.0893C8.72466 10.6584 8.85752 10.2274 8.98834 9.80311C9.06882 9.54207 9.14853 9.28352 9.22824 9.02902C9.42357 8.43043 9.57704 7.83184 9.70261 7.23325H9.73052C9.78496 7.41949 9.8394 7.61438 9.89626 7.81793C9.9414 7.97952 9.98806 8.14656 10.0375 8.31906C10.1491 8.72276 10.2746 9.12646 10.4142 9.558C10.4839 9.77378 10.5502 9.98607 10.6165 10.1984C10.6827 10.4106 10.749 10.6229 10.8188 10.8387C10.9443 11.2563 11.0699 11.66 11.1955 12.0359C11.321 12.3978 11.4327 12.7458 11.5164 13.0382Z" fill="#7C7C82"/>
</svg>
