<svg width="25" height="24" viewBox="0 0 25 24" fill="none" xmlns="http://www.w3.org/2000/svg">
<path d="M18.6457 6.60687C18.9806 6.92705 19.427 7.10802 19.8874 7.0941C20.3618 7.12194 20.8362 6.94097 21.1571 6.60687C21.4919 6.25885 21.6594 5.79947 21.6454 5.32617C21.6594 4.86678 21.4919 4.42132 21.185 4.08722C20.878 3.76705 20.4595 3.6 19.9154 3.6C19.4549 3.6 19.0085 3.76705 18.6736 4.08722C18.3388 4.4074 18.1574 4.85286 18.1714 5.32617C18.1574 5.79947 18.3248 6.25885 18.6457 6.60687Z" fill="#52525B" fill-opacity="0.5"/>
<path d="M18.3248 8.45833V19.1773C18.3248 19.3165 18.3946 19.4 18.5341 19.4H21.2687C21.3943 19.4 21.4501 19.3304 21.4501 19.1773V8.45833C21.4501 8.33304 21.3943 8.26344 21.2687 8.26344H18.5062C18.3806 8.26344 18.3248 8.31912 18.3248 8.45833Z" fill="#52525B" fill-opacity="0.5"/>
<path fill-rule="evenodd" clip-rule="evenodd" d="M7.16335 15.8641H12.3535L13.4976 19.1772C13.5255 19.2747 13.6231 19.3443 13.7208 19.3303H16.6368C16.7763 19.3303 16.8181 19.2607 16.7763 19.1076L11.6838 4.76927C11.6698 4.69967 11.614 4.65791 11.5024 4.65791H7.88885C7.81909 4.67183 7.76328 4.74143 7.77723 4.81104C7.77723 5.11729 7.74933 5.42355 7.69352 5.71588C7.65398 5.83424 7.62144 5.94561 7.59095 6.04999C7.5784 6.09293 7.5662 6.13469 7.554 6.17526L3.06146 19.0798C3.0196 19.2468 3.06146 19.3303 3.21493 19.3303H5.83791C5.96348 19.3443 6.07509 19.2607 6.10299 19.1354L7.16335 15.8641ZM11.5164 13.0382H7.97256C8.18184 12.4535 8.39112 11.7992 8.58645 11.0893C8.72466 10.6583 8.85752 10.2274 8.98834 9.8031C9.06882 9.54206 9.14853 9.28352 9.22824 9.02901C9.42357 8.43042 9.57704 7.83183 9.70261 7.23324H9.73052C9.78496 7.41948 9.8394 7.61438 9.89626 7.81792C9.9414 7.97951 9.98806 8.14656 10.0375 8.31905C10.1491 8.72275 10.2746 9.12645 10.4142 9.558C10.4839 9.77377 10.5502 9.98606 10.6165 10.1983C10.6827 10.4106 10.749 10.6229 10.8188 10.8387C10.9443 11.2563 11.0699 11.66 11.1955 12.0359C11.321 12.3978 11.4327 12.7458 11.5164 13.0382Z" fill="#52525B" fill-opacity="0.5"/>
</svg>
