<svg width="25" height="24" viewBox="0 0 25 24" fill="none" xmlns="http://www.w3.org/2000/svg">
<path d="M8.46519 10.7434C8.37342 10.6235 8.23792 10.5449 8.08835 10.5247C7.93878 10.5046 7.78732 10.5445 7.66711 10.6358C7.59639 10.6916 7.53935 10.7628 7.50033 10.844L2.60021 20.6517C2.53081 20.7907 2.51941 20.9516 2.56851 21.099C2.61762 21.2464 2.72322 21.3682 2.8621 21.4378C2.94327 21.4788 3.03302 21.5001 3.12399 21.4998H9.95108C10.0604 21.5026 10.1682 21.4734 10.2612 21.4159C10.3543 21.3583 10.4285 21.2749 10.4749 21.1757C11.9483 18.1308 11.0552 13.5014 8.46519 10.7434Z" fill="#52525B" fill-opacity="0.5"/>
<path d="M12.0671 1.81825C10.8455 3.6989 10.1336 5.86495 10.0012 8.10391C9.86879 10.3429 10.3204 12.5778 11.3117 14.5894L14.6033 21.1757C14.6519 21.273 14.7267 21.3549 14.8192 21.4122C14.9117 21.4694 15.0183 21.4997 15.1271 21.4998H21.9528C22.0298 21.5 22.1061 21.4849 22.1772 21.4555C22.2484 21.4261 22.313 21.383 22.3675 21.3285C22.4219 21.2741 22.465 21.2094 22.4944 21.1382C22.5238 21.067 22.5388 20.9907 22.5386 20.9137C22.5387 20.8229 22.5179 20.7332 22.478 20.6517L13.0637 1.81549C13.019 1.7211 12.9484 1.64135 12.8602 1.5855C12.772 1.52965 12.6698 1.5 12.5654 1.5C12.461 1.5 12.3587 1.52965 12.2705 1.5855C12.1823 1.64135 12.1118 1.7211 12.0671 1.81549V1.81825Z" fill="#52525B" fill-opacity="0.5"/>
</svg>
