<svg width="24" height="24" viewBox="0 0 24 24" fill="none" xmlns="http://www.w3.org/2000/svg">
<path d="M17.8241 8.55803C18.9529 7.82225 19.7 6.55453 19.7 5.11606C19.7 2.84615 17.8412 1 15.5556 1H8.44436C6.15884 1 4.3 2.84615 4.3 5.11606C4.3 6.55453 5.04714 7.82225 6.17594 8.55803C5.04714 9.2947 4.3 10.5615 4.3 12C4.3 13.4385 5.04714 14.7053 6.17594 15.442C5.04714 16.1786 4.3 17.4455 4.3 18.8839C4.3 21.1539 6.16964 23 8.46686 23C10.7641 23 12.6787 21.1333 12.6787 18.8392V15.0441C13.4151 15.7102 14.3935 16.1161 15.4656 16.1161H15.5556C17.8412 16.1161 19.7 14.2699 19.7 12C19.7 10.5615 18.9529 9.29381 17.8241 8.55803ZM12.6787 2.34818H15.5556C17.0922 2.34818 18.3426 3.58997 18.3426 5.11606C18.3426 6.64215 17.0922 7.88394 15.5556 7.88394H12.6787V2.34818ZM8.44436 2.34818H11.3213V7.88394H8.44436C6.90778 7.88394 5.65745 6.64215 5.65745 5.11606C5.65745 3.58997 6.90778 2.34818 8.44436 2.34818ZM5.65745 12C5.65745 10.4739 6.90778 9.23212 8.44436 9.23212H11.3213V14.7679H8.44256C6.90688 14.767 5.65745 13.5261 5.65745 12ZM11.3213 18.8392C11.3213 20.3904 10.0403 21.6518 8.46686 21.6518C6.89337 21.6518 5.65745 20.41 5.65745 18.8839C5.65745 17.3579 6.90688 16.117 8.44256 16.1161H11.3213V18.8392ZM15.5556 14.7679H15.4656C13.9291 14.7679 12.6787 13.5261 12.6787 12C12.6787 10.4739 13.9291 9.23212 15.4656 9.23212H15.5556C17.0922 9.23212 18.3426 10.4739 18.3426 12C18.3426 13.5261 17.0922 14.7679 15.5556 14.7679Z" fill="#7C7C82"/>
</svg>
