<svg width="24" height="24" viewBox="0 0 24 24" fill="none" xmlns="http://www.w3.org/2000/svg">
<path d="M17.824 8.55803C18.9529 7.82225 19.7 6.55453 19.7 5.11606C19.7 2.84615 17.8411 1 15.5556 1H8.44434C6.15883 1 4.29999 2.84615 4.29999 5.11606C4.29999 6.55453 5.04712 7.82225 6.17593 8.55803C5.04712 9.2947 4.29999 10.5615 4.29999 12C4.29999 13.4385 5.04712 14.7053 6.17593 15.442C5.04712 16.1786 4.29999 17.4455 4.29999 18.8839C4.29999 21.1539 6.16963 23 8.46685 23C10.7641 23 12.6787 21.1333 12.6787 18.8392V15.0441C13.415 15.7102 14.3935 16.1161 15.4656 16.1161H15.5556C17.8411 16.1161 19.7 14.2699 19.7 12C19.7 10.5615 18.9529 9.29381 17.824 8.55803ZM12.6787 2.34818H15.5556C17.0922 2.34818 18.3425 3.58997 18.3425 5.11606C18.3425 6.64215 17.0922 7.88394 15.5556 7.88394H12.6787V2.34818ZM8.44434 2.34818H11.3213V7.88394H8.44434C6.90776 7.88394 5.65743 6.64215 5.65743 5.11606C5.65743 3.58997 6.90776 2.34818 8.44434 2.34818ZM5.65743 12C5.65743 10.4739 6.90776 9.23212 8.44434 9.23212H11.3213V14.7679H8.44254C6.90686 14.767 5.65743 13.5261 5.65743 12ZM11.3213 18.8392C11.3213 20.3904 10.0403 21.6518 8.46685 21.6518C6.89336 21.6518 5.65743 20.41 5.65743 18.8839C5.65743 17.3579 6.90686 16.117 8.44254 16.1161H11.3213V18.8392ZM15.5556 14.7679H15.4656C13.929 14.7679 12.6787 13.5261 12.6787 12C12.6787 10.4739 13.929 9.23212 15.4656 9.23212H15.5556C17.0922 9.23212 18.3425 10.4739 18.3425 12C18.3425 13.5261 17.0922 14.7679 15.5556 14.7679Z" fill="#52525B" fill-opacity="0.5"/>
</svg>
