<svg width="25" height="24" viewBox="0 0 25 24" fill="none" xmlns="http://www.w3.org/2000/svg">
<g clip-path="url(#clip0_369_850)">
<path fill-rule="evenodd" clip-rule="evenodd" d="M12.1186 0.799999C5.78836 0.799999 0.653809 5.89415 0.653809 12.1746C0.653809 17.199 3.95962 21.4557 8.46115 22.991C9.02384 23.0608 9.23485 22.7118 9.23485 22.4327C9.23485 22.1536 9.23485 21.4557 9.23485 20.4788C6.06971 21.1766 5.36635 18.9436 5.36635 18.9436C4.87399 17.6177 4.10029 17.2688 4.10029 17.2688C3.04525 16.5709 4.17063 16.5709 4.17063 16.5709C5.29601 16.6407 5.92904 17.7573 5.92904 17.7573C6.98408 19.5018 8.60182 19.0133 9.23485 18.7342C9.30518 17.9666 9.65687 17.4781 9.93821 17.199C7.4061 16.9199 4.73332 15.9429 4.73332 11.5466C4.73332 10.2905 5.15534 9.31352 5.92904 8.47612C5.8587 8.26677 5.43668 7.08046 6.06971 5.54524C6.06971 5.54524 7.05442 5.26611 9.23485 6.73155C10.1492 6.45242 11.1339 6.38263 12.1186 6.38263C13.1033 6.38263 14.0881 6.5222 15.0024 6.73155C17.1829 5.26611 18.1676 5.54524 18.1676 5.54524C18.8006 7.08046 18.3786 8.26677 18.3082 8.54591C19.0116 9.31352 19.504 10.3603 19.504 11.6164C19.504 16.0127 16.8312 16.9199 14.2991 17.199C14.7211 17.5479 15.0728 18.2457 15.0728 19.2925C15.0728 20.8277 15.0728 22.014 15.0728 22.4327C15.0728 22.7118 15.2838 23.0608 15.8465 22.991C20.4183 21.4557 23.6538 17.199 23.6538 12.1746C23.5835 5.89415 18.4489 0.799999 12.1186 0.799999Z" fill="#52525B" fill-opacity="0.5"/>
</g>
<defs>
<clipPath id="clip0_369_850">
<rect width="24" height="24" fill="white" transform="translate(0.153809)"/>
</clipPath>
</defs>
</svg>
