<svg width="24" height="24" viewBox="0 0 24 24" fill="none" xmlns="http://www.w3.org/2000/svg">
<path d="M1.77602 10.1664C1.75265 10.2016 1.76433 10.2251 1.81108 10.2251L6.0411 10.2368C6.07615 10.2368 6.13458 10.2016 6.15795 10.1664L6.3566 9.8615C6.37997 9.82631 6.36828 9.79113 6.32154 9.79113H2.14994C2.1032 9.79113 2.04478 9.81459 2.02141 9.84977L1.77602 10.1664Z" fill="#52525B" fill-opacity="0.5"/>
<path d="M0.0115631 11.2455C-0.0118072 11.2807 -0.000122066 11.3041 0.0466185 11.3041L5.57369 11.2924C5.62043 11.2924 5.66717 11.2689 5.67886 11.222L5.77234 10.9405C5.78402 10.9054 5.76065 10.8702 5.71391 10.8702H0.385488C0.338747 10.8702 0.280321 10.8936 0.256951 10.9288L0.0115631 11.2455Z" fill="#52525B" fill-opacity="0.5"/>
<path d="M2.83937 12.3128C2.816 12.348 2.82768 12.3832 2.87442 12.3832L5.42178 12.3949C5.45684 12.3949 5.50358 12.3597 5.50358 12.3128L5.52695 12.0313C5.52695 11.9844 5.50358 11.9492 5.45684 11.9492H3.11981C3.07307 11.9492 3.02633 11.9844 3.00296 12.0196L2.83937 12.3128Z" fill="#52525B" fill-opacity="0.5"/>
<path fill-rule="evenodd" clip-rule="evenodd" d="M13.9134 10.2998C14.2568 10.2083 14.594 10.1184 15.0036 10.014C15.1438 9.97879 15.1906 9.92015 15.1205 9.81459C14.8283 9.13432 14.3843 8.57134 13.765 8.16084C12.8185 7.51575 11.7668 7.38674 10.6684 7.58613C9.32462 7.83243 8.22622 8.52443 7.39657 9.6152C6.62535 10.6239 6.25143 11.7733 6.40334 13.0517C6.53187 14.1308 7.02265 14.9987 7.88735 15.6555C8.82216 16.3592 9.88551 16.5821 11.0307 16.4296C12.4212 16.2419 13.5196 15.5499 14.3609 14.4357C14.5517 14.1833 14.7151 13.9179 14.8518 13.6409C15.0487 14.3551 15.445 14.9686 16.0204 15.4678C16.8383 16.1716 17.8082 16.4765 18.8715 16.5C18.9757 16.4879 19.0813 16.4786 19.1878 16.4692C19.3918 16.4512 19.5991 16.4329 19.8063 16.3944C20.8931 16.1716 21.8396 15.6789 22.6108 14.8931C23.6975 13.7906 24.1532 12.5005 23.9546 10.9171C23.8027 9.79113 23.2301 8.93493 22.307 8.30158C21.2904 7.60958 20.1686 7.4923 18.9767 7.70341C17.5862 7.94972 16.5579 8.53615 15.7049 9.66211C15.3393 10.1423 15.0653 10.6498 14.8964 11.1868H11.1358C10.9605 11.1868 10.8787 11.3041 10.8437 11.3745C10.6801 11.6795 10.3997 12.2893 10.2477 12.6529C10.166 12.8523 10.2244 13.0048 10.4698 13.0048H12.725C12.6948 13.0472 12.6662 13.0881 12.6385 13.1276C12.5591 13.2409 12.4875 13.3431 12.4095 13.4388C11.8837 14.0369 11.2176 14.3184 10.423 14.2129C9.4999 14.0838 8.85722 13.3097 8.84553 12.3714C8.83385 11.4214 9.24283 10.6591 10.0374 10.143C10.7035 9.70903 11.4163 9.60347 12.1524 9.96706C12.3978 10.0843 12.5264 10.2134 12.7016 10.4128C12.8478 10.582 12.8641 10.5776 13.0212 10.5352C13.0274 10.5336 13.0338 10.5318 13.0405 10.53C13.3619 10.4468 13.6396 10.3728 13.9134 10.2998ZM21.6445 11.6361C21.6468 11.6755 21.6492 11.717 21.6526 11.7616C21.5942 12.7702 21.0917 13.5209 20.1686 14.0017C19.5493 14.3184 18.9066 14.3536 18.2639 14.0721C17.4226 13.6968 16.9785 12.7702 17.1889 11.8554C17.446 10.7529 18.1471 10.0609 19.2338 9.81458C20.3439 9.55655 21.4072 10.2134 21.6175 11.3745C21.6341 11.4575 21.6389 11.5406 21.6445 11.6361Z" fill="#52525B" fill-opacity="0.5"/>
</svg>
