<svg width="25" height="24" viewBox="0 0 25 24" fill="none" xmlns="http://www.w3.org/2000/svg">
<path fill-rule="evenodd" clip-rule="evenodd" d="M2.30762 2H22.3076V22H2.30762V2ZM17.7958 19.0186C16.8441 19.0186 16.306 18.5225 15.8924 17.8475L14.3245 18.758C14.8909 19.8767 16.0486 20.7302 17.8405 20.7302C19.6731 20.7302 21.0377 19.7789 21.0377 18.0426C21.0377 16.432 20.1121 15.7157 18.4727 15.013L17.9904 14.8065C17.1625 14.4482 16.804 14.2139 16.804 13.6354C16.804 13.1672 17.1622 12.8089 17.7274 12.8089C18.2814 12.8089 18.6383 13.0425 18.9691 13.6354L20.4716 12.6711C19.836 11.5537 18.9541 11.127 17.7274 11.127C16.0042 11.127 14.9017 12.2281 14.9017 13.6745C14.9017 15.2446 15.8266 15.9874 17.2189 16.5803L17.7013 16.7871C18.5813 17.1719 19.106 17.4061 19.106 18.0674C19.106 18.6192 18.5953 19.0186 17.7958 19.0186ZM10.3183 19.0066C9.65537 19.0066 9.37965 18.5521 9.07655 18.0146L7.50595 18.965C7.96093 19.9275 8.85557 20.7266 10.4004 20.7266C12.1102 20.7266 13.2815 19.8177 13.2815 17.8208V11.2371H11.3521V17.7947C11.3521 18.7586 10.9522 19.0066 10.3183 19.0066Z" fill="#7C7C82"/>
</svg>
