<svg width="25" height="24" viewBox="0 0 25 24" fill="none" xmlns="http://www.w3.org/2000/svg">
<path d="M12.2293 1L22.5758 11.3828V11.3857C22.9172 11.7255 22.9143 12.2774 22.5758 12.6172L12.2323 23C14.3617 20.8595 14.3617 17.3947 12.2323 15.2543L15.4766 12.0056L12.2235 8.75736L8.98708 12.0061L12.2323 15.2543C14.3617 17.3947 14.3617 20.8595 12.2323 23L12.2322 22.9971H12.2293L1.88574 12.6143C1.54433 12.2745 1.54722 11.7226 1.88574 11.3828L5.12046 8.13584L5.12202 8.1374L12.0408 1.19784C12.0916 1.14172 12.1439 1.08641 12.1975 1.03195L12.2293 1Z" fill="#7C7C82"/>
</svg>
