<svg width="25" height="24" viewBox="0 0 25 24" fill="none" xmlns="http://www.w3.org/2000/svg">
<path d="M12.9788 1.23471C12.4328 0.921059 11.721 0.922469 11.1745 1.23471C10.5011 1.61431 9.82767 1.99394 9.15423 2.37358C7.09068 3.53686 5.02706 4.70018 2.96318 5.86283C2.43051 6.14906 2.07124 6.73334 2.07697 7.3398V16.6615C2.07313 17.2798 2.45092 17.8697 2.99732 18.152C3.29396 18.3132 3.58741 18.4806 3.88085 18.6479C4.36521 18.9242 4.84952 19.2004 5.34801 19.4487C6.27268 19.9128 7.42954 20.0155 8.36551 19.5315C9.12526 19.1303 9.46271 18.2382 9.46177 17.4183C9.46564 15.4753 9.465 13.5322 9.46435 11.5892C9.46398 10.4558 9.46361 9.32239 9.46413 8.189C9.48218 8.05227 9.38171 7.90614 9.23571 7.90943C8.88593 7.90379 8.53569 7.90614 8.18592 7.90849C8.05373 7.89572 7.92476 8.00784 7.93473 8.14355C7.93227 9.74464 7.93264 11.346 7.93302 12.9474C7.93336 14.4032 7.9337 15.859 7.93191 17.3147C7.93952 17.7376 7.65984 18.144 7.26085 18.2868C6.80872 18.4558 6.30486 18.3248 5.89449 18.1043C5.64798 17.9653 5.40142 17.8265 5.15486 17.6877C4.67283 17.4164 4.19081 17.145 3.70919 16.8724C3.66093 16.8496 3.62084 16.8125 3.59432 16.7662C3.56779 16.72 3.55611 16.6667 3.56084 16.6136C3.56084 15.5884 3.56089 14.5632 3.56094 13.5381C3.56105 11.4878 3.56115 9.43758 3.56084 7.3876C3.54757 7.26364 3.62238 7.15199 3.73384 7.10137C5.25171 6.24799 6.76914 5.39343 8.28662 4.53884C9.49638 3.85755 10.7062 3.17624 11.9162 2.4955C11.9636 2.4632 12.0196 2.44596 12.077 2.44605C12.1343 2.44613 12.1903 2.46354 12.2376 2.49597C13.4426 3.17367 14.6475 3.85174 15.8523 4.52983C17.375 5.3868 18.8977 6.24378 20.4209 7.10004C20.5328 7.15058 20.6044 7.26411 20.593 7.3876C20.5928 8.50587 20.5929 9.62422 20.593 10.7426C20.5931 12.6995 20.5932 14.6564 20.592 16.6131C20.6001 16.722 20.5451 16.8274 20.4456 16.8752C19.0403 17.6684 17.634 18.4599 16.2277 19.2514C14.9458 19.9729 13.6638 20.6944 12.3826 21.4172C12.366 21.4264 12.3491 21.4363 12.3319 21.4464C12.215 21.5149 12.0827 21.5925 11.9518 21.5171C11.5484 21.2892 11.1478 21.0562 10.7473 20.8232C10.4485 20.6494 10.1498 20.4757 9.84993 20.3041C9.77363 20.2554 9.67646 20.2346 9.59686 20.2889C9.5778 20.2992 9.55874 20.3095 9.53968 20.3197C9.24389 20.4792 8.94666 20.6395 8.62478 20.7417C8.58385 20.7582 8.54037 20.7716 8.49665 20.785C8.37788 20.8215 8.25727 20.8586 8.18074 20.9616C8.27445 21.0901 8.4124 21.1666 8.549 21.2424C8.58505 21.2624 8.621 21.2824 8.65602 21.3032C9.03003 21.5194 9.40432 21.7352 9.77862 21.951C10.2259 22.2089 10.6731 22.4668 11.12 22.7253C11.6603 23.0698 12.3864 23.0943 12.9442 22.776C14.2415 22.0457 15.5386 21.3151 16.8358 20.5844C18.2757 19.7733 19.7157 18.9622 21.156 18.1516C21.701 17.8677 22.0807 17.2801 22.0768 16.6614V7.3398C22.0821 6.74564 21.7366 6.17178 21.22 5.88132C19.6115 4.97336 18.0025 4.06655 16.3935 3.15974C15.2553 2.5182 14.117 1.87666 12.9788 1.23471Z" fill="#7C7C82"/>
<path d="M17.1091 8.23348C16.0347 7.64638 14.7566 7.61511 13.5627 7.69182C12.7002 7.77887 11.793 8.02201 11.1646 8.65354C10.5201 9.28844 10.3798 10.3136 10.6859 11.1424C10.9053 11.7281 11.4575 12.1089 12.0286 12.3104C12.7642 12.5756 13.5368 12.6577 14.3097 12.7397C15.0146 12.8145 15.7198 12.8894 16.3973 13.1033C16.6741 13.197 16.9964 13.3403 17.0811 13.6479C17.1594 14.0122 17.0736 14.4356 16.784 14.6887C16.2637 15.1094 15.558 15.1393 14.913 15.1666C14.8777 15.1681 14.8426 15.1696 14.8077 15.1712C14.7395 15.1701 14.6708 15.1693 14.6017 15.1686C13.8478 15.1602 13.0468 15.1513 12.3973 14.7331C12.03 14.4838 11.8717 14.0424 11.8073 13.6219C11.8002 13.4908 11.6969 13.3706 11.5575 13.3805C11.2087 13.3763 10.8599 13.3773 10.511 13.3801C10.3893 13.3696 10.2628 13.4581 10.2561 13.585C10.2281 14.3361 10.5096 15.1144 11.0859 15.6139C11.7599 16.2077 12.6684 16.4367 13.5414 16.536C14.4698 16.6263 15.4186 16.6212 16.3328 16.4177C17.0201 16.2578 17.7091 15.9636 18.1822 15.4228C18.7656 14.7658 18.8802 13.7874 18.6186 12.9689C18.4186 12.3583 17.847 11.9665 17.2627 11.765C16.4681 11.4867 15.6376 11.3769 14.8068 11.2671C14.1618 11.1818 13.5166 11.0965 12.8879 10.9324C12.8772 10.929 12.8664 10.9257 12.8556 10.9223C12.6124 10.8463 12.3281 10.7574 12.2215 10.5047C12.1035 10.1371 12.2039 9.6806 12.5347 9.45447C12.9656 9.15594 13.5124 9.11198 14.021 9.08503C14.0392 9.08486 14.0574 9.08468 14.0757 9.0845C14.7563 9.07776 15.4751 9.07065 16.0973 9.3816C16.5135 9.59449 16.7546 10.0316 16.8541 10.473C16.8726 10.6027 16.958 10.7379 17.1049 10.7323C17.3419 10.7371 17.579 10.7362 17.816 10.7353C17.9254 10.7349 18.0348 10.7345 18.1442 10.7346C18.2632 10.7432 18.3935 10.6745 18.4167 10.5501C18.4021 9.62763 17.9409 8.68339 17.1091 8.23348Z" fill="#7C7C82"/>
</svg>
