<svg width="25" height="24" viewBox="0 0 25 24" fill="none" xmlns="http://www.w3.org/2000/svg">
<path d="M14.7163 12C14.7163 13.0733 13.8446 13.9433 12.7692 13.9433C11.6939 13.9433 10.8221 13.0733 10.8221 12C10.8221 10.9268 11.6939 10.0568 12.7692 10.0568C13.8446 10.0568 14.7163 10.9268 14.7163 12Z" fill="#52525B" fill-opacity="0.5"/>
<path fill-rule="evenodd" clip-rule="evenodd" d="M11.8664 3.77943C12.1648 4.02146 12.4665 4.28899 12.7692 4.58007C13.072 4.28899 13.3736 4.02146 13.672 3.77943C14.4879 3.11764 15.3027 2.62733 16.0679 2.38026C16.8331 2.13321 17.6098 2.11256 18.2692 2.49254C18.9287 2.87251 19.2991 3.55414 19.4673 4.33899C19.6355 5.12393 19.6175 6.07336 19.4512 7.10943C19.3903 7.48835 19.309 7.88285 19.2078 8.29004C19.6117 8.40615 19.9947 8.53312 20.3539 8.67C21.3361 9.04428 22.169 9.5034 22.766 10.0413C23.363 10.5791 23.7692 11.2401 23.7692 12C23.7692 12.76 23.363 13.4209 22.766 13.9587C22.169 14.4966 21.3361 14.9557 20.3539 15.33C19.9947 15.4669 19.6117 15.5939 19.2078 15.71C19.309 16.1172 19.3903 16.5117 19.4512 16.8906C19.6175 17.9266 19.6355 18.8761 19.4673 19.661C19.2991 20.4459 18.9287 21.1275 18.2692 21.5075C17.6098 21.8874 16.8331 21.8668 16.0679 21.6197C15.3027 21.3727 14.4879 20.8824 13.672 20.2206C13.3736 19.9785 13.072 19.711 12.7692 19.4199C12.4665 19.711 12.1648 19.9785 11.8665 20.2206C11.0506 20.8824 10.2357 21.3727 9.47051 21.6197C8.70535 21.8668 7.92867 21.8874 7.26923 21.5075C6.60979 21.1275 6.23936 20.4459 6.07116 19.661C5.90293 18.8761 5.92098 17.9266 6.0873 16.8906C6.14813 16.5117 6.22944 16.1172 6.33066 15.71C5.92671 15.5939 5.54373 15.4669 5.18452 15.33C4.20232 14.9557 3.36944 14.4966 2.77243 13.9587C2.17548 13.4209 1.76923 12.76 1.76923 12C1.76923 11.2401 2.17548 10.5791 2.77243 10.0413C3.36944 9.5034 4.20232 9.04428 5.18452 8.67C5.54373 8.53312 5.92671 8.40615 6.33066 8.29004C6.22944 7.88285 6.14812 7.48835 6.0873 7.10943C5.92097 6.07336 5.90293 5.12393 6.07115 4.339C6.23936 3.55414 6.60978 2.87252 7.26922 2.49254C7.92866 2.11257 8.70534 2.13321 9.4705 2.38026C10.2357 2.62733 11.0506 3.11764 11.8664 3.77943ZM18.3875 4.56951C18.2577 3.96414 18.0117 3.61671 17.7171 3.44698C17.4225 3.27725 16.998 3.23829 16.4078 3.42884C15.8177 3.61936 15.1231 4.02255 14.3685 4.63467C14.0962 4.85549 13.8192 5.10101 13.5397 5.36957C14.1433 6.02625 14.7437 6.76987 15.3233 7.585C16.3204 7.6784 17.2658 7.82549 18.1375 8.01883C18.2307 7.64297 18.3053 7.28079 18.3608 6.93508C18.5146 5.97677 18.5172 5.1748 18.3875 4.56951ZM11.17 4.63468C11.4422 4.85549 11.7192 5.10102 11.9987 5.36957C11.3951 6.02625 10.7948 6.76988 10.2152 7.585C9.21805 7.6784 8.27261 7.82549 7.40098 8.01883C7.30771 7.64297 7.23316 7.28079 7.17766 6.93509C7.02382 5.97677 7.02127 5.1748 7.151 4.56951C7.28074 3.96414 7.5268 3.61671 7.82136 3.44698C8.11592 3.27725 8.54043 3.23829 9.1306 3.42884C9.7207 3.61937 10.4153 4.02255 11.17 4.63468ZM16.1278 8.78463C16.7257 8.86382 17.2968 8.96342 17.8353 9.0809C17.668 9.60502 17.4689 10.1484 17.2386 10.7048C17.0684 10.3817 16.8895 10.0577 16.7021 9.73383C16.5148 9.40995 16.3231 9.09333 16.1278 8.78463ZM18.908 9.35074C18.6399 10.2008 18.2948 11.0915 17.8773 12C18.2948 12.9085 18.6399 13.7992 18.908 14.6493C19.2808 14.542 19.6323 14.4253 19.96 14.3004C20.8685 13.9542 21.5657 13.5554 22.0261 13.1407C22.4865 12.7259 22.665 12.3395 22.665 12C22.665 11.6605 22.4865 11.2742 22.0261 10.8593C21.5657 10.4446 20.8685 10.0458 19.96 9.69959C19.6323 9.57471 19.2808 9.45806 18.908 9.35074ZM15.7458 10.2849C16.0788 10.8605 16.3827 11.4342 16.6567 12C16.3827 12.5658 16.0788 13.1395 15.7458 13.7151C15.4128 14.2907 15.0669 14.8403 14.713 15.36C14.085 15.4061 13.4352 15.4303 12.7692 15.4303C12.1032 15.4303 11.4534 15.4061 10.8255 15.36C10.4716 14.8403 10.1256 14.2908 9.79265 13.7151C9.45966 13.1395 9.15577 12.5658 8.8817 12C9.15577 11.4342 9.45966 10.8605 9.79265 10.2849C10.1256 9.70926 10.4716 9.15973 10.8255 8.63997C11.4534 8.59396 12.1032 8.56975 12.7692 8.56975C13.4352 8.56975 14.085 8.59396 14.713 8.63997C15.0669 9.15973 15.4128 9.70926 15.7458 10.2849ZM16.7021 14.2662C16.5148 14.5901 16.3231 14.9067 16.1278 15.2154C16.7257 15.1362 17.2968 15.0366 17.8353 14.9191C17.668 14.395 17.4689 13.8516 17.2386 13.2952C17.0684 13.6183 16.8895 13.9423 16.7021 14.2662ZM12.7692 16.5324C13.1439 16.5324 13.5145 16.525 13.88 16.5106C13.5124 16.9878 13.1404 17.4316 12.7692 17.8382C12.3981 17.4316 12.0261 16.9878 11.6584 16.5106C12.0239 16.525 12.3945 16.5324 12.7692 16.5324ZM15.3233 16.415C14.7437 17.2301 14.1433 17.9738 13.5397 18.6304C13.8192 18.899 14.0962 19.1445 14.3685 19.3653C15.1231 19.9775 15.8177 20.3806 16.4078 20.5712C16.998 20.7617 17.4225 20.7228 17.7171 20.553C18.0117 20.3833 18.2577 20.0359 18.3874 19.4305C18.5172 18.8252 18.5146 18.0232 18.3608 17.0649C18.3053 16.7192 18.2307 16.357 18.1375 15.9812C17.2658 16.1745 16.3204 16.3216 15.3233 16.415ZM10.2152 16.415C10.7948 17.2301 11.3951 17.9738 11.9987 18.6304C11.7192 18.899 11.4422 19.1445 11.17 19.3653C10.4153 19.9775 9.72071 20.3806 9.13061 20.5712C8.54044 20.7617 8.11592 20.7228 7.82136 20.553C7.5268 20.3833 7.28074 20.0359 7.151 19.4305C7.02128 18.8252 7.02383 18.0232 7.17767 17.0649C7.23316 16.7192 7.30771 16.357 7.40098 15.9812C8.27261 16.1745 9.21805 16.3216 10.2152 16.415ZM9.41066 15.2154C8.81272 15.1362 8.24161 15.0366 7.70317 14.9191C7.87045 14.395 8.06958 13.8516 8.29983 13.2952C8.47007 13.6183 8.64897 13.9423 8.83632 14.2662C9.02368 14.5901 9.21538 14.9067 9.41066 15.2154ZM8.83633 9.73383C8.64897 10.0577 8.47007 10.3817 8.29983 10.7048C8.06958 10.1484 7.87045 9.60502 7.70317 9.0809C8.24161 8.96342 8.81272 8.86382 9.41065 8.78463C9.21538 9.09333 9.02369 9.40995 8.83633 9.73383ZM6.63048 14.6493C6.89852 13.7992 7.24361 12.9085 7.66113 12C7.24361 11.0915 6.89852 10.2008 6.63048 9.35074C6.25769 9.45806 5.90615 9.57471 5.57842 9.69959C4.66993 10.0458 3.97275 10.4446 3.51238 10.8593C3.05195 11.2742 2.8735 11.6605 2.8735 12C2.8735 12.3395 3.05195 12.7259 3.51238 13.1407C3.97275 13.5554 4.66993 13.9542 5.57842 14.3004C5.90615 14.4253 6.25769 14.542 6.63048 14.6493ZM12.7692 7.46766C12.3945 7.46766 12.0239 7.47503 11.6584 7.48946C12.0261 7.01225 12.3981 6.56843 12.7692 6.16179C13.1404 6.56843 13.5124 7.01225 13.88 7.48946C13.5145 7.47503 13.1439 7.46766 12.7692 7.46766Z" fill="#52525B" fill-opacity="0.5"/>
</svg>
