<svg width="25" height="24" viewBox="0 0 25 24" fill="none" xmlns="http://www.w3.org/2000/svg">
<path d="M14.7163 12C14.7163 13.0733 13.8446 13.9433 12.7692 13.9433C11.6939 13.9433 10.8221 13.0733 10.8221 12C10.8221 10.9268 11.6939 10.0568 12.7692 10.0568C13.8446 10.0568 14.7163 10.9268 14.7163 12Z" fill="#7C7C82"/>
<path fill-rule="evenodd" clip-rule="evenodd" d="M11.8664 3.77944C12.1648 4.02147 12.4665 4.289 12.7692 4.58009C13.072 4.289 13.3736 4.02147 13.672 3.77944C14.4879 3.11765 15.3027 2.62734 16.0679 2.38027C16.8331 2.13322 17.6098 2.11258 18.2692 2.49255C18.9287 2.87252 19.2991 3.55415 19.4673 4.33901C19.6355 5.12394 19.6175 6.07337 19.4512 7.10944C19.3903 7.48836 19.309 7.88286 19.2078 8.29005C19.6117 8.40616 19.9947 8.53313 20.3539 8.67001C21.3361 9.0443 22.169 9.50341 22.766 10.0413C23.363 10.5791 23.7692 11.2401 23.7692 12C23.7692 12.76 23.363 13.4209 22.766 13.9588C22.169 14.4966 21.3361 14.9557 20.3539 15.33C19.9947 15.4669 19.6117 15.5939 19.2078 15.71C19.309 16.1172 19.3903 16.5117 19.4512 16.8906C19.6175 17.9267 19.6355 18.8761 19.4673 19.661C19.2991 20.4459 18.9287 21.1275 18.2692 21.5075C17.6098 21.8874 16.8331 21.8668 16.0679 21.6198C15.3027 21.3727 14.4879 20.8824 13.672 20.2206C13.3736 19.9786 13.072 19.711 12.7692 19.4199C12.4665 19.711 12.1648 19.9786 11.8665 20.2206C11.0506 20.8824 10.2357 21.3727 9.47051 21.6198C8.70535 21.8668 7.92867 21.8874 7.26923 21.5075C6.60979 21.1275 6.23936 20.4459 6.07116 19.661C5.90293 18.8761 5.92098 17.9267 6.0873 16.8906C6.14813 16.5117 6.22944 16.1172 6.33066 15.71C5.92671 15.5939 5.54373 15.4669 5.18452 15.33C4.20232 14.9557 3.36944 14.4966 2.77243 13.9588C2.17548 13.4209 1.76923 12.76 1.76923 12C1.76923 11.2401 2.17548 10.5791 2.77243 10.0413C3.36944 9.50341 4.20232 9.0443 5.18452 8.67001C5.54373 8.53313 5.92671 8.40617 6.33066 8.29005C6.22944 7.88286 6.14812 7.48836 6.0873 7.10945C5.92097 6.07337 5.90293 5.12394 6.07115 4.33901C6.23936 3.55415 6.60978 2.87253 7.26922 2.49255C7.92866 2.11258 8.70534 2.13322 9.4705 2.38027C10.2357 2.62734 11.0506 3.11765 11.8664 3.77944ZM18.3875 4.56952C18.2577 3.96415 18.0117 3.61672 17.7171 3.44699C17.4225 3.27726 16.998 3.2383 16.4078 3.42885C15.8177 3.61937 15.1231 4.02256 14.3685 4.63468C14.0962 4.8555 13.8192 5.10103 13.5397 5.36958C14.1433 6.02627 14.7437 6.76989 15.3233 7.58502C16.3204 7.67841 17.2658 7.8255 18.1375 8.01884C18.2307 7.64298 18.3053 7.2808 18.3608 6.9351C18.5146 5.97678 18.5172 5.17481 18.3875 4.56952ZM11.17 4.63469C11.4422 4.85551 11.7192 5.10103 11.9987 5.36958C11.3951 6.02627 10.7948 6.76989 10.2152 7.58502C9.21805 7.67841 8.27261 7.8255 7.40098 8.01884C7.30771 7.64298 7.23316 7.2808 7.17766 6.9351C7.02382 5.97678 7.02127 5.17481 7.151 4.56952C7.28074 3.96415 7.5268 3.61672 7.82136 3.44699C8.11592 3.27726 8.54043 3.2383 9.1306 3.42885C9.7207 3.61938 10.4153 4.02256 11.17 4.63469ZM16.1278 8.78464C16.7257 8.86384 17.2968 8.96343 17.8353 9.08091C17.668 9.60503 17.4689 10.1484 17.2386 10.7048C17.0684 10.3817 16.8895 10.0577 16.7021 9.73384C16.5148 9.40997 16.3231 9.09334 16.1278 8.78464ZM18.908 9.35075C18.6399 10.2008 18.2948 11.0915 17.8773 12C18.2948 12.9085 18.6399 13.7992 18.908 14.6493C19.2808 14.542 19.6323 14.4253 19.96 14.3004C20.8685 13.9542 21.5657 13.5555 22.0261 13.1407C22.4865 12.7259 22.665 12.3395 22.665 12C22.665 11.6606 22.4865 11.2742 22.0261 10.8593C21.5657 10.4446 20.8685 10.0458 19.96 9.69961C19.6323 9.57472 19.2808 9.45807 18.908 9.35075ZM15.7458 10.2849C16.0788 10.8605 16.3827 11.4342 16.6567 12C16.3827 12.5658 16.0788 13.1395 15.7458 13.7151C15.4128 14.2908 15.0669 14.8403 14.713 15.3601C14.085 15.4061 13.4352 15.4303 12.7692 15.4303C12.1032 15.4303 11.4534 15.4061 10.8255 15.3601C10.4716 14.8403 10.1256 14.2908 9.79265 13.7151C9.45966 13.1395 9.15577 12.5658 8.8817 12C9.15577 11.4342 9.45966 10.8605 9.79265 10.2849C10.1256 9.70927 10.4716 9.15974 10.8255 8.63998C11.4534 8.59397 12.1032 8.56976 12.7692 8.56976C13.4352 8.56976 14.085 8.59397 14.713 8.63998C15.0669 9.15974 15.4128 9.70927 15.7458 10.2849ZM16.7021 14.2662C16.5148 14.5901 16.3231 14.9067 16.1278 15.2154C16.7257 15.1362 17.2968 15.0366 17.8353 14.9191C17.668 14.395 17.4689 13.8516 17.2386 13.2952C17.0684 13.6183 16.8895 13.9423 16.7021 14.2662ZM12.7692 16.5324C13.1439 16.5324 13.5145 16.525 13.88 16.5106C13.5124 16.9878 13.1404 17.4316 12.7692 17.8382C12.3981 17.4316 12.0261 16.9878 11.6584 16.5106C12.0239 16.525 12.3945 16.5324 12.7692 16.5324ZM15.3233 16.415C14.7437 17.2301 14.1433 17.9738 13.5397 18.6305C13.8192 18.899 14.0962 19.1445 14.3685 19.3653C15.1231 19.9775 15.8177 20.3807 16.4078 20.5712C16.998 20.7617 17.4225 20.7228 17.7171 20.553C18.0117 20.3833 18.2577 20.0359 18.3874 19.4305C18.5172 18.8252 18.5146 18.0232 18.3608 17.0649C18.3053 16.7192 18.2307 16.3571 18.1375 15.9812C17.2658 16.1745 16.3204 16.3216 15.3233 16.415ZM10.2152 16.415C10.7948 17.2301 11.3951 17.9738 11.9987 18.6305C11.7192 18.899 11.4422 19.1445 11.17 19.3653C10.4153 19.9775 9.72071 20.3806 9.13061 20.5712C8.54044 20.7617 8.11592 20.7228 7.82136 20.553C7.5268 20.3833 7.28074 20.0359 7.151 19.4305C7.02128 18.8252 7.02383 18.0232 7.17767 17.0649C7.23316 16.7192 7.30771 16.3571 7.40098 15.9812C8.27261 16.1745 9.21805 16.3216 10.2152 16.415ZM9.41066 15.2154C8.81272 15.1362 8.24161 15.0366 7.70317 14.9191C7.87045 14.395 8.06958 13.8516 8.29983 13.2952C8.47007 13.6183 8.64897 13.9423 8.83632 14.2662C9.02368 14.5901 9.21538 14.9067 9.41066 15.2154ZM8.83633 9.73384C8.64897 10.0577 8.47007 10.3817 8.29983 10.7048C8.06958 10.1484 7.87045 9.60503 7.70317 9.08091C8.24161 8.96343 8.81272 8.86384 9.41065 8.78464C9.21538 9.09334 9.02369 9.40996 8.83633 9.73384ZM6.63048 14.6493C6.89852 13.7992 7.24361 12.9085 7.66113 12C7.24361 11.0915 6.89852 10.2008 6.63048 9.35075C6.25769 9.45807 5.90615 9.57472 5.57842 9.69961C4.66993 10.0458 3.97275 10.4446 3.51238 10.8593C3.05195 11.2742 2.8735 11.6606 2.8735 12C2.8735 12.3395 3.05195 12.7259 3.51238 13.1407C3.97275 13.5555 4.66993 13.9542 5.57842 14.3004C5.90615 14.4253 6.25769 14.542 6.63048 14.6493ZM12.7692 7.46767C12.3945 7.46767 12.0239 7.47504 11.6584 7.48947C12.0261 7.01226 12.3981 6.56844 12.7692 6.1618C13.1404 6.56844 13.5124 7.01226 13.88 7.48947C13.5145 7.47504 13.1439 7.46767 12.7692 7.46767Z" fill="#7C7C82"/>
</svg>
