<svg width="25" height="24" viewBox="0 0 25 24" fill="none" xmlns="http://www.w3.org/2000/svg">
<path d="M12.6154 5C9.41526 5 7.41531 6.60003 6.61521 9.7998C7.81536 8.19977 9.21538 7.59998 10.8153 7.99984C11.7282 8.22798 12.3807 8.89051 13.103 9.62359C14.2795 10.8178 15.6411 12.1999 18.6155 12.1999C21.8153 12.1999 23.8156 10.5998 24.6154 7.39975C23.4155 8.99978 22.0155 9.59987 20.4153 9.20001C19.5026 8.97187 18.8502 8.30934 18.1278 7.57626C16.9514 6.38209 15.5895 5 12.6154 5ZM6.61521 12.1999C3.41541 12.1999 1.41516 13.7999 0.615356 17C1.81521 15.3999 3.21523 14.7998 4.81543 15.2C5.72807 15.4284 6.38052 16.0907 7.10289 16.8234C8.27933 18.0176 9.64124 19.4 12.6154 19.4C15.8155 19.4 17.8154 17.8 18.6155 14.5999C17.4154 16.1999 16.0153 16.8 14.4154 16.3999C13.5025 16.172 12.85 15.5092 12.1277 14.7764C10.9512 13.5822 9.58962 12.1999 6.61521 12.1999Z" fill="#7C7C82"/>
</svg>
