<svg width="25" height="24" viewBox="0 0 25 24" fill="none" xmlns="http://www.w3.org/2000/svg">
<path fill-rule="evenodd" clip-rule="evenodd" d="M2.46149 2H22.4615V22H2.46149V2ZM14.7867 19.8383V17.8597L14.7896 17.8612C15.1466 18.1615 15.5332 18.3872 15.9507 18.5381C16.3682 18.689 16.7899 18.7637 17.2158 18.7637C17.4647 18.7637 17.6825 18.7412 17.8695 18.696C18.0551 18.6509 18.2111 18.5874 18.3362 18.5071C18.4613 18.4267 18.5555 18.3308 18.6159 18.2222C18.6764 18.1136 18.7073 17.9951 18.7073 17.8668C18.7073 17.6933 18.6581 17.5382 18.5597 17.4028C18.4613 17.2674 18.3264 17.1419 18.1577 17.0263C17.989 16.9106 17.7866 16.7992 17.5532 16.6921C17.3185 16.5849 17.0668 16.4763 16.7969 16.3649C16.1081 16.0758 15.595 15.7232 15.2577 15.3072C14.9189 14.8912 14.7502 14.3891 14.7502 13.7996C14.7502 13.3371 14.843 12.9408 15.0271 12.6094C15.2113 12.2779 15.4615 12.0044 15.7792 11.79C16.0955 11.5756 16.4638 11.4191 16.8813 11.3176C17.2988 11.2174 17.75 11.1667 18.2083 11.1667C18.6665 11.1667 19.0728 11.1935 19.427 11.2499C19.7813 11.3063 20.1074 11.3909 20.4068 11.5065V13.3554C20.2592 13.2524 20.099 13.1622 19.9247 13.0832C19.7504 13.0056 19.5718 12.9408 19.3877 12.8886C19.2035 12.8378 19.0208 12.7997 18.838 12.7744C18.6567 12.7504 18.4838 12.7377 18.3193 12.7377C18.0944 12.7377 17.8892 12.7588 17.705 12.8026C17.5209 12.8449 17.3648 12.9055 17.2383 12.9845C17.1104 13.0621 17.012 13.1551 16.9431 13.2651C16.8742 13.3751 16.8391 13.4978 16.8391 13.6332C16.8391 13.7813 16.8785 13.9153 16.9558 14.0323C17.0331 14.1508 17.1441 14.2608 17.2875 14.3665C17.4309 14.4709 17.6038 14.5738 17.8091 14.6754C18.0143 14.7755 18.2448 14.8799 18.5035 14.9871C18.8549 15.1351 19.1712 15.2931 19.4523 15.4595C19.7321 15.6259 19.9725 15.8149 20.1735 16.025C20.3745 16.2351 20.5277 16.4763 20.6346 16.7456C20.7414 17.015 20.7948 17.3295 20.7948 17.6877C20.7948 18.1827 20.7006 18.5973 20.5151 18.9329C20.3281 19.27 20.0751 19.5408 19.756 19.7495C19.4369 19.9582 19.0658 20.1077 18.6412 20.1979C18.2167 20.2882 17.7823 20.3333 17.2988 20.3333C16.8152 20.3333 16.3555 20.291 15.9198 20.2092C15.484 20.126 15.1058 20.0033 14.7867 19.8383ZM14.0473 12.9365H11.4749V20.1923H9.43797V12.9365H6.87814V11.3077H14.0473V12.9365Z" fill="#7C7C82"/>
</svg>
