<svg width="25" height="24" viewBox="0 0 25 24" fill="none" xmlns="http://www.w3.org/2000/svg">
<path fill-rule="evenodd" clip-rule="evenodd" d="M2.46143 2H22.4614V22H2.46143V2ZM14.7867 19.8383V17.8597L14.7895 17.8612C15.1466 18.1615 15.5331 18.3872 15.9506 18.5381C16.3681 18.689 16.7898 18.7637 17.2158 18.7637C17.4646 18.7637 17.6825 18.7412 17.8694 18.696C18.055 18.6509 18.211 18.5874 18.3361 18.5071C18.4612 18.4267 18.5554 18.3308 18.6159 18.2222C18.6763 18.1136 18.7073 17.9951 18.7073 17.8668C18.7073 17.6933 18.658 17.5382 18.5596 17.4028C18.4612 17.2674 18.3263 17.1419 18.1576 17.0263C17.9889 16.9106 17.7865 16.7992 17.5532 16.6921C17.3184 16.5849 17.0668 16.4763 16.7969 16.3649C16.1081 16.0758 15.595 15.7232 15.2576 15.3072C14.9188 14.8912 14.7501 14.3891 14.7501 13.7996C14.7501 13.3371 14.8429 12.9408 15.0271 12.6094C15.2112 12.2779 15.4614 12.0044 15.7791 11.79C16.0954 11.5756 16.4637 11.4191 16.8812 11.3176C17.2987 11.2174 17.75 11.1667 18.2082 11.1667C18.6665 11.1667 19.0727 11.1935 19.427 11.2499C19.7812 11.3063 20.1073 11.3909 20.4068 11.5065V13.3554C20.2592 13.2524 20.0989 13.1622 19.9246 13.0832C19.7503 13.0056 19.5718 12.9408 19.3876 12.8886C19.2035 12.8378 19.0207 12.7997 18.838 12.7744C18.6566 12.7504 18.4837 12.7377 18.3193 12.7377C18.0944 12.7377 17.8891 12.7588 17.705 12.8026C17.5208 12.8449 17.3648 12.9055 17.2383 12.9845C17.1103 13.0621 17.0119 13.1551 16.9431 13.2651C16.8742 13.3751 16.839 13.4978 16.839 13.6332C16.839 13.7813 16.8784 13.9153 16.9557 14.0323C17.033 14.1508 17.1441 14.2608 17.2875 14.3665C17.4309 14.4709 17.6038 14.5738 17.809 14.6754C18.0142 14.7755 18.2448 14.8799 18.5034 14.9871C18.8549 15.1351 19.1711 15.2931 19.4523 15.4595C19.732 15.6259 19.9724 15.8149 20.1734 16.025C20.3744 16.2351 20.5277 16.4763 20.6345 16.7456C20.7413 17.015 20.7947 17.3295 20.7947 17.6877C20.7947 18.1827 20.7006 18.5973 20.515 18.9329C20.328 19.27 20.075 19.5408 19.7559 19.7495C19.4368 19.9582 19.0657 20.1077 18.6412 20.1979C18.2167 20.2882 17.7823 20.3333 17.2987 20.3333C16.8151 20.3333 16.3555 20.291 15.9197 20.2092C15.4839 20.126 15.1058 20.0033 14.7867 19.8383ZM14.0473 12.9365H11.4748V20.1923H9.43791V12.9365H6.87808V11.3077H14.0473V12.9365Z" fill="#52525B" fill-opacity="0.5"/>
</svg>
