<svg xmlns="http://www.w3.org/2000/svg" width="200" height="200" fill="none" viewBox="0 0 200 200" version="1.1" xmlns:xlink="http://www.w3.org/1999/xlink" xmlns:svgjs="http://svgjs.dev/svgjs"><path fill="rgba(39, 39, 42, 1)" d="M100.254 200c-3.154 0-5.82-2.284-6.584-5.344-2.435-9.753-7.096-20.125-13.983-31.114-8.16-13.195-19.791-25.434-34.895-36.719-13.137-9.929-26.274-16.7-39.41-20.312C2.27 105.656 0 102.897 0 99.671c0-3.164 2.183-5.892 5.225-6.76C18.105 89.234 30.512 83.263 42.448 75c13.715-9.549 25.173-21.007 34.375-34.375 8.14-11.909 13.728-23.686 16.763-35.333C94.382 2.241 97.068 0 100.221 0c3.188 0 5.893 2.29 6.669 5.383 1.752 6.982 4.49 14.129 8.214 21.44 4.688 9.028 10.677 17.708 17.969 26.042 7.465 8.16 15.799 15.538 25 22.135 12.024 8.523 24.247 14.511 36.671 17.964 3.048.847 5.256 3.56 5.256 6.723 0 3.211-2.275 5.947-5.371 6.796-7.875 2.159-15.981 5.641-24.316 10.444-10.07 5.903-19.445 12.934-28.126 21.094-8.68 7.986-15.798 16.406-21.354 25.26-6.9 11.012-11.566 21.464-13.996 31.358-.754 3.069-3.424 5.361-6.583 5.361Z"></path></svg>