<svg width="2672" height="150" viewBox="0 0 2672 150" fill="none" xmlns="http://www.w3.org/2000/svg">
<path d="M47.9928 60.528L28.0795 67.0134L23.9964 46.8L19.9134 67.0134L0 60.528L15.5718 74.751L0 88.7244L20.168 81.987L23.9964 103.2L27.8247 81.987L47.9928 88.7244L32.421 74.751L47.9928 60.528Z" fill="#C1CCA4"/>
<path d="M111.037 4.0268L111.654 0.449951H155.896L155.279 4.0268H135.085L125.219 63.5999H121.365L131.231 4.0268H111.037ZM141.846 63.5999H137.776L171.042 0.449951H175.482L187.783 63.5999H183.714L172.645 5.41438H172.306L141.846 63.5999ZM151.588 39.8262H181.925L181.309 43.403H150.972L151.588 39.8262ZM188.833 63.5999L189.418 60.4241L234.708 4.0268H198.822L199.377 0.449951H240.011L239.579 3.62595L194.135 60.0233H230.454L229.837 63.5999H188.833ZM237.122 63.5999L247.604 0.449951H251.458L245.384 37.1127H245.785L285.187 0.449951H290.304L257.963 30.3291L279.575 63.5999H274.765L255.034 33.1042L244.429 43.033L240.976 63.5999H237.122ZM298.175 0.449951L287.692 63.5999H283.839L294.321 0.449951H298.175ZM302.238 0.449951H306.647L321.476 30.9149H321.969L346.911 0.449951H351.567L323.079 34.9543L318.362 63.5999H314.478L319.225 34.9543L302.238 0.449951ZM336.26 63.5999H332.191L365.457 0.449951H369.896L382.197 63.5999H378.128L367.06 5.41438H366.721L336.26 63.5999ZM346.003 39.8262H376.34L375.723 43.403H345.386L346.003 39.8262ZM115.539 148.8L108.509 85.6499H118.529L122.722 134.554H123.308L144.211 85.6499H154.138L158.824 134.585H159.441L179.789 85.6499H189.84L161.815 148.8H152.227L146.832 101.499H146.338L125.158 148.8H115.539ZM237.104 117.842C235.994 124.481 233.836 130.175 230.63 134.924C227.443 139.673 223.539 143.321 218.914 145.871C214.31 148.399 209.336 149.663 203.992 149.663C198.422 149.663 193.664 148.337 189.717 145.685C185.792 143.014 182.976 139.22 181.27 134.308C179.564 129.374 179.277 123.495 180.407 116.67C181.517 110.03 183.664 104.336 186.85 99.5873C190.057 94.8179 193.972 91.1591 198.597 88.6104C203.242 86.061 208.257 84.7866 213.642 84.7866C219.171 84.7866 223.888 86.1227 227.793 88.7952C231.719 91.4472 234.535 95.2499 236.24 100.204C237.947 105.137 238.235 111.017 237.104 117.842ZM227.824 116.67C228.667 111.634 228.564 107.399 227.515 103.966C226.488 100.513 224.731 97.9019 222.243 96.1338C219.757 94.3661 216.756 93.4817 213.241 93.4817C209.501 93.4817 205.996 94.4274 202.728 96.3186C199.48 98.2104 196.706 100.964 194.404 104.582C192.102 108.2 190.53 112.621 189.687 117.842C188.824 122.878 188.916 127.113 189.964 130.546C191.013 133.979 192.78 136.579 195.267 138.347C197.775 140.094 200.786 140.968 204.301 140.968C208.021 140.968 211.504 140.033 214.752 138.162C218.02 136.271 220.805 133.526 223.107 129.929C225.409 126.311 226.981 121.891 227.824 116.67ZM236.033 148.8L246.516 85.6499H269.022C273.914 85.6499 277.829 86.493 280.769 88.1784C283.728 89.8433 285.763 92.1665 286.873 95.1473C288.004 98.1071 288.25 101.54 287.613 105.446C286.955 109.31 285.568 112.703 283.451 115.622C281.354 118.541 278.549 120.823 275.034 122.467C271.54 124.091 267.347 124.903 262.455 124.903H245.406L246.824 116.701H263.01C266.114 116.701 268.703 116.259 270.78 115.375C272.855 114.491 274.479 113.206 275.651 111.521C276.843 109.835 277.624 107.81 277.994 105.446C278.384 103.041 278.271 100.975 277.655 99.2483C277.038 97.5011 275.836 96.1649 274.047 95.2397C272.26 94.2941 269.803 93.8214 266.679 93.8214H254.717L245.56 148.8H236.033ZM271.92 120.308L282.803 148.8H271.951L261.345 120.308H271.92ZM284.446 148.8L294.928 85.6499H304.455L299.491 115.807H300.262L331.709 85.6499H343.702L313.581 114.08L333.313 148.8H321.843L306.182 120.586L297.302 129.189L293.973 148.8H284.446ZM376.214 102.609C376.235 99.5051 375.228 97.1309 373.193 95.4863C371.178 93.8417 368.363 93.0197 364.745 93.0197C362.156 93.0197 359.843 93.4307 357.809 94.2527C355.794 95.0543 354.15 96.1649 352.876 97.5834C351.622 98.9808 350.851 100.574 350.563 102.362C350.296 103.863 350.43 105.158 350.964 106.248C351.519 107.337 352.31 108.252 353.338 108.992C354.386 109.712 355.537 110.318 356.791 110.812C358.045 111.284 359.257 111.675 360.429 111.983L366.348 113.587C368.26 114.08 370.202 114.748 372.175 115.591C374.148 116.434 375.927 117.544 377.509 118.921C379.092 120.298 380.273 122.005 381.055 124.04C381.836 126.074 381.99 128.51 381.517 131.347C380.9 134.924 379.451 138.1 377.17 140.875C374.888 143.651 371.877 145.84 368.137 147.443C364.396 149.047 360.059 149.848 355.126 149.848C350.399 149.848 346.422 149.098 343.195 147.598C339.988 146.097 337.635 143.969 336.134 141.215C334.634 138.439 334.1 135.151 334.532 131.347H344.12C343.894 133.629 344.305 135.53 345.353 137.052C346.422 138.553 347.922 139.673 349.854 140.413C351.786 141.133 353.975 141.492 356.421 141.492C359.134 141.492 361.611 141.071 363.851 140.228C366.092 139.364 367.941 138.172 369.401 136.651C370.86 135.109 371.754 133.31 372.083 131.255C372.412 129.384 372.145 127.853 371.281 126.661C370.439 125.468 369.164 124.481 367.458 123.7C365.773 122.919 363.851 122.231 361.693 121.634L354.571 119.599C349.741 118.222 346.083 116.197 343.596 113.525C341.108 110.852 340.214 107.317 340.913 102.917C341.53 99.2789 343.051 96.1031 345.476 93.3893C347.902 90.6761 350.923 88.5689 354.54 87.0683C358.158 85.5473 362.084 84.7866 366.318 84.7866C370.593 84.7866 374.231 85.5473 377.231 87.0683C380.232 88.5893 382.452 90.6863 383.891 93.3587C385.33 96.0312 385.833 99.1145 385.402 102.609H376.214ZM388.309 149.386C386.582 149.386 385.144 148.79 383.992 147.598C382.862 146.405 382.307 144.946 382.328 143.219C382.348 141.512 382.985 140.084 384.239 138.933C385.513 137.761 386.993 137.175 388.678 137.175C390.364 137.175 391.803 137.771 392.995 138.964C394.187 140.156 394.742 141.574 394.659 143.219C394.598 144.37 394.269 145.418 393.673 146.364C393.098 147.289 392.337 148.029 391.392 148.584C390.446 149.119 389.419 149.386 388.309 149.386Z" fill="#C1CCA4"/>
<path d="M503.325 60.528L483.411 67.0134L479.328 46.8L475.245 67.0134L455.332 60.528L470.904 74.751L455.332 88.7244L475.5 81.987L479.328 103.2L483.157 81.987L503.325 88.7244L487.753 74.751L503.325 60.528Z" fill="#C1CCA4"/>
<path d="M566.369 4.0268L566.986 0.449951H611.224L610.613 4.0268H590.417L580.551 63.5999H576.697L586.563 4.0268H566.369ZM597.178 63.5999H593.108L626.372 0.449951H630.812L643.116 63.5999H639.048L627.98 5.41438H627.638L597.178 63.5999ZM606.917 39.8262H637.255L636.643 43.403H606.305L606.917 39.8262ZM644.166 63.5999L644.747 60.4241L690.041 4.0268H654.154L654.706 0.449951H695.344L694.912 3.62595L649.469 60.0233H685.787L685.169 63.5999H644.166ZM692.452 63.5999L702.939 0.449951H706.79L700.719 37.1127H701.115L740.517 0.449951H745.634L713.293 30.3291L734.908 63.5999H730.097L710.366 33.1042L699.759 43.033L696.31 63.5999H692.452ZM753.505 0.449951L743.025 63.5999H739.173L749.654 0.449951H753.505ZM757.567 0.449951H761.976L776.806 30.9149H777.304L802.242 0.449951H806.897L778.414 34.9543L773.692 63.5999H769.811L774.556 34.9543L757.567 0.449951ZM791.594 63.5999H787.52L820.791 0.449951H825.23L837.529 63.5999H833.461L822.393 5.41438H822.051L791.594 63.5999ZM801.336 39.8262H831.673L831.056 43.403H800.718L801.336 39.8262ZM570.87 148.8L563.841 85.6499H573.861L578.054 134.554H578.64L599.542 85.6499H609.473L614.158 134.585H614.77L635.119 85.6499H645.173L617.146 148.8H607.559L602.166 101.499H601.668L580.489 148.8H570.87ZM692.434 117.842C691.325 124.481 689.171 130.175 685.961 134.924C682.776 139.673 678.87 143.321 674.245 145.871C669.644 148.399 664.665 149.663 659.325 149.663C653.752 149.663 648.995 148.337 645.047 145.685C641.124 143.014 638.31 139.22 636.601 134.308C634.897 129.374 634.609 123.495 635.737 116.67C636.847 110.03 638.994 104.336 642.18 99.5873C645.389 94.8179 649.307 91.1591 653.926 88.6104C658.575 86.061 663.591 84.7866 668.972 84.7866C674.503 84.7866 679.218 86.1227 683.124 88.7952C687.053 91.4472 689.867 95.2499 691.571 100.204C693.28 105.137 693.568 111.017 692.434 117.842ZM683.154 116.67C684 111.634 683.898 107.399 682.848 103.966C681.822 100.513 680.064 97.9019 677.575 96.1338C675.091 94.3661 672.085 93.4817 668.576 93.4817C664.832 93.4817 661.329 94.4274 658.06 96.3186C654.814 98.2104 652.036 100.964 649.733 104.582C647.435 108.2 645.863 112.621 645.017 117.842C644.154 122.878 644.25 127.113 645.293 130.546C646.343 133.979 648.113 136.579 650.597 138.347C653.104 140.094 656.116 140.968 659.631 140.968C663.351 140.968 666.836 140.033 670.082 138.162C673.351 136.271 676.135 133.526 678.438 129.929C680.742 126.311 682.314 121.891 683.154 116.67ZM691.366 148.8L701.847 85.6499H724.356C729.245 85.6499 733.162 86.493 736.102 88.1784C739.059 89.8433 741.093 92.1665 742.203 95.1473C743.337 98.1071 743.583 101.54 742.947 105.446C742.287 109.31 740.901 112.703 738.783 115.622C736.684 118.541 733.882 120.823 730.367 122.467C726.869 124.091 722.676 124.903 717.787 124.903H700.737L702.153 116.701H718.344C721.446 116.701 724.038 116.259 726.113 115.375C728.189 114.491 729.809 113.206 730.985 111.521C732.172 109.835 732.958 107.81 733.324 105.446C733.714 103.041 733.6 100.975 732.988 99.2483C732.37 97.5011 731.165 96.1649 729.377 95.2397C727.589 94.2941 725.135 93.8214 722.01 93.8214H710.048L700.893 148.8H691.366ZM727.253 120.308L738.136 148.8H727.283L716.677 120.308H727.253ZM739.779 148.8L750.26 85.6499H759.786L754.825 115.807H755.593L787.04 85.6499H799.032L768.911 114.08L788.642 148.8H777.178L761.514 120.586L752.635 129.189L749.306 148.8H739.779ZM831.548 102.609C831.566 99.5051 830.558 97.1309 828.524 95.4863C826.508 93.8417 823.695 93.0197 820.077 93.0197C817.486 93.0197 815.176 93.4307 813.142 94.2527C811.127 95.0543 809.483 96.1649 808.205 97.5834C806.951 98.9808 806.183 100.574 805.895 102.362C805.625 103.863 805.763 105.158 806.297 106.248C806.849 107.337 807.641 108.252 808.667 108.992C809.717 109.712 810.869 110.318 812.122 110.812C813.376 111.284 814.588 111.675 815.758 111.983L821.679 113.587C823.593 114.08 825.536 114.748 827.51 115.591C829.478 116.434 831.26 117.544 832.843 118.921C834.421 120.298 835.603 122.005 836.389 124.04C837.169 126.074 837.325 128.51 836.851 131.347C836.233 134.924 834.781 138.1 832.501 140.875C830.222 143.651 827.21 145.84 823.467 147.443C819.729 149.047 815.392 149.848 810.455 149.848C805.727 149.848 801.756 149.098 798.528 147.598C795.319 146.097 792.967 143.969 791.468 141.215C789.968 138.439 789.434 135.151 789.866 131.347H799.452C799.224 133.629 799.638 135.53 800.682 137.052C801.756 138.553 803.256 139.673 805.188 140.413C807.119 141.133 809.309 141.492 811.75 141.492C814.468 141.492 816.946 141.071 819.183 140.228C821.421 139.364 823.275 138.172 824.733 136.651C826.19 135.109 827.084 133.31 827.414 131.255C827.744 129.384 827.474 127.853 826.61 126.661C825.77 125.468 824.499 124.481 822.789 123.7C821.103 122.919 819.183 122.231 817.024 121.634L809.903 119.599C805.074 118.222 801.414 116.197 798.924 113.525C796.441 110.852 795.547 107.317 796.243 102.917C796.861 99.2789 798.384 96.1031 800.808 93.3893C803.232 90.6761 806.255 88.5689 809.873 87.0683C813.49 85.5473 817.414 84.7866 821.649 84.7866C825.926 84.7866 829.562 85.5473 832.561 87.0683C835.561 88.5893 837.787 90.6863 839.22 93.3587C840.66 96.0312 841.164 99.1145 840.732 102.609H831.548ZM843.642 149.386C841.914 149.386 840.474 148.79 839.322 147.598C838.195 146.405 837.637 144.946 837.661 143.219C837.679 141.512 838.315 140.084 839.568 138.933C840.846 137.761 842.328 137.175 844.008 137.175C845.693 137.175 847.133 137.771 848.327 138.964C849.521 140.156 850.073 141.574 849.989 143.219C849.929 144.37 849.599 145.418 849.005 146.364C848.429 147.289 847.667 148.029 846.725 148.584C845.777 149.119 844.752 149.386 843.642 149.386Z" fill="#C1CCA4"/>
<path d="M958.656 60.528L938.746 67.0134L934.66 46.8L930.575 67.0134L910.664 60.528L926.237 74.751L910.664 88.7244L930.833 81.987L934.66 103.2L938.488 81.987L958.656 88.7244L943.083 74.751L958.656 60.528Z" fill="#C1CCA4"/>
<path d="M1021.7 4.0268L1022.32 0.449951H1066.56L1065.94 4.0268H1045.75L1035.88 63.5999H1032.03L1041.89 4.0268H1021.7ZM1052.51 63.5999H1048.44L1081.7 0.449951H1086.14L1098.45 63.5999H1094.38L1083.31 5.41438H1082.97L1052.51 63.5999ZM1062.25 39.8262H1092.59L1091.97 43.403H1061.64L1062.25 39.8262ZM1099.5 63.5999L1100.08 60.4241L1145.37 4.0268H1109.49L1110.04 0.449951H1150.68L1150.24 3.62595L1104.8 60.0233H1141.12L1140.5 63.5999H1099.5ZM1147.78 63.5999L1158.27 0.449951H1162.12L1156.05 37.1127H1156.45L1195.85 0.449951H1200.97L1168.63 30.3291L1190.24 63.5999H1185.43L1165.7 33.1042L1155.09 43.033L1151.64 63.5999H1147.78ZM1208.84 0.449951L1198.36 63.5999H1194.51L1204.99 0.449951H1208.84ZM1212.9 0.449951H1217.31L1232.14 30.9149H1232.64L1257.57 0.449951H1262.23L1233.75 34.9543L1229.02 63.5999H1225.14L1229.89 34.9543L1212.9 0.449951ZM1246.93 63.5999H1242.85L1276.12 0.449951H1280.56L1292.86 63.5999H1288.79L1277.72 5.41438H1277.38L1246.93 63.5999ZM1256.67 39.8262H1287.01L1286.39 43.403H1256.05L1256.67 39.8262ZM1026.2 148.8L1019.18 85.6499H1029.19L1033.39 134.554H1033.97L1054.88 85.6499H1064.8L1069.49 134.585H1070.1L1090.45 85.6499H1100.51L1072.48 148.8H1062.89L1057.5 101.499H1057L1035.82 148.8H1026.2ZM1147.77 117.842C1146.66 124.481 1144.5 130.175 1141.29 134.924C1138.11 139.673 1134.2 143.321 1129.58 145.871C1124.98 148.399 1120 149.663 1114.66 149.663C1109.08 149.663 1104.33 148.337 1100.38 145.685C1096.46 143.014 1093.64 139.22 1091.93 134.308C1090.23 129.374 1089.94 123.495 1091.07 116.67C1092.18 110.03 1094.33 104.336 1097.51 99.5873C1100.72 94.8179 1104.64 91.1591 1109.26 88.6104C1113.91 86.061 1118.92 84.7866 1124.3 84.7866C1129.83 84.7866 1134.55 86.1227 1138.46 88.7952C1142.38 91.4472 1145.2 95.2499 1146.9 100.204C1148.61 105.137 1148.9 111.017 1147.77 117.842ZM1138.49 116.67C1139.33 111.634 1139.23 107.399 1138.18 103.966C1137.15 100.513 1135.4 97.9019 1132.91 96.1338C1130.42 94.3661 1127.42 93.4817 1123.91 93.4817C1120.16 93.4817 1116.66 94.4274 1113.39 96.3186C1110.15 98.2104 1107.37 100.964 1105.06 104.582C1102.77 108.2 1101.2 112.621 1100.35 117.842C1099.49 122.878 1099.58 127.113 1100.63 130.546C1101.68 133.979 1103.44 136.579 1105.93 138.347C1108.44 140.094 1111.45 140.968 1114.96 140.968C1118.68 140.968 1122.17 140.033 1125.41 138.162C1128.68 136.271 1131.47 133.526 1133.77 129.929C1136.07 126.311 1137.65 121.891 1138.49 116.67ZM1146.7 148.8L1157.18 85.6499H1179.69C1184.58 85.6499 1188.49 86.493 1191.43 88.1784C1194.39 89.8433 1196.42 92.1665 1197.53 95.1473C1198.67 98.1071 1198.91 101.54 1198.28 105.446C1197.62 109.31 1196.23 112.703 1194.12 115.622C1192.02 118.541 1189.21 120.823 1185.7 122.467C1182.2 124.091 1178.01 124.903 1173.12 124.903H1156.07L1157.48 116.701H1173.68C1176.78 116.701 1179.37 116.259 1181.45 115.375C1183.52 114.491 1185.14 113.206 1186.32 111.521C1187.5 109.835 1188.29 107.81 1188.66 105.446C1189.05 103.041 1188.93 100.975 1188.32 99.2483C1187.7 97.5011 1186.5 96.1649 1184.71 95.2397C1182.92 94.2941 1180.47 93.8214 1177.34 93.8214H1165.38L1156.22 148.8H1146.7ZM1182.58 120.308L1193.47 148.8H1182.61L1172.01 120.308H1182.58ZM1195.11 148.8L1205.59 85.6499H1215.12L1210.16 115.807H1210.92L1242.37 85.6499H1254.36L1224.24 114.08L1243.97 148.8H1232.51L1216.85 120.586L1207.97 129.189L1204.64 148.8H1195.11ZM1286.88 102.609C1286.9 99.5051 1285.89 97.1309 1283.86 95.4863C1281.84 93.8417 1279.03 93.0197 1275.41 93.0197C1272.82 93.0197 1270.51 93.4307 1268.47 94.2527C1266.46 95.0543 1264.81 96.1649 1263.54 97.5834C1262.28 98.9808 1261.52 100.574 1261.23 102.362C1260.96 103.863 1261.1 105.158 1261.63 106.248C1262.18 107.337 1262.97 108.252 1264 108.992C1265.05 109.712 1266.2 110.318 1267.45 110.812C1268.71 111.284 1269.92 111.675 1271.09 111.983L1277.01 113.587C1278.92 114.08 1280.87 114.748 1282.84 115.591C1284.81 116.434 1286.59 117.544 1288.18 118.921C1289.75 120.298 1290.93 122.005 1291.72 124.04C1292.5 126.074 1292.66 128.51 1292.18 131.347C1291.56 134.924 1290.11 138.1 1287.83 140.875C1285.55 143.651 1282.54 145.84 1278.8 147.443C1275.06 149.047 1270.72 149.848 1265.79 149.848C1261.06 149.848 1257.09 149.098 1253.86 147.598C1250.65 146.097 1248.3 143.969 1246.8 141.215C1245.3 138.439 1244.77 135.151 1245.2 131.347H1254.78C1254.56 133.629 1254.97 135.53 1256.01 137.052C1257.09 138.553 1258.59 139.673 1260.52 140.413C1262.45 141.133 1264.64 141.492 1267.08 141.492C1269.8 141.492 1272.28 141.071 1274.52 140.228C1276.75 139.364 1278.61 138.172 1280.06 136.651C1281.52 135.109 1282.42 133.31 1282.75 131.255C1283.08 129.384 1282.81 127.853 1281.94 126.661C1281.1 125.468 1279.83 124.481 1278.12 123.7C1276.43 122.919 1274.52 122.231 1272.36 121.634L1265.23 119.599C1260.41 118.222 1256.75 116.197 1254.26 113.525C1251.77 110.852 1250.88 107.317 1251.57 102.917C1252.19 99.2789 1253.72 96.1031 1256.14 93.3893C1258.56 90.6761 1261.59 88.5689 1265.2 87.0683C1268.82 85.5473 1272.75 84.7866 1276.98 84.7866C1281.26 84.7866 1284.89 85.5473 1287.89 87.0683C1290.89 88.5893 1293.12 90.6863 1294.55 93.3587C1295.99 96.0312 1296.5 99.1145 1296.06 102.609H1286.88ZM1298.97 149.386C1297.25 149.386 1295.81 148.79 1294.65 147.598C1293.53 146.405 1292.97 144.946 1292.99 143.219C1293.01 141.512 1293.65 140.084 1294.9 138.933C1296.18 137.761 1297.66 137.175 1299.34 137.175C1301.03 137.175 1302.47 137.771 1303.66 138.964C1304.85 140.156 1305.4 141.574 1305.32 143.219C1305.26 144.37 1304.93 145.418 1304.34 146.364C1303.76 147.289 1303 148.029 1302.06 148.584C1301.11 149.119 1300.08 149.386 1298.97 149.386Z" fill="#C1CCA4"/>
<path d="M1413.99 60.528L1394.08 67.0134L1389.99 46.8L1385.91 67.0134L1366 60.528L1381.57 74.751L1366 88.7244L1386.16 81.987L1389.99 103.2L1393.82 81.987L1413.99 88.7244L1398.41 74.751L1413.99 60.528Z" fill="#C1CCA4"/>
<path d="M1477.03 4.0268L1477.65 0.449951H1521.89L1521.28 4.0268H1501.08L1491.21 63.5999H1487.36L1497.23 4.0268H1477.03ZM1507.84 63.5999H1503.77L1537.04 0.449951H1541.48L1553.78 63.5999H1549.71L1538.64 5.41438H1538.3L1507.84 63.5999ZM1517.58 39.8262H1547.92L1547.31 43.403H1516.97L1517.58 39.8262ZM1554.83 63.5999L1555.41 60.4241L1600.7 4.0268H1564.82L1565.37 0.449951H1606.01L1605.58 3.62595L1560.13 60.0233H1596.45L1595.83 63.5999H1554.83ZM1603.12 63.5999L1613.6 0.449951H1617.45L1611.38 37.1127H1611.78L1651.18 0.449951H1656.3L1623.96 30.3291L1645.57 63.5999H1640.76L1621.03 33.1042L1610.42 43.033L1606.97 63.5999H1603.12ZM1664.17 0.449951L1653.69 63.5999H1649.84L1660.32 0.449951H1664.17ZM1668.23 0.449951H1672.64L1687.47 30.9149H1687.97L1712.91 0.449951H1717.56L1689.08 34.9543L1684.36 63.5999H1680.47L1685.22 34.9543L1668.23 0.449951ZM1702.26 63.5999H1698.18L1731.45 0.449951H1735.89L1748.19 63.5999H1744.12L1733.06 5.41438H1732.71L1702.26 63.5999ZM1712 39.8262H1742.34L1741.72 43.403H1711.38L1712 39.8262ZM1481.53 148.8L1474.51 85.6499H1484.53L1488.72 134.554H1489.3L1510.21 85.6499H1520.14L1524.82 134.585H1525.43L1545.78 85.6499H1555.84L1527.81 148.8H1518.22L1512.83 101.499H1512.33L1491.15 148.8H1481.53ZM1603.1 117.842C1601.99 124.481 1599.83 130.175 1596.62 134.924C1593.44 139.673 1589.53 143.321 1584.91 145.871C1580.31 148.399 1575.33 149.663 1569.99 149.663C1564.42 149.663 1559.66 148.337 1555.71 145.685C1551.79 143.014 1548.97 139.22 1547.26 134.308C1545.56 129.374 1545.27 123.495 1546.4 116.67C1547.51 110.03 1549.66 104.336 1552.84 99.5873C1556.05 94.8179 1559.97 91.1591 1564.59 88.6104C1569.24 86.061 1574.25 84.7866 1579.64 84.7866C1585.17 84.7866 1589.88 86.1227 1593.79 88.7952C1597.72 91.4472 1600.53 95.2499 1602.23 100.204C1603.94 105.137 1604.23 111.017 1603.1 117.842ZM1593.82 116.67C1594.66 111.634 1594.56 107.399 1593.51 103.966C1592.49 100.513 1590.73 97.9019 1588.24 96.1338C1585.75 94.3661 1582.75 93.4817 1579.24 93.4817C1575.5 93.4817 1571.99 94.4274 1568.72 96.3186C1565.48 98.2104 1562.7 100.964 1560.4 104.582C1558.1 108.2 1556.53 112.621 1555.68 117.842C1554.82 122.878 1554.91 127.113 1555.96 130.546C1557.01 133.979 1558.78 136.579 1561.26 138.347C1563.77 140.094 1566.78 140.968 1570.29 140.968C1574.01 140.968 1577.5 140.033 1580.75 138.162C1584.01 136.271 1586.8 133.526 1589.1 129.929C1591.41 126.311 1592.98 121.891 1593.82 116.67ZM1602.03 148.8L1612.51 85.6499H1635.02C1639.91 85.6499 1643.83 86.493 1646.77 88.1784C1649.72 89.8433 1651.76 92.1665 1652.87 95.1473C1654 98.1071 1654.25 101.54 1653.61 105.446C1652.95 109.31 1651.56 112.703 1649.45 115.622C1647.35 118.541 1644.55 120.823 1641.03 122.467C1637.53 124.091 1633.34 124.903 1628.45 124.903H1611.4L1612.82 116.701H1629.01C1632.11 116.701 1634.7 116.259 1636.78 115.375C1638.85 114.491 1640.47 113.206 1641.65 111.521C1642.84 109.835 1643.62 107.81 1643.99 105.446C1644.38 103.041 1644.26 100.975 1643.65 99.2483C1643.03 97.5011 1641.83 96.1649 1640.04 95.2397C1638.25 94.2941 1635.8 93.8214 1632.67 93.8214H1620.71L1611.56 148.8H1602.03ZM1637.92 120.308L1648.8 148.8H1637.95L1627.34 120.308H1637.92ZM1650.44 148.8L1660.92 85.6499H1670.45L1665.49 115.807H1666.26L1697.7 85.6499H1709.7L1679.57 114.08L1699.31 148.8H1687.84L1672.18 120.586L1663.3 129.189L1659.97 148.8H1650.44ZM1742.21 102.609C1742.23 99.5051 1741.22 97.1309 1739.19 95.4863C1737.17 93.8417 1734.36 93.0197 1730.74 93.0197C1728.15 93.0197 1725.84 93.4307 1723.81 94.2527C1721.79 95.0543 1720.15 96.1649 1718.87 97.5834C1717.61 98.9808 1716.85 100.574 1716.56 102.362C1716.29 103.863 1716.43 105.158 1716.96 106.248C1717.51 107.337 1718.3 108.252 1719.33 108.992C1720.38 109.712 1721.53 110.318 1722.79 110.812C1724.04 111.284 1725.25 111.675 1726.42 111.983L1732.34 113.587C1734.26 114.08 1736.2 114.748 1738.17 115.591C1740.14 116.434 1741.92 117.544 1743.51 118.921C1745.08 120.298 1746.27 122.005 1747.05 124.04C1747.83 126.074 1747.99 128.51 1747.51 131.347C1746.9 134.924 1745.44 138.1 1743.16 140.875C1740.89 143.651 1737.87 145.84 1734.13 147.443C1730.39 149.047 1726.06 149.848 1721.12 149.848C1716.39 149.848 1712.42 149.098 1709.19 147.598C1705.98 146.097 1703.63 143.969 1702.13 141.215C1700.63 138.439 1700.1 135.151 1700.53 131.347H1710.12C1709.89 133.629 1710.3 135.53 1711.35 137.052C1712.42 138.553 1713.92 139.673 1715.85 140.413C1717.78 141.133 1719.97 141.492 1722.41 141.492C1725.13 141.492 1727.61 141.071 1729.85 140.228C1732.08 139.364 1733.94 138.172 1735.4 136.651C1736.85 135.109 1737.75 133.31 1738.08 131.255C1738.41 129.384 1738.14 127.853 1737.27 126.661C1736.43 125.468 1735.16 124.481 1733.45 123.7C1731.77 122.919 1729.85 122.231 1727.69 121.634L1720.57 119.599C1715.74 118.222 1712.08 116.197 1709.59 113.525C1707.1 110.852 1706.21 107.317 1706.91 102.917C1707.52 99.2789 1709.05 96.1031 1711.47 93.3893C1713.9 90.6761 1716.92 88.5689 1720.54 87.0683C1724.15 85.5473 1728.08 84.7866 1732.31 84.7866C1736.59 84.7866 1740.23 85.5473 1743.23 87.0683C1746.22 88.5893 1748.45 90.6863 1749.88 93.3587C1751.32 96.0312 1751.83 99.1145 1751.4 102.609H1742.21ZM1754.31 149.386C1752.58 149.386 1751.14 148.79 1749.99 147.598C1748.86 146.405 1748.3 144.946 1748.32 143.219C1748.34 141.512 1748.98 140.084 1750.23 138.933C1751.51 137.761 1752.99 137.175 1754.67 137.175C1756.36 137.175 1757.8 137.771 1758.99 138.964C1760.18 140.156 1760.74 141.574 1760.65 143.219C1760.59 144.37 1760.26 145.418 1759.67 146.364C1759.09 147.289 1758.33 148.029 1757.39 148.584C1756.44 149.119 1755.42 149.386 1754.31 149.386Z" fill="#C1CCA4"/>
<path d="M1869.32 60.528L1849.41 67.0134L1845.32 46.8L1841.24 67.0134L1821.33 60.528L1836.9 74.751L1821.33 88.7244L1841.5 81.987L1845.32 103.2L1849.15 81.987L1869.32 88.7244L1853.75 74.751L1869.32 60.528Z" fill="#C1CCA4"/>
<path d="M1932.36 4.0268L1932.98 0.449951H1977.22L1976.61 4.0268H1956.42L1946.55 63.5999H1942.7L1952.56 4.0268H1932.36ZM1963.17 63.5999H1959.1L1992.37 0.449951H1996.81L2009.11 63.5999H2005.04L1993.98 5.41438H1993.63L1963.17 63.5999ZM1972.91 39.8262H2003.25L2002.64 43.403H1972.3L1972.91 39.8262ZM2010.16 63.5999L2010.74 60.4241L2056.04 4.0268H2020.15L2020.7 0.449951H2061.34L2060.91 3.62595L2015.46 60.0233H2051.78L2051.17 63.5999H2010.16ZM2058.45 63.5999L2068.93 0.449951H2072.79L2066.71 37.1127H2067.11L2106.51 0.449951H2111.63L2079.29 30.3291L2100.9 63.5999H2096.09L2076.36 33.1042L2065.75 43.033L2062.31 63.5999H2058.45ZM2119.5 0.449951L2109.02 63.5999H2105.17L2115.65 0.449951H2119.5ZM2123.56 0.449951H2127.97L2142.8 30.9149H2143.3L2168.24 0.449951H2172.89L2144.41 34.9543L2139.69 63.5999H2135.81L2140.55 34.9543L2123.56 0.449951ZM2157.59 63.5999H2153.52L2186.79 0.449951H2191.23L2203.52 63.5999H2199.46L2188.39 5.41438H2188.05L2157.59 63.5999ZM2167.33 39.8262H2197.67L2197.05 43.403H2166.71L2167.33 39.8262ZM1936.86 148.8L1929.84 85.6499H1939.86L1944.05 134.554H1944.63L1965.54 85.6499H1975.47L1980.15 134.585H1980.77L2001.11 85.6499H2011.17L1983.14 148.8H1973.55L1968.16 101.499H1967.66L1946.49 148.8H1936.86ZM2058.43 117.842C2057.32 124.481 2055.17 130.175 2051.96 134.924C2048.77 139.673 2044.87 143.321 2040.24 145.871C2035.64 148.399 2030.66 149.663 2025.32 149.663C2019.75 149.663 2014.99 148.337 2011.04 145.685C2007.12 143.014 2004.31 139.22 2002.6 134.308C2000.89 129.374 2000.6 123.495 2001.73 116.67C2002.84 110.03 2004.99 104.336 2008.18 99.5873C2011.38 94.8179 2015.3 91.1591 2019.92 88.6104C2024.57 86.061 2029.59 84.7866 2034.97 84.7866C2040.5 84.7866 2045.21 86.1227 2049.12 88.7952C2053.05 91.4472 2055.86 95.2499 2057.57 100.204C2059.28 105.137 2059.56 111.017 2058.43 117.842ZM2049.15 116.67C2050 111.634 2049.89 107.399 2048.84 103.966C2047.82 100.513 2046.06 97.9019 2043.57 96.1338C2041.09 94.3661 2038.08 93.4817 2034.57 93.4817C2030.83 93.4817 2027.32 94.4274 2024.05 96.3186C2020.81 98.2104 2018.03 100.964 2015.73 104.582C2013.43 108.2 2011.86 112.621 2011.01 117.842C2010.15 122.878 2010.24 127.113 2011.29 130.546C2012.34 133.979 2014.11 136.579 2016.59 138.347C2019.1 140.094 2022.11 140.968 2025.63 140.968C2029.35 140.968 2032.83 140.033 2036.08 138.162C2039.35 136.271 2042.13 133.526 2044.43 129.929C2046.74 126.311 2048.31 121.891 2049.15 116.67ZM2057.36 148.8L2067.84 85.6499H2090.35C2095.24 85.6499 2099.16 86.493 2102.1 88.1784C2105.05 89.8433 2107.09 92.1665 2108.2 95.1473C2109.33 98.1071 2109.58 101.54 2108.94 105.446C2108.28 109.31 2106.9 112.703 2104.78 115.622C2102.68 118.541 2099.88 120.823 2096.36 122.467C2092.86 124.091 2088.67 124.903 2083.78 124.903H2066.73L2068.15 116.701H2084.34C2087.44 116.701 2090.03 116.259 2092.11 115.375C2094.18 114.491 2095.8 113.206 2096.98 111.521C2098.17 109.835 2098.95 107.81 2099.32 105.446C2099.71 103.041 2099.6 100.975 2098.98 99.2483C2098.37 97.5011 2097.16 96.1649 2095.37 95.2397C2093.58 94.2941 2091.13 93.8214 2088.01 93.8214H2076.04L2066.89 148.8H2057.36ZM2093.25 120.308L2104.13 148.8H2093.28L2082.67 120.308H2093.25ZM2105.77 148.8L2116.26 85.6499H2125.78L2120.82 115.807H2121.59L2153.04 85.6499H2165.03L2134.91 114.08L2154.64 148.8H2143.17L2127.51 120.586L2118.63 129.189L2115.3 148.8H2105.77ZM2197.54 102.609C2197.56 99.5051 2196.55 97.1309 2194.52 95.4863C2192.5 93.8417 2189.69 93.0197 2186.07 93.0197C2183.48 93.0197 2181.17 93.4307 2179.14 94.2527C2177.12 95.0543 2175.48 96.1649 2174.2 97.5834C2172.95 98.9808 2172.18 100.574 2171.89 102.362C2171.62 103.863 2171.76 105.158 2172.29 106.248C2172.84 107.337 2173.64 108.252 2174.66 108.992C2175.71 109.712 2176.86 110.318 2178.12 110.812C2179.37 111.284 2180.58 111.675 2181.75 111.983L2187.67 113.587C2189.59 114.08 2191.53 114.748 2193.51 115.591C2195.47 116.434 2197.26 117.544 2198.84 118.921C2200.42 120.298 2201.6 122.005 2202.38 124.04C2203.16 126.074 2203.32 128.51 2202.85 131.347C2202.23 134.924 2200.78 138.1 2198.5 140.875C2196.22 143.651 2193.21 145.84 2189.46 147.443C2185.72 149.047 2181.39 149.848 2176.45 149.848C2171.72 149.848 2167.75 149.098 2164.52 147.598C2161.31 146.097 2158.96 143.969 2157.46 141.215C2155.96 138.439 2155.43 135.151 2155.86 131.347H2165.45C2165.22 133.629 2165.63 135.53 2166.68 137.052C2167.75 138.553 2169.25 139.673 2171.18 140.413C2173.11 141.133 2175.3 141.492 2177.75 141.492C2180.46 141.492 2182.94 141.071 2185.18 140.228C2187.42 139.364 2189.27 138.172 2190.73 136.651C2192.19 135.109 2193.08 133.31 2193.41 131.255C2193.74 129.384 2193.47 127.853 2192.61 126.661C2191.77 125.468 2190.49 124.481 2188.78 123.7C2187.1 122.919 2185.18 122.231 2183.02 121.634L2175.9 119.599C2171.07 118.222 2167.41 116.197 2164.92 113.525C2162.44 110.852 2161.54 107.317 2162.24 102.917C2162.86 99.2789 2164.38 96.1031 2166.8 93.3893C2169.23 90.6761 2172.25 88.5689 2175.87 87.0683C2179.49 85.5473 2183.41 84.7866 2187.64 84.7866C2191.92 84.7866 2195.56 85.5473 2198.56 87.0683C2201.56 88.5893 2203.78 90.6863 2205.22 93.3587C2206.66 96.0312 2207.16 99.1145 2206.73 102.609H2197.54ZM2209.64 149.386C2207.91 149.386 2206.47 148.79 2205.32 147.598C2204.19 146.405 2203.63 144.946 2203.66 143.219C2203.67 141.512 2204.31 140.084 2205.56 138.933C2206.84 137.761 2208.32 137.175 2210 137.175C2211.69 137.175 2213.13 137.771 2214.32 138.964C2215.52 140.156 2216.07 141.574 2215.98 143.219C2215.92 144.37 2215.59 145.418 2215 146.364C2214.42 147.289 2213.66 148.029 2212.72 148.584C2211.77 149.119 2210.75 149.386 2209.64 149.386Z" fill="#C1CCA4"/>
<path d="M2324.65 60.528L2304.74 67.0134L2300.66 46.8L2296.57 67.0134L2276.66 60.528L2292.23 74.751L2276.66 88.7244L2296.83 81.987L2300.66 103.2L2304.48 81.987L2324.65 88.7244L2309.08 74.751L2324.65 60.528Z" fill="#C1CCA4"/>
<path d="M2387.7 4.0268L2388.31 0.449951H2432.55L2431.94 4.0268H2411.75L2401.88 63.5999H2398.03L2407.89 4.0268H2387.7ZM2418.5 63.5999H2414.43L2447.7 0.449951H2452.14L2464.44 63.5999H2460.38L2449.31 5.41438H2448.97L2418.5 63.5999ZM2428.24 39.8262H2458.58L2457.97 43.403H2427.63L2428.24 39.8262ZM2465.49 63.5999L2466.07 60.4241L2511.37 4.0268H2475.48L2476.03 0.449951H2516.67L2516.24 3.62595L2470.8 60.0233H2507.11L2506.5 63.5999H2465.49ZM2513.78 63.5999L2524.27 0.449951H2528.12L2522.05 37.1127H2522.44L2561.84 0.449951H2566.96L2534.62 30.3291L2556.24 63.5999H2551.42L2531.69 33.1042L2521.09 43.033L2517.64 63.5999H2513.78ZM2574.83 0.449951L2564.35 63.5999H2560.5L2570.98 0.449951H2574.83ZM2578.89 0.449951H2583.3L2598.13 30.9149H2598.63L2623.57 0.449951H2628.22L2599.74 34.9543L2595.02 63.5999H2591.14L2595.88 34.9543L2578.89 0.449951ZM2612.92 63.5999H2608.85L2642.12 0.449951H2646.56L2658.86 63.5999H2654.79L2643.72 5.41438H2643.38L2612.92 63.5999ZM2622.66 39.8262H2653L2652.38 43.403H2622.05L2622.66 39.8262ZM2392.2 148.8L2385.17 85.6499H2395.19L2399.38 134.554H2399.96L2420.87 85.6499H2430.8L2435.49 134.585H2436.1L2456.45 85.6499H2466.5L2438.47 148.8H2428.89L2423.49 101.499H2423L2401.82 148.8H2392.2ZM2513.76 117.842C2512.65 124.481 2510.5 130.175 2507.29 134.924C2504.1 139.673 2500.2 143.321 2495.57 145.871C2490.97 148.399 2485.99 149.663 2480.65 149.663C2475.08 149.663 2470.32 148.337 2466.37 145.685C2462.45 143.014 2459.64 139.22 2457.93 134.308C2456.22 129.374 2455.94 123.495 2457.06 116.67C2458.17 110.03 2460.32 104.336 2463.51 99.5873C2466.72 94.8179 2470.63 91.1591 2475.25 88.6104C2479.9 86.061 2484.92 84.7866 2490.3 84.7866C2495.83 84.7866 2500.55 86.1227 2504.45 88.7952C2508.38 91.4472 2511.19 95.2499 2512.9 100.204C2514.61 105.137 2514.9 111.017 2513.76 117.842ZM2504.48 116.67C2505.33 111.634 2505.22 107.399 2504.18 103.966C2503.15 100.513 2501.39 97.9019 2498.9 96.1338C2496.42 94.3661 2493.41 93.4817 2489.9 93.4817C2486.16 93.4817 2482.66 94.4274 2479.39 96.3186C2476.14 98.2104 2473.36 100.964 2471.06 104.582C2468.76 108.2 2467.19 112.621 2466.34 117.842C2465.48 122.878 2465.58 127.113 2466.62 130.546C2467.67 133.979 2469.44 136.579 2471.92 138.347C2474.43 140.094 2477.44 140.968 2480.96 140.968C2484.68 140.968 2488.16 140.033 2491.41 138.162C2494.68 136.271 2497.46 133.526 2499.77 129.929C2502.07 126.311 2503.64 121.891 2504.48 116.67ZM2512.69 148.8L2523.17 85.6499H2545.68C2550.57 85.6499 2554.49 86.493 2557.43 88.1784C2560.39 89.8433 2562.42 92.1665 2563.53 95.1473C2564.66 98.1071 2564.91 101.54 2564.27 105.446C2563.61 109.31 2562.23 112.703 2560.11 115.622C2558.01 118.541 2555.21 120.823 2551.69 122.467C2548.2 124.091 2544 124.903 2539.11 124.903H2522.06L2523.48 116.701H2539.67C2542.77 116.701 2545.36 116.259 2547.44 115.375C2549.52 114.491 2551.14 113.206 2552.31 111.521C2553.5 109.835 2554.29 107.81 2554.65 105.446C2555.04 103.041 2554.93 100.975 2554.32 99.2483C2553.7 97.5011 2552.49 96.1649 2550.7 95.2397C2548.92 94.2941 2546.46 93.8214 2543.34 93.8214H2531.37L2522.22 148.8H2512.69ZM2548.58 120.308L2559.46 148.8H2548.61L2538 120.308H2548.58ZM2561.11 148.8L2571.59 85.6499H2581.11L2576.15 115.807H2576.92L2608.37 85.6499H2620.36L2590.24 114.08L2609.97 148.8H2598.51L2582.84 120.586L2573.96 129.189L2570.63 148.8H2561.11ZM2652.87 102.609C2652.89 99.5051 2651.88 97.1309 2649.85 95.4863C2647.84 93.8417 2645.02 93.0197 2641.4 93.0197C2638.81 93.0197 2636.5 93.4307 2634.47 94.2527C2632.45 95.0543 2630.81 96.1649 2629.53 97.5834C2628.28 98.9808 2627.51 100.574 2627.22 102.362C2626.95 103.863 2627.09 105.158 2627.62 106.248C2628.18 107.337 2628.97 108.252 2629.99 108.992C2631.04 109.712 2632.2 110.318 2633.45 110.812C2634.7 111.284 2635.92 111.675 2637.09 111.983L2643.01 113.587C2644.92 114.08 2646.86 114.748 2648.84 115.591C2650.81 116.434 2652.59 117.544 2654.17 118.921C2655.75 120.298 2656.93 122.005 2657.72 124.04C2658.5 126.074 2658.65 128.51 2658.18 131.347C2657.56 134.924 2656.11 138.1 2653.83 140.875C2651.55 143.651 2648.54 145.84 2644.79 147.443C2641.06 149.047 2636.72 149.848 2631.78 149.848C2627.05 149.848 2623.08 149.098 2619.86 147.598C2616.65 146.097 2614.29 143.969 2612.79 141.215C2611.3 138.439 2610.76 135.151 2611.19 131.347H2620.78C2620.55 133.629 2620.97 135.53 2622.01 137.052C2623.08 138.553 2624.58 139.673 2626.51 140.413C2628.45 141.133 2630.64 141.492 2633.08 141.492C2635.8 141.492 2638.27 141.071 2640.51 140.228C2642.75 139.364 2644.6 138.172 2646.06 136.651C2647.52 135.109 2648.41 133.31 2648.74 131.255C2649.07 129.384 2648.8 127.853 2647.94 126.661C2647.1 125.468 2645.83 124.481 2644.12 123.7C2642.43 122.919 2640.51 122.231 2638.35 121.634L2631.23 119.599C2626.4 118.222 2622.74 116.197 2620.25 113.525C2617.77 110.852 2616.87 107.317 2617.57 102.917C2618.19 99.2789 2619.71 96.1031 2622.14 93.3893C2624.56 90.6761 2627.58 88.5689 2631.2 87.0683C2634.82 85.5473 2638.74 84.7866 2642.98 84.7866C2647.25 84.7866 2650.89 85.5473 2653.89 87.0683C2656.89 88.5893 2659.11 90.6863 2660.55 93.3587C2661.99 96.0312 2662.49 99.1145 2662.06 102.609H2652.87ZM2664.97 149.386C2663.24 149.386 2661.8 148.79 2660.65 147.598C2659.52 146.405 2658.96 144.946 2658.99 143.219C2659.01 141.512 2659.64 140.084 2660.9 138.933C2662.17 137.761 2663.66 137.175 2665.33 137.175C2667.02 137.175 2668.46 137.771 2669.65 138.964C2670.85 140.156 2671.4 141.574 2671.32 143.219C2671.26 144.37 2670.93 145.418 2670.33 146.364C2669.76 147.289 2668.99 148.029 2668.05 148.584C2667.1 149.119 2666.08 149.386 2664.97 149.386Z" fill="#C1CCA4"/>
</svg>
