<svg width="539" height="281" viewBox="0 0 539 281" fill="none" xmlns="http://www.w3.org/2000/svg">
<path d="M5.7274 7.54366L6.88399 0.843018H89.8685L88.712 7.54366H50.834L32.3288 119.144H25.1001L43.6053 7.54366H5.7274ZM63.5154 119.144H55.8819L118.28 0.843018H126.606L149.68 119.144H142.047L121.286 10.1431H120.65L63.5154 119.144ZM81.7893 74.6079H138.693L137.536 81.3085H80.6327L81.7893 74.6079ZM151.649 119.144L152.747 113.195L237.699 7.54366H170.386L171.427 0.843018H247.645L246.835 6.79272L161.595 112.444H229.719L228.562 119.144H151.649ZM242.226 119.144L261.888 0.843018H269.116L257.724 69.5246H258.476L332.382 0.843018H341.981L281.319 56.8165L321.856 119.144H312.835L275.825 62.0153L255.932 80.6153L249.455 119.144H242.226ZM356.744 0.843018L337.082 119.144H329.853L349.515 0.843018H356.744ZM364.365 0.843018H372.635L400.451 57.914H401.376L448.16 0.843018H456.892L403.458 65.4811L394.61 119.144H387.324L396.229 65.4811L364.365 0.843018ZM428.182 119.144H420.548L482.946 0.843018H491.273L514.347 119.144H506.714L485.953 10.1431H485.317L428.182 119.144ZM446.456 74.6079H503.36L502.203 81.3085H445.3L446.456 74.6079ZM14.1704 278.752L0.985428 160.451H19.7798L27.6446 252.065H28.7433L67.9514 160.451H86.5723L95.3623 252.122H96.5189L134.686 160.451H153.538L100.972 278.752H82.9869L72.8668 190.141H71.9415L32.2131 278.752H14.1704ZM242.192 220.757C240.11 233.195 236.063 243.862 230.048 252.758C224.072 261.654 216.748 268.489 208.073 273.265C199.438 278.001 190.107 280.369 180.085 280.369C169.636 280.369 160.711 277.885 153.309 272.917C145.945 267.912 140.664 260.806 137.464 251.603C134.264 242.36 133.725 231.347 135.845 218.562C137.927 206.124 141.955 195.456 147.931 186.56C153.946 177.626 161.289 170.772 169.964 165.997C178.677 161.221 188.084 158.834 198.184 158.834C208.555 158.834 217.403 161.337 224.728 166.343C232.092 171.311 237.374 178.435 240.573 187.716C243.773 196.957 244.313 207.971 242.192 220.757ZM224.786 218.562C226.367 209.127 226.174 201.194 224.207 194.763C222.28 188.294 218.984 183.403 214.318 180.091C209.654 176.779 204.026 175.123 197.433 175.123C190.417 175.123 183.843 176.894 177.714 180.437C171.621 183.981 166.417 189.14 162.099 195.918C157.782 202.695 154.833 210.976 153.252 220.757C151.632 230.192 151.806 238.125 153.771 244.555C155.738 250.987 159.053 255.858 163.719 259.17C168.422 262.443 174.07 264.08 180.663 264.08C187.641 264.08 194.175 262.328 200.266 258.823C206.397 255.281 211.62 250.139 215.938 243.4C220.256 236.622 223.206 228.343 224.786 218.562ZM240.185 278.752L259.848 160.451H302.062C311.238 160.451 318.582 162.03 324.095 165.188C329.646 168.307 333.463 172.659 335.545 178.243C337.666 183.787 338.129 190.219 336.934 197.535C335.699 204.775 333.098 211.13 329.127 216.598C325.194 222.066 319.931 226.341 313.339 229.422C306.784 232.463 298.92 233.985 289.745 233.985H257.765L260.425 218.619H290.785C296.606 218.619 301.464 217.792 305.359 216.136C309.252 214.479 312.298 212.073 314.496 208.916C316.732 205.757 318.197 201.964 318.89 197.535C319.623 193.03 319.411 189.16 318.254 185.925C317.097 182.652 314.842 180.149 311.488 178.416C308.135 176.644 303.527 175.759 297.668 175.759H275.23L258.054 278.752H240.185ZM307.498 225.378L327.911 278.752H307.556L287.663 225.378H307.498ZM330.993 278.752L350.655 160.451H368.524L359.214 216.944H360.66L419.645 160.451H442.141L385.642 213.71L422.653 278.752H401.14L371.763 225.898L355.108 242.014L348.862 278.752H330.993ZM503.123 192.221C503.163 186.406 501.273 181.959 497.457 178.878C493.678 175.797 488.397 174.257 481.612 174.257C476.754 174.257 472.416 175.027 468.6 176.567C464.822 178.069 461.737 180.149 459.347 182.806C456.996 185.424 455.55 188.409 455.009 191.759C454.509 194.57 454.76 196.997 455.762 199.038C456.803 201.078 458.287 202.792 460.215 204.178C462.181 205.527 464.34 206.662 466.692 207.587C469.044 208.473 471.318 209.205 473.515 209.781L484.618 212.786C488.204 213.71 491.847 214.962 495.548 216.54C499.249 218.119 502.584 220.198 505.553 222.779C508.521 225.359 510.738 228.555 512.203 232.368C513.668 236.179 513.957 240.743 513.071 246.057C511.914 252.758 509.195 258.708 504.916 263.906C500.637 269.106 494.989 273.206 487.973 276.211C480.956 279.214 472.821 280.716 463.568 280.716C454.701 280.716 447.242 279.311 441.189 276.5C435.174 273.688 430.76 269.703 427.946 264.542C425.132 259.343 424.129 253.182 424.939 246.057H442.924C442.5 250.332 443.271 253.894 445.237 256.744C447.242 259.555 450.056 261.654 453.679 263.04C457.304 264.388 461.41 265.062 465.998 265.062C471.086 265.062 475.732 264.273 479.934 262.693C484.137 261.076 487.606 258.843 490.344 255.993C493.08 253.105 494.758 249.735 495.375 245.884C495.991 242.379 495.491 239.511 493.871 237.278C492.29 235.044 489.9 233.195 486.7 231.732C483.539 230.268 479.934 228.979 475.886 227.862L462.527 224.049C453.468 221.47 446.606 217.676 441.941 212.67C437.275 207.663 435.599 201.04 436.91 192.799C438.066 185.983 440.919 180.033 445.468 174.949C450.018 169.867 455.685 165.919 462.47 163.108C469.255 160.259 476.619 158.834 484.561 158.834C492.58 158.834 499.403 160.259 505.032 163.108C510.66 165.957 514.825 169.886 517.523 174.892C520.222 179.898 521.166 185.675 520.357 192.221H503.123ZM525.81 279.849C522.571 279.849 519.873 278.733 517.714 276.5C515.594 274.266 514.553 271.531 514.591 268.297C514.629 265.1 515.824 262.424 518.176 260.268C520.566 258.073 523.342 256.975 526.503 256.975C529.665 256.975 532.363 258.092 534.599 260.325C536.835 262.559 537.876 265.216 537.722 268.297C537.607 270.454 536.989 272.417 535.872 274.189C534.793 275.922 533.366 277.308 531.592 278.347C529.819 279.349 527.891 279.849 525.81 279.849Z" fill="#0A0A0A"/>
</svg>
