<svg width="99" height="54" viewBox="0 0 99 54" fill="none" xmlns="http://www.w3.org/2000/svg">
<path d="M7.13699 20.2499H4.16699V0.944894H12.213C16.479 0.944894 18.774 2.94289 18.774 6.50689C18.774 8.96389 17.289 10.7459 15.156 11.2319V11.2859C19.638 12.1229 17.991 19.7369 19.044 20.0609V20.2499H15.858C14.994 19.4399 16.83 12.6899 12.105 12.6899H7.13699V20.2499ZM7.13699 10.1249H11.565C14.292 10.1249 15.777 8.93689 15.777 6.72289C15.777 4.64389 14.589 3.50989 11.619 3.50989H7.13699V10.1249ZM29.2837 20.6279C23.9917 20.6279 21.7507 17.8469 21.7507 13.6889V0.944894H24.7207V13.6889C24.7207 16.6859 26.2327 18.0629 29.2837 18.0629C32.3617 18.0629 33.8467 16.6859 33.8467 13.6889V0.944894H36.8437V13.6889C36.8437 17.8469 34.6027 20.6279 29.2837 20.6279ZM48.3298 20.6279C42.7678 20.6279 39.6358 16.4159 39.6358 10.5839C39.6358 4.7789 43.1728 0.566895 48.6808 0.566895C53.6758 0.566895 56.3218 3.23989 56.9428 6.91189H53.8378C53.3248 4.48189 51.5158 3.13189 48.6538 3.13189C44.3878 3.13189 42.7408 6.96589 42.7408 10.5839C42.7408 14.2289 43.9828 18.0629 48.4918 18.0629C51.6778 18.0629 54.2158 15.8489 54.2428 12.6359H48.5458V10.1519H57.2668V20.2499H55.2148L54.4858 17.5769H54.4318C53.0818 19.5479 51.2728 20.6279 48.3298 20.6279ZM63.4309 20.2499H60.4609V0.944894H63.4309V20.2499Z" fill="#2862DD"/>
<path d="M11.1871 51.7501H0.549072L0.765072 50.9671C2.81707 50.9671 3.81607 50.2651 4.30207 48.6991L9.02707 33.2011C9.51307 31.6351 9.24307 30.9331 6.92107 30.9331L7.16407 30.1501H15.9661C21.3121 30.1501 25.5241 32.9311 25.5241 38.3041C25.5241 46.2151 19.4221 51.7501 11.1871 51.7501ZM11.1871 50.2381C16.0201 50.2381 19.7731 42.6511 19.7731 36.9001C19.7731 33.0121 18.0721 31.6621 16.4521 31.6621C15.8041 31.6621 15.0751 31.8781 14.8861 32.3911L9.67507 49.2391C9.48607 49.8331 10.1071 50.2381 11.1871 50.2381ZM34.286 52.1551C29.048 52.1551 26.888 48.2131 26.888 43.8931C26.888 36.8191 32.423 29.7181 39.524 29.7181C44.762 29.7181 46.895 33.6331 46.895 37.9801C46.895 45.0541 41.387 52.1551 34.286 52.1551ZM34.34 50.6431C37.823 50.6431 41.387 39.9781 41.387 34.4701C41.387 32.3371 40.793 31.2301 39.497 31.2301C35.96 31.2301 32.423 41.8951 32.423 47.4031C32.423 49.5361 32.99 50.6431 34.34 50.6431ZM71.0845 30.1501L70.8686 30.9331C68.8166 30.9331 67.8175 31.6351 67.3315 33.2011L61.6615 51.8041H58.5025L53.4265 35.4421L49.3495 48.6991C48.8905 50.2651 49.2415 50.9671 51.7795 50.9671L51.5365 51.7501H43.9495L44.1656 50.9671C46.2176 50.9671 47.2165 50.2651 47.7025 48.6991L52.5625 32.7421C52.0495 31.3111 51.4285 30.9331 50.6455 30.9331L50.7805 30.1501H57.7465L62.2015 43.9201H62.3635L65.6576 33.2011C66.1436 31.6351 65.7656 30.9331 63.1736 30.9331L63.4165 30.1501H71.0845ZM82.0326 31.4731C77.1726 31.4731 74.0136 39.5461 74.0136 45.2161C74.0136 48.1321 74.8236 50.2651 77.1186 50.2651C78.4416 50.2651 79.2786 49.0771 79.7646 47.7271L80.8986 43.9201C81.3576 42.3541 80.8446 41.6251 77.8476 41.6251L78.1176 40.8421H88.1076L87.9996 41.6251C86.9736 41.6251 86.7036 41.8951 86.2446 43.4341L84.4896 49.1581C82.5186 50.7781 79.2786 52.1821 75.9306 52.1821C70.4226 52.1821 68.0196 48.6181 68.0196 44.0281C68.0196 37.0621 73.5276 29.6911 81.2226 29.6911C83.4636 29.6911 85.0026 30.2851 86.0556 31.4461C86.3796 31.8241 86.5686 31.9051 86.8386 31.3651L87.4326 30.0421H88.2156L86.0016 37.7641H85.2186C85.6776 33.9301 84.8136 31.4731 82.0326 31.4731ZM93.0747 32.1481C93.6147 30.4201 94.5867 29.6101 95.9367 29.6101C97.1247 29.6101 97.7457 30.2311 97.7457 31.2841C97.7457 31.6351 97.6917 32.0131 97.5567 32.3911C96.7737 35.0641 93.7497 38.8441 91.4547 46.1071H90.6987C92.8317 38.8441 92.1837 34.9021 93.0747 32.1481ZM89.2677 52.1551C88.1067 52.1551 87.4047 51.4531 87.4047 50.4271C87.4047 49.1851 88.5927 47.6461 90.1047 47.6461C91.2657 47.6461 91.9677 48.3481 91.9677 49.3741C91.9677 50.6161 90.7797 52.1551 89.2677 52.1551Z" fill="#2862DD"/>
</svg>
