<svg width="100" height="54" viewBox="0 0 100 54" fill="none" xmlns="http://www.w3.org/2000/svg">
<g clip-path="url(#clip0_84_89)">
<path d="M12.6361 10.8001H11.0313V6.68169L7.33008 0.50409H9.05056L11.8265 5.42889H11.8554L14.6313 0.50409H16.3373L12.6361 6.68169V10.8001ZM16.8139 10.8001H15.1368L18.9826 0.50409H20.7031L24.5778 10.8001H22.8429L21.9898 8.32329H17.6669L16.8139 10.8001ZM19.8212 1.97289L18.1441 6.98409H21.5416L19.8501 1.97289H19.8212ZM27.2403 10.8001H25.65V0.50409H27.4716L32.2716 8.42409H32.3006V0.50409H33.9054V10.8001H32.0837L27.2692 2.88009H27.2403V10.8001ZM40.1207 11.0017C37.1424 11.0017 35.4653 8.75529 35.4653 5.64489C35.4653 2.54889 37.3592 0.30249 40.3086 0.30249C42.9833 0.30249 44.4002 1.72809 44.7327 3.68649H43.0701C42.7954 2.39049 41.8267 1.67049 40.2942 1.67049C38.0098 1.67049 37.1279 3.71529 37.1279 5.64489C37.1279 7.58889 37.793 9.63369 40.2074 9.63369C41.9135 9.63369 43.2725 8.45289 43.2869 6.73929H40.2363V5.41449H44.9062V10.8001H43.8074L43.4171 9.37449H43.3882C42.6653 10.4257 41.6966 11.0017 40.1207 11.0017ZM54.2502 10.8001H49.6382V0.50409H53.99C56.1153 0.50409 57.3586 1.45449 57.3586 3.09609C57.3586 4.36329 56.6068 4.95369 55.7538 5.24169V5.27049C56.8382 5.45769 57.7635 6.24969 57.7635 7.79049C57.7635 9.76329 56.39 10.8001 54.2502 10.8001ZM51.2285 4.78089H53.9466C55.2478 4.78089 55.696 4.24809 55.696 3.32649C55.696 2.41929 55.1466 1.87209 54.0622 1.87209H51.2285V4.78089ZM51.2285 9.43209H54.1345C55.6671 9.43209 56.1008 8.69769 56.1008 7.73289C56.1008 6.65289 55.4357 6.03369 54.3514 6.03369H51.2285V9.43209ZM66.7416 10.8001H59.2814V0.50409H66.5971V1.87209H60.8718V4.79529H65.8886V6.16329H60.8718V9.43209H66.7416V10.8001ZM69.8232 10.8001H68.2329V0.50409H70.0545L74.8545 8.42409H74.8835V0.50409H76.4883V10.8001H74.6666L69.8521 2.88009H69.8232V10.8001ZM85.9998 10.8001H78.5396V0.50409H85.8553V1.87209H80.13V4.79529H85.1468V6.16329H80.13V9.43209H85.9998V10.8001ZM89.0814 10.8001H87.491V0.50409H91.7995C94.0838 0.50409 95.3127 1.56969 95.3127 3.47049C95.3127 4.78089 94.5176 5.73129 93.3754 5.99049V6.01929C95.7754 6.46569 94.8935 10.5265 95.4573 10.6993V10.8001H93.7513C93.2886 10.3681 94.2718 6.76809 91.7416 6.76809H89.0814V10.8001ZM89.0814 5.40009H91.4525C92.9127 5.40009 93.7079 4.76649 93.7079 3.58569C93.7079 2.47689 93.0718 1.87209 91.4814 1.87209H89.0814V5.40009Z" fill="#2862DD"/>
<path d="M26.4482 21.4656L25.2531 48.8448C25.1759 51.3408 25.7157 51.8784 28.4916 51.8784L28.1446 52.8H16.5784L16.8868 51.8784C20.1253 51.8784 20.7422 51.1872 20.8964 48.8448L21.2049 43.3152H10.8723L6.82414 49.4976C5.55185 51.456 5.24341 51.8784 9.13739 51.8784L8.82896 52.8H0.0771484L0.347028 51.8784C2.12052 51.8784 3.39281 51.5712 4.78076 49.4976L23.4025 21.4656H26.4482ZM21.8603 26.5728L11.8362 41.856H21.3205L22.2073 26.5728H21.8603ZM40.0531 44.4288L45.6434 25.8816C46.3374 23.616 46.1832 23.0016 42.2506 23.0016L42.5591 22.08H54.6265L54.3567 23.0016C51.5422 23.0016 50.5784 23.616 49.8844 25.8816L44.5639 43.4304C42.3278 50.9184 39.1663 53.4144 35.0796 53.4144C31.3012 53.4144 29.682 51.264 29.682 49.0368C29.682 46.9632 30.9928 45.2736 32.6892 45.2736C33.6916 45.2736 34.3856 45.8112 34.3856 46.7328C34.3856 48.0384 32.9591 48.8448 32.9591 50.304C32.9591 51.1872 33.4603 51.9168 34.8868 51.9168C37.3157 51.9168 38.5494 49.344 40.0531 44.4288ZM75.6253 22.08L73.5049 29.2608H72.3868C73.3506 25.3056 73.0422 23.808 70.3049 23.808H65.4085C64.2904 23.808 63.5579 24.3072 63.2109 25.4208L59.9723 35.9424H64.8302C66.8735 35.9424 67.8374 35.136 68.647 32.7168H69.5723L67.0278 41.3568H66.0639C66.835 38.4768 66.488 37.3248 64.4061 37.3248H59.5868L56.1169 48.6144C55.4615 50.7264 55.7314 51.072 57.235 51.072H62.594C65.5627 51.072 67.4133 49.8432 69.9579 45.2352L71.1145 45.5808L67.3362 52.8H46.8639L47.1338 51.8784C50.0639 51.8784 51.0278 51.264 51.7217 48.9984L58.8157 25.8816C59.5097 23.616 59.4711 23.0016 56.0398 23.0016L56.3097 22.08H75.6253ZM80.5235 28.6848H79.6753L80.6392 22.3488C81.603 21.8112 83.4922 21.312 85.3428 21.312C88.8512 21.312 90.8561 23.04 90.8561 26.1888C90.8561 29.76 88.3115 31.872 84.2633 34.9056C80.9476 37.3632 78.8657 38.9376 78.8657 40.5504C78.8657 41.3184 79.2127 42.0864 80.5621 42.8928L80.0223 43.6224C78.0175 42.5856 76.7452 41.28 76.7452 39.552C76.7452 36.7488 79.0585 34.8288 82.5283 32.2944C86.3067 29.4912 87.8874 27.84 87.8874 25.6128C87.8874 24.1152 87.0778 23.04 85.2657 23.04C83.1452 23.04 81.6416 24.3456 80.5235 28.6848ZM77.7091 53.2608C76.6296 53.2608 75.8585 52.5312 75.8585 51.5328C75.8585 50.1504 77.1308 48.7296 78.6344 48.7296C79.7525 48.7296 80.4464 49.4592 80.4464 50.4576C80.4464 51.8016 79.2127 53.2608 77.7091 53.2608ZM95.6305 23.9232C96.1703 22.1568 96.9799 21.312 98.2522 21.312C99.2932 21.312 99.7944 21.888 99.7944 22.848C99.7944 23.1936 99.7558 23.5776 99.5631 24.2304C98.7149 27.0336 95.6305 32.256 91.5823 45.1968H90.6956C94.5124 32.3712 94.7052 26.7648 95.6305 23.9232ZM88.6908 53.2608C87.6111 53.2608 86.8786 52.5312 86.8786 51.5328C86.8786 50.1504 88.151 48.7296 89.6161 48.7296C90.7341 48.7296 91.4281 49.4592 91.4281 50.4576C91.4281 51.8016 90.1944 53.2608 88.6908 53.2608Z" fill="#2862DD"/>
</g>
<defs>
<clipPath id="clip0_84_89">
<rect width="100" height="54" fill="white"/>
</clipPath>
</defs>
</svg>
